G04 EAGLE Gerber RS-274X export*
G75*
%MOMM*%
%FSLAX34Y34*%
%LPD*%
%INSolderpaste Top*%
%IPPOS*%
%AMOC8*
5,1,8,0,0,1.08239X$1,22.5*%
G01*
%ADD10R,1.500000X0.900000*%
%ADD11R,0.900000X1.500000*%
%ADD12R,1.100000X1.000000*%
%ADD13R,1.000000X1.100000*%


D10*
G36*
X147897Y250721D02*
X135611Y259324D01*
X140773Y266697D01*
X153059Y258094D01*
X147897Y250721D01*
G37*
G36*
X128969Y223689D02*
X116683Y232292D01*
X121845Y239665D01*
X134131Y231062D01*
X128969Y223689D01*
G37*
G36*
X188035Y222615D02*
X175749Y231218D01*
X180911Y238591D01*
X193197Y229988D01*
X188035Y222615D01*
G37*
G36*
X169107Y195583D02*
X156821Y204186D01*
X161983Y211559D01*
X174269Y202956D01*
X169107Y195583D01*
G37*
D11*
X273242Y225612D03*
X240242Y225612D03*
X273242Y176612D03*
X240242Y176612D03*
D10*
G36*
X79892Y325279D02*
X73552Y338873D01*
X81708Y342677D01*
X88048Y329083D01*
X79892Y325279D01*
G37*
G36*
X49984Y311332D02*
X43644Y324926D01*
X51800Y328730D01*
X58140Y315136D01*
X49984Y311332D01*
G37*
G36*
X100600Y280870D02*
X94260Y294464D01*
X102416Y298268D01*
X108756Y284674D01*
X100600Y280870D01*
G37*
G36*
X70692Y266923D02*
X64352Y280517D01*
X72508Y284321D01*
X78848Y270727D01*
X70692Y266923D01*
G37*
X21220Y410200D03*
X21220Y377200D03*
X70220Y410200D03*
X70220Y377200D03*
G36*
X189071Y629802D02*
X175477Y623462D01*
X171673Y631618D01*
X185267Y637958D01*
X189071Y629802D01*
G37*
G36*
X203018Y599894D02*
X189424Y593554D01*
X185620Y601710D01*
X199214Y608050D01*
X203018Y599894D01*
G37*
G36*
X233480Y650510D02*
X219886Y644170D01*
X216082Y652326D01*
X229676Y658666D01*
X233480Y650510D01*
G37*
G36*
X247427Y620602D02*
X233833Y614262D01*
X230029Y622418D01*
X243623Y628758D01*
X247427Y620602D01*
G37*
G36*
X128687Y570696D02*
X140176Y580337D01*
X145961Y573442D01*
X134472Y563801D01*
X128687Y570696D01*
G37*
G36*
X107475Y595975D02*
X118964Y605616D01*
X124749Y598721D01*
X113260Y589080D01*
X107475Y595975D01*
G37*
G36*
X91151Y539199D02*
X102640Y548840D01*
X108425Y541945D01*
X96936Y532304D01*
X91151Y539199D01*
G37*
G36*
X69939Y564478D02*
X81428Y574119D01*
X87213Y567224D01*
X75724Y557583D01*
X69939Y564478D01*
G37*
G36*
X324291Y606479D02*
X338385Y601349D01*
X335307Y592893D01*
X321213Y598023D01*
X324291Y606479D01*
G37*
G36*
X335578Y637488D02*
X349672Y632358D01*
X346594Y623902D01*
X332500Y629032D01*
X335578Y637488D01*
G37*
G36*
X278246Y623238D02*
X292340Y618108D01*
X289262Y609652D01*
X275168Y614782D01*
X278246Y623238D01*
G37*
G36*
X289533Y654247D02*
X303627Y649117D01*
X300549Y640661D01*
X286455Y645791D01*
X289533Y654247D01*
G37*
G36*
X416286Y543374D02*
X426892Y532768D01*
X420528Y526404D01*
X409922Y537010D01*
X416286Y543374D01*
G37*
G36*
X439620Y566708D02*
X450226Y556102D01*
X443862Y549738D01*
X433256Y560344D01*
X439620Y566708D01*
G37*
G36*
X381638Y578022D02*
X392244Y567416D01*
X385880Y561052D01*
X375274Y571658D01*
X381638Y578022D01*
G37*
G36*
X404972Y601356D02*
X415578Y590750D01*
X409214Y584386D01*
X398608Y594992D01*
X404972Y601356D01*
G37*
X281040Y67320D03*
X281040Y100320D03*
X232040Y67320D03*
X232040Y100320D03*
G36*
X41221Y497371D02*
X26450Y499975D01*
X28013Y508837D01*
X42784Y506233D01*
X41221Y497371D01*
G37*
G36*
X35491Y464872D02*
X20720Y467476D01*
X22283Y476338D01*
X37054Y473734D01*
X35491Y464872D01*
G37*
G36*
X89477Y488862D02*
X74706Y491466D01*
X76269Y500328D01*
X91040Y497724D01*
X89477Y488862D01*
G37*
G36*
X83747Y456363D02*
X68976Y458967D01*
X70539Y467829D01*
X85310Y465225D01*
X83747Y456363D01*
G37*
G36*
X456818Y453630D02*
X461948Y439536D01*
X453492Y436458D01*
X448362Y450552D01*
X456818Y453630D01*
G37*
G36*
X487827Y464917D02*
X492957Y450823D01*
X484501Y447745D01*
X479371Y461839D01*
X487827Y464917D01*
G37*
G36*
X440059Y499675D02*
X445189Y485581D01*
X436733Y482503D01*
X431603Y496597D01*
X440059Y499675D01*
G37*
G36*
X471068Y510962D02*
X476198Y496868D01*
X467742Y493790D01*
X462612Y507884D01*
X471068Y510962D01*
G37*
D12*
X265040Y48260D03*
X248040Y48260D03*
D13*
X297180Y228210D03*
X297180Y211210D03*
D12*
G36*
X119923Y269639D02*
X126845Y278186D01*
X134615Y271893D01*
X127693Y263346D01*
X119923Y269639D01*
G37*
G36*
X109225Y256427D02*
X116147Y264974D01*
X123917Y258681D01*
X116995Y250134D01*
X109225Y256427D01*
G37*
G36*
X64107Y353779D02*
X74075Y358427D01*
X78301Y349365D01*
X68333Y344717D01*
X64107Y353779D01*
G37*
G36*
X48699Y346595D02*
X58667Y351243D01*
X62893Y342181D01*
X52925Y337533D01*
X48699Y346595D01*
G37*
X20710Y429260D03*
X37710Y429260D03*
G36*
X56473Y527037D02*
X54562Y516205D01*
X44715Y517941D01*
X46626Y528773D01*
X56473Y527037D01*
G37*
G36*
X59425Y543779D02*
X57514Y532947D01*
X47667Y534683D01*
X49578Y545515D01*
X59425Y543779D01*
G37*
G36*
X151808Y594006D02*
X158879Y585580D01*
X151220Y579152D01*
X144149Y587578D01*
X151808Y594006D01*
G37*
G36*
X140880Y607028D02*
X147951Y598602D01*
X140292Y592174D01*
X133221Y600600D01*
X140880Y607028D01*
G37*
G36*
X159301Y615287D02*
X154653Y625255D01*
X163715Y629481D01*
X168363Y619513D01*
X159301Y615287D01*
G37*
G36*
X166485Y599879D02*
X161837Y609847D01*
X170899Y614073D01*
X175547Y604105D01*
X166485Y599879D01*
G37*
G36*
X356409Y595945D02*
X352647Y585609D01*
X343251Y589029D01*
X347013Y599365D01*
X356409Y595945D01*
G37*
G36*
X362224Y611920D02*
X358462Y601584D01*
X349066Y605004D01*
X352828Y615340D01*
X362224Y611920D01*
G37*
G36*
X439333Y521604D02*
X431556Y513827D01*
X424485Y520898D01*
X432262Y528675D01*
X439333Y521604D01*
G37*
G36*
X451353Y533625D02*
X443576Y525848D01*
X436505Y532919D01*
X444282Y540696D01*
X451353Y533625D01*
G37*
X461400Y429260D03*
X478400Y429260D03*
D13*
X265040Y138430D03*
X248040Y138430D03*
D10*
X442860Y405120D03*
X442860Y372120D03*
X491860Y405120D03*
X491860Y372120D03*
D13*
X421640Y403470D03*
X421640Y386470D03*
D10*
G36*
X452537Y298916D02*
X464026Y308557D01*
X469811Y301662D01*
X458322Y292021D01*
X452537Y298916D01*
G37*
G36*
X431325Y324195D02*
X442814Y333836D01*
X448599Y326941D01*
X437110Y317300D01*
X431325Y324195D01*
G37*
G36*
X415001Y267419D02*
X426490Y277060D01*
X432275Y270165D01*
X420786Y260524D01*
X415001Y267419D01*
G37*
G36*
X393789Y292698D02*
X405278Y302339D01*
X411063Y295444D01*
X399574Y285803D01*
X393789Y292698D01*
G37*
D12*
G36*
X473118Y324766D02*
X480189Y316340D01*
X472530Y309912D01*
X465459Y318338D01*
X473118Y324766D01*
G37*
G36*
X462190Y337788D02*
X469261Y329362D01*
X461602Y322934D01*
X454531Y331360D01*
X462190Y337788D01*
G37*
D10*
G36*
X375053Y226708D02*
X388043Y234208D01*
X392543Y226414D01*
X379553Y218914D01*
X375053Y226708D01*
G37*
G36*
X358553Y255286D02*
X371543Y262786D01*
X376043Y254992D01*
X363053Y247492D01*
X358553Y255286D01*
G37*
G36*
X332617Y202208D02*
X345607Y209708D01*
X350107Y201914D01*
X337117Y194414D01*
X332617Y202208D01*
G37*
G36*
X316117Y230786D02*
X329107Y238286D01*
X333607Y230492D01*
X320617Y222992D01*
X316117Y230786D01*
G37*
D12*
G36*
X412230Y242472D02*
X417730Y232946D01*
X409070Y227946D01*
X403570Y237472D01*
X412230Y242472D01*
G37*
G36*
X403730Y257194D02*
X409230Y247668D01*
X400570Y242668D01*
X395070Y252194D01*
X403730Y257194D01*
G37*
D10*
X281040Y402600D03*
X281040Y435600D03*
X232040Y402600D03*
X232040Y435600D03*
D12*
X279010Y381000D03*
X262010Y381000D03*
D10*
X281040Y734070D03*
X281040Y767070D03*
X232040Y734070D03*
X232040Y767070D03*
D12*
X281550Y712470D03*
X264550Y712470D03*
M02*
