G04 EAGLE Gerber RS-274X export*
G75*
%MOMM*%
%FSLAX34Y34*%
%LPD*%
%INSoldermask Top*%
%IPPOS*%
%AMOC8*
5,1,8,0,0,1.08239X$1,22.5*%
G01*
%ADD10R,1.627000X1.027000*%
%ADD11R,1.027000X1.627000*%
%ADD12C,2.006600*%
%ADD13R,1.227000X1.127000*%
%ADD14R,1.127000X1.227000*%
%ADD15C,1.498600*%
%ADD16P,2.900480X8X112.500000*%
%ADD17C,1.397000*%
%ADD18C,0.652000*%


D10*
G36*
X148053Y249837D02*
X134726Y259168D01*
X140617Y267581D01*
X153944Y258250D01*
X148053Y249837D01*
G37*
G36*
X129125Y222805D02*
X115798Y232136D01*
X121689Y240549D01*
X135016Y231218D01*
X129125Y222805D01*
G37*
G36*
X188191Y221731D02*
X174864Y231062D01*
X180755Y239475D01*
X194082Y230144D01*
X188191Y221731D01*
G37*
G36*
X169263Y194699D02*
X155936Y204030D01*
X161827Y212443D01*
X175154Y203112D01*
X169263Y194699D01*
G37*
D11*
X273242Y225612D03*
X240242Y225612D03*
X273242Y176612D03*
X240242Y176612D03*
D12*
X388800Y347700D03*
X414200Y347700D03*
X439600Y347700D03*
X311300Y372700D03*
X311300Y398100D03*
X311300Y423500D03*
X311300Y448900D03*
X311300Y474300D03*
X311300Y499700D03*
D10*
G36*
X79585Y324436D02*
X72709Y339180D01*
X82015Y343520D01*
X88891Y328776D01*
X79585Y324436D01*
G37*
G36*
X49677Y310489D02*
X42801Y325233D01*
X52107Y329573D01*
X58983Y314829D01*
X49677Y310489D01*
G37*
G36*
X100293Y280027D02*
X93417Y294771D01*
X102723Y299111D01*
X109599Y284367D01*
X100293Y280027D01*
G37*
G36*
X70385Y266080D02*
X63509Y280824D01*
X72815Y285164D01*
X79691Y270420D01*
X70385Y266080D01*
G37*
X21220Y410200D03*
X21220Y377200D03*
X70220Y410200D03*
X70220Y377200D03*
G36*
X189914Y629495D02*
X175170Y622619D01*
X170830Y631925D01*
X185574Y638801D01*
X189914Y629495D01*
G37*
G36*
X203861Y599587D02*
X189117Y592711D01*
X184777Y602017D01*
X199521Y608893D01*
X203861Y599587D01*
G37*
G36*
X234323Y650203D02*
X219579Y643327D01*
X215239Y652633D01*
X229983Y659509D01*
X234323Y650203D01*
G37*
G36*
X248270Y620295D02*
X233526Y613419D01*
X229186Y622725D01*
X243930Y629601D01*
X248270Y620295D01*
G37*
G36*
X127792Y570774D02*
X140255Y581231D01*
X146856Y573364D01*
X134393Y562907D01*
X127792Y570774D01*
G37*
G36*
X106580Y596053D02*
X119043Y606510D01*
X125644Y598643D01*
X113181Y588186D01*
X106580Y596053D01*
G37*
G36*
X90256Y539277D02*
X102719Y549734D01*
X109320Y541867D01*
X96857Y531410D01*
X90256Y539277D01*
G37*
G36*
X69044Y564556D02*
X81507Y575013D01*
X88108Y567146D01*
X75645Y556689D01*
X69044Y564556D01*
G37*
G36*
X323911Y607293D02*
X339199Y601728D01*
X335687Y592079D01*
X320399Y597644D01*
X323911Y607293D01*
G37*
G36*
X335198Y638302D02*
X350486Y632737D01*
X346974Y623088D01*
X331686Y628653D01*
X335198Y638302D01*
G37*
G36*
X277866Y624052D02*
X293154Y618487D01*
X289642Y608838D01*
X274354Y614403D01*
X277866Y624052D01*
G37*
G36*
X289153Y655061D02*
X304441Y649496D01*
X300929Y639847D01*
X285641Y645412D01*
X289153Y655061D01*
G37*
G36*
X416286Y544272D02*
X427790Y532768D01*
X420528Y525506D01*
X409024Y537010D01*
X416286Y544272D01*
G37*
G36*
X439620Y567606D02*
X451124Y556102D01*
X443862Y548840D01*
X432358Y560344D01*
X439620Y567606D01*
G37*
G36*
X381638Y578920D02*
X393142Y567416D01*
X385880Y560154D01*
X374376Y571658D01*
X381638Y578920D01*
G37*
G36*
X404972Y602254D02*
X416476Y590750D01*
X409214Y583488D01*
X397710Y594992D01*
X404972Y602254D01*
G37*
X281040Y67320D03*
X281040Y100320D03*
X232040Y67320D03*
X232040Y100320D03*
G36*
X41736Y496635D02*
X25714Y499460D01*
X27498Y509573D01*
X43520Y506748D01*
X41736Y496635D01*
G37*
G36*
X36006Y464136D02*
X19984Y466961D01*
X21768Y477074D01*
X37790Y474249D01*
X36006Y464136D01*
G37*
G36*
X89992Y488126D02*
X73970Y490951D01*
X75754Y501064D01*
X91776Y498239D01*
X89992Y488126D01*
G37*
G36*
X84262Y455627D02*
X68240Y458452D01*
X70024Y468565D01*
X86046Y465740D01*
X84262Y455627D01*
G37*
G36*
X457197Y454444D02*
X462762Y439156D01*
X453113Y435644D01*
X447548Y450932D01*
X457197Y454444D01*
G37*
G36*
X488206Y465731D02*
X493771Y450443D01*
X484122Y446931D01*
X478557Y462219D01*
X488206Y465731D01*
G37*
G36*
X440438Y500489D02*
X446003Y485201D01*
X436354Y481689D01*
X430789Y496977D01*
X440438Y500489D01*
G37*
G36*
X471447Y511776D02*
X477012Y496488D01*
X467363Y492976D01*
X461798Y508264D01*
X471447Y511776D01*
G37*
D13*
X265040Y48260D03*
X248040Y48260D03*
D14*
X297180Y228210D03*
X297180Y211210D03*
D13*
G36*
X119029Y269545D02*
X126751Y279080D01*
X135509Y271987D01*
X127787Y262452D01*
X119029Y269545D01*
G37*
G36*
X108331Y256333D02*
X116053Y265868D01*
X124811Y258775D01*
X117089Y249240D01*
X108331Y256333D01*
G37*
G36*
X63263Y354086D02*
X74382Y359271D01*
X79145Y349058D01*
X68026Y343873D01*
X63263Y354086D01*
G37*
G36*
X47855Y346902D02*
X58974Y352087D01*
X63737Y341874D01*
X52618Y336689D01*
X47855Y346902D01*
G37*
X20710Y429260D03*
X37710Y429260D03*
G36*
X57208Y527552D02*
X55078Y515469D01*
X43980Y517426D01*
X46110Y529509D01*
X57208Y527552D01*
G37*
G36*
X60160Y544294D02*
X58030Y532211D01*
X46932Y534168D01*
X49062Y546251D01*
X60160Y544294D01*
G37*
G36*
X151887Y594900D02*
X159774Y585502D01*
X151141Y578258D01*
X143254Y587656D01*
X151887Y594900D01*
G37*
G36*
X140959Y607922D02*
X148846Y598524D01*
X140213Y591280D01*
X132326Y600678D01*
X140959Y607922D01*
G37*
G36*
X158994Y614443D02*
X153809Y625562D01*
X164022Y630325D01*
X169207Y619206D01*
X158994Y614443D01*
G37*
G36*
X166178Y599035D02*
X160993Y610154D01*
X171206Y614917D01*
X176391Y603798D01*
X166178Y599035D01*
G37*
G36*
X357223Y596324D02*
X353026Y584795D01*
X342437Y588650D01*
X346634Y600179D01*
X357223Y596324D01*
G37*
G36*
X363038Y612299D02*
X358841Y600770D01*
X348252Y604625D01*
X352449Y616154D01*
X363038Y612299D01*
G37*
G36*
X440231Y521604D02*
X431556Y512929D01*
X423587Y520898D01*
X432262Y529573D01*
X440231Y521604D01*
G37*
G36*
X452251Y533625D02*
X443576Y524950D01*
X435607Y532919D01*
X444282Y541594D01*
X452251Y533625D01*
G37*
X461400Y429260D03*
X478400Y429260D03*
D15*
X330200Y311658D02*
X330200Y297942D01*
X355600Y297942D02*
X355600Y311658D01*
D14*
X265040Y138430D03*
X248040Y138430D03*
D16*
X256540Y683260D03*
D10*
X442860Y405120D03*
X442860Y372120D03*
X491860Y405120D03*
X491860Y372120D03*
D14*
X421640Y403470D03*
X421640Y386470D03*
D10*
G36*
X451642Y298994D02*
X464105Y309451D01*
X470706Y301584D01*
X458243Y291127D01*
X451642Y298994D01*
G37*
G36*
X430430Y324273D02*
X442893Y334730D01*
X449494Y326863D01*
X437031Y316406D01*
X430430Y324273D01*
G37*
G36*
X414106Y267497D02*
X426569Y277954D01*
X433170Y270087D01*
X420707Y259630D01*
X414106Y267497D01*
G37*
G36*
X392894Y292776D02*
X405357Y303233D01*
X411958Y295366D01*
X399495Y284909D01*
X392894Y292776D01*
G37*
D13*
G36*
X473197Y325660D02*
X481084Y316262D01*
X472451Y309018D01*
X464564Y318416D01*
X473197Y325660D01*
G37*
G36*
X462269Y338682D02*
X470156Y329284D01*
X461523Y322040D01*
X453636Y331438D01*
X462269Y338682D01*
G37*
D10*
G36*
X374186Y226940D02*
X388275Y235075D01*
X393410Y226182D01*
X379321Y218047D01*
X374186Y226940D01*
G37*
G36*
X357686Y255518D02*
X371775Y263653D01*
X376910Y254760D01*
X362821Y246625D01*
X357686Y255518D01*
G37*
G36*
X331750Y202440D02*
X345839Y210575D01*
X350974Y201682D01*
X336885Y193547D01*
X331750Y202440D01*
G37*
G36*
X315250Y231018D02*
X329339Y239153D01*
X334474Y230260D01*
X320385Y222125D01*
X315250Y231018D01*
G37*
D13*
G36*
X412462Y243339D02*
X418597Y232714D01*
X408838Y227079D01*
X402703Y237704D01*
X412462Y243339D01*
G37*
G36*
X403962Y258061D02*
X410097Y247436D01*
X400338Y241801D01*
X394203Y252426D01*
X403962Y258061D01*
G37*
D10*
X281040Y402600D03*
X281040Y435600D03*
X232040Y402600D03*
X232040Y435600D03*
D13*
X279010Y381000D03*
X262010Y381000D03*
D10*
X281040Y734070D03*
X281040Y767070D03*
X232040Y734070D03*
X232040Y767070D03*
D13*
X281550Y712470D03*
X264550Y712470D03*
D17*
X232410Y16510D03*
X294640Y181610D03*
D18*
X279400Y38100D03*
X273050Y243840D03*
X147320Y278130D03*
X85090Y356870D03*
X19685Y443865D03*
X69850Y532130D03*
X330200Y584200D03*
X165100Y571500D03*
X419100Y508000D03*
X436880Y438150D03*
X273050Y365760D03*
X424180Y240030D03*
X279400Y698500D03*
X260350Y158750D03*
X266700Y584200D03*
X266700Y635000D03*
X485140Y349250D03*
X419100Y254000D03*
M02*
