G04 EAGLE Gerber RS-274X export*
G75*
%MOMM*%
%FSLAX34Y34*%
%LPD*%
%INBoard Outline*%
%IPPOS*%
%AMOC8*
5,1,8,0,0,1.08239X$1,22.5*%
G01*
%ADD10C,0.254000*%
%ADD11C,0.254000*%


D10*
X215653Y165620D02*
X215653Y0D01*
X296562Y0D01*
X296562Y165561D01*
X323919Y171393D01*
X350454Y180214D01*
X355251Y180455D01*
X359206Y177743D01*
X359671Y177140D01*
X360150Y176548D01*
X360644Y175968D01*
X361152Y175400D01*
X361673Y174845D01*
X362207Y174303D01*
X362755Y173774D01*
X363316Y173258D01*
X363888Y172757D01*
X364473Y172269D01*
X365070Y171796D01*
X365678Y171337D01*
X366297Y170893D01*
X366926Y170465D01*
X367566Y170052D01*
X368216Y169655D01*
X368875Y169274D01*
X369543Y168908D01*
X370220Y168560D01*
X370906Y168228D01*
X371599Y167912D01*
X372300Y167614D01*
X373007Y167333D01*
X373722Y167069D01*
X374442Y166823D01*
X375169Y166594D01*
X375900Y166383D01*
X376637Y166190D01*
X377378Y166015D01*
X378123Y165858D01*
X378872Y165719D01*
X379624Y165599D01*
X380379Y165496D01*
X381135Y165413D01*
X381894Y165348D01*
X382654Y165301D01*
X383415Y165273D01*
X384177Y165263D01*
X384938Y165272D01*
X385699Y165299D01*
X386459Y165345D01*
X387218Y165410D01*
X387975Y165493D01*
X388730Y165594D01*
X389482Y165714D01*
X390231Y165852D01*
X390976Y166008D01*
X391717Y166183D01*
X392454Y166375D01*
X393186Y166586D01*
X393913Y166814D01*
X394633Y167059D01*
X395348Y167323D01*
X396056Y167603D01*
X396757Y167901D01*
X397450Y168215D01*
X398136Y168547D01*
X398813Y168895D01*
X399482Y169260D01*
X400141Y169640D01*
X400791Y170037D01*
X401432Y170449D01*
X402062Y170877D01*
X402681Y171320D01*
X403289Y171778D01*
X403886Y172251D01*
X404472Y172738D01*
X405045Y173239D01*
X405606Y173754D01*
X406154Y174283D01*
X406689Y174825D01*
X407211Y175379D01*
X407719Y175946D01*
X408213Y176526D01*
X408693Y177117D01*
X409159Y177720D01*
X409609Y178334D01*
X410045Y178959D01*
X410465Y179594D01*
X410869Y180239D01*
X411258Y180894D01*
X411630Y181558D01*
X411987Y182231D01*
X412326Y182913D01*
X412649Y183602D01*
X412955Y184300D01*
X413245Y185004D01*
X413516Y185715D01*
X413771Y186433D01*
X414008Y187157D01*
X414227Y187886D01*
X414428Y188621D01*
X414611Y189360D01*
X414777Y190103D01*
X414924Y190850D01*
X415053Y191601D01*
X415163Y192354D01*
X415255Y193110D01*
X415329Y193868D01*
X415384Y194628D01*
X415421Y195388D01*
X415439Y196150D01*
X415438Y196911D01*
X415419Y197673D01*
X415382Y198433D01*
X415326Y199193D01*
X415251Y199950D01*
X415158Y200706D01*
X415047Y201460D01*
X414917Y202210D01*
X414769Y202957D01*
X414603Y203700D01*
X414419Y204439D01*
X414217Y205173D01*
X413997Y205902D01*
X413759Y206626D01*
X413504Y207343D01*
X413232Y208054D01*
X412942Y208759D01*
X412575Y213551D01*
X415185Y217577D01*
X436725Y236697D01*
X456007Y258118D01*
X472736Y281512D01*
X486738Y306647D01*
X497834Y333259D01*
X505808Y360843D01*
X510609Y389121D01*
X512214Y417889D01*
X510507Y447326D01*
X505425Y476268D01*
X497024Y504471D01*
X485404Y531598D01*
X470793Y557183D01*
X453378Y580960D01*
X433372Y602650D01*
X411082Y621912D01*
X408413Y625910D01*
X408716Y630700D01*
X408996Y631408D01*
X409259Y632123D01*
X409504Y632844D01*
X409732Y633571D01*
X409942Y634303D01*
X410134Y635040D01*
X410308Y635781D01*
X410464Y636527D01*
X410602Y637276D01*
X410721Y638028D01*
X410822Y638783D01*
X410905Y639540D01*
X410969Y640299D01*
X411014Y641059D01*
X411041Y641820D01*
X411050Y642582D01*
X411040Y643343D01*
X411011Y644104D01*
X410964Y644864D01*
X410899Y645623D01*
X410815Y646380D01*
X410712Y647135D01*
X410591Y647887D01*
X410452Y648635D01*
X410295Y649380D01*
X410119Y650122D01*
X409926Y650858D01*
X409714Y651590D01*
X409485Y652316D01*
X409238Y653037D01*
X408974Y653751D01*
X408692Y654458D01*
X408394Y655159D01*
X408078Y655852D01*
X407745Y656537D01*
X407396Y657214D01*
X407031Y657882D01*
X406649Y658541D01*
X406251Y659191D01*
X405838Y659830D01*
X405409Y660460D01*
X404965Y661079D01*
X404506Y661686D01*
X404033Y662283D01*
X403545Y662867D01*
X403042Y663440D01*
X402527Y664000D01*
X401997Y664548D01*
X401454Y665082D01*
X400899Y665603D01*
X400331Y666110D01*
X399751Y666604D01*
X399159Y667083D01*
X398555Y667547D01*
X397940Y667997D01*
X397315Y668431D01*
X396679Y668850D01*
X396033Y669254D01*
X395378Y669642D01*
X394713Y670013D01*
X394039Y670368D01*
X393357Y670707D01*
X392667Y671029D01*
X391969Y671334D01*
X391264Y671622D01*
X390552Y671893D01*
X389834Y672146D01*
X389110Y672382D01*
X388380Y672600D01*
X387645Y672800D01*
X386906Y672982D01*
X386162Y673147D01*
X385415Y673292D01*
X384664Y673420D01*
X383910Y673530D01*
X383154Y673620D01*
X382396Y673693D01*
X381636Y673747D01*
X380875Y673782D01*
X380114Y673799D01*
X379353Y673798D01*
X378591Y673778D01*
X377831Y673739D01*
X377071Y673682D01*
X376313Y673606D01*
X375558Y673512D01*
X374804Y673399D01*
X374054Y673268D01*
X373307Y673119D01*
X372564Y672952D01*
X371826Y672766D01*
X371092Y672563D01*
X370363Y672342D01*
X369640Y672103D01*
X368923Y671847D01*
X368212Y671573D01*
X367508Y671282D01*
X366812Y670974D01*
X366123Y670649D01*
X365442Y670307D01*
X364770Y669949D01*
X364107Y669575D01*
X363453Y669184D01*
X362809Y668778D01*
X362175Y668356D01*
X361551Y667919D01*
X360938Y667467D01*
X360337Y667000D01*
X359747Y666518D01*
X359169Y666022D01*
X358603Y665513D01*
X358050Y664989D01*
X357509Y664453D01*
X356982Y663903D01*
X356469Y663341D01*
X355969Y662766D01*
X355483Y662179D01*
X355012Y661581D01*
X354556Y660971D01*
X350634Y658202D01*
X345844Y658377D01*
X321547Y666175D01*
X296562Y671442D01*
X296562Y831445D01*
X215653Y831445D01*
X215653Y671383D01*
X190680Y666091D01*
X166386Y658312D01*
X161586Y658147D01*
X157674Y660922D01*
X157219Y661533D01*
X156749Y662132D01*
X156264Y662719D01*
X155766Y663295D01*
X155254Y663858D01*
X154728Y664409D01*
X154188Y664947D01*
X153636Y665471D01*
X153071Y665982D01*
X152494Y666479D01*
X151905Y666961D01*
X151305Y667430D01*
X150693Y667883D01*
X150070Y668321D01*
X149437Y668744D01*
X148794Y669152D01*
X148141Y669544D01*
X147478Y669919D01*
X146807Y670279D01*
X146127Y670622D01*
X145439Y670948D01*
X144743Y671257D01*
X144040Y671550D01*
X143330Y671825D01*
X142614Y672083D01*
X141891Y672323D01*
X141163Y672546D01*
X140429Y672750D01*
X139691Y672937D01*
X138949Y673106D01*
X138202Y673257D01*
X137452Y673389D01*
X136699Y673503D01*
X135944Y673599D01*
X135186Y673676D01*
X134427Y673735D01*
X133667Y673775D01*
X132905Y673797D01*
X132144Y673800D01*
X131383Y673785D01*
X130622Y673751D01*
X129862Y673698D01*
X129104Y673627D01*
X128348Y673538D01*
X127594Y673430D01*
X126843Y673304D01*
X126095Y673160D01*
X125351Y672997D01*
X124612Y672816D01*
X123876Y672618D01*
X123146Y672401D01*
X122422Y672167D01*
X121703Y671915D01*
X120991Y671646D01*
X120285Y671360D01*
X119587Y671056D01*
X118896Y670736D01*
X118213Y670398D01*
X117539Y670044D01*
X116873Y669674D01*
X116217Y669288D01*
X115571Y668886D01*
X114934Y668468D01*
X114307Y668035D01*
X113692Y667587D01*
X113087Y667124D01*
X112494Y666646D01*
X111913Y666154D01*
X111344Y665648D01*
X110788Y665128D01*
X110244Y664595D01*
X109713Y664049D01*
X109196Y663490D01*
X108693Y662918D01*
X108204Y662335D01*
X107729Y661739D01*
X107269Y661133D01*
X106823Y660515D01*
X106393Y659887D01*
X105979Y659248D01*
X105580Y658599D01*
X105197Y657941D01*
X104830Y657274D01*
X104479Y656598D01*
X104145Y655914D01*
X103828Y655221D01*
X103528Y654521D01*
X103244Y653815D01*
X102979Y653101D01*
X102730Y652381D01*
X102500Y651655D01*
X102287Y650924D01*
X102092Y650188D01*
X101915Y649448D01*
X101756Y648703D01*
X101615Y647954D01*
X101492Y647203D01*
X101388Y646449D01*
X101302Y645692D01*
X101235Y644933D01*
X101186Y644173D01*
X101156Y643413D01*
X101144Y642651D01*
X101151Y641890D01*
X101176Y641129D01*
X101220Y640368D01*
X101283Y639609D01*
X101364Y638852D01*
X101463Y638097D01*
X101581Y637345D01*
X101717Y636596D01*
X101871Y635850D01*
X102043Y635108D01*
X102234Y634371D01*
X102442Y633638D01*
X102668Y632911D01*
X102912Y632190D01*
X103173Y631475D01*
X103451Y630766D01*
X103452Y630766D02*
X103742Y625968D01*
X101067Y621984D01*
X78721Y602741D01*
X58683Y581055D01*
X41271Y557279D01*
X26677Y531675D01*
X15089Y504512D01*
X6734Y476297D01*
X1691Y447346D01*
X2Y417889D01*
X1604Y389109D01*
X6401Y360803D01*
X14380Y333177D01*
X25478Y306554D01*
X39488Y281417D01*
X56252Y258007D01*
X75572Y236595D01*
X97124Y217523D01*
X99743Y213494D01*
X99382Y208710D01*
X99094Y208006D01*
X98822Y207294D01*
X98568Y206577D01*
X98332Y205853D01*
X98113Y205123D01*
X97912Y204389D01*
X97730Y203650D01*
X97565Y202906D01*
X97418Y202159D01*
X97290Y201409D01*
X97180Y200655D01*
X97088Y199899D01*
X97015Y199141D01*
X96960Y198382D01*
X96924Y197621D01*
X96906Y196860D01*
X96907Y196099D01*
X96926Y195337D01*
X96964Y194577D01*
X97021Y193818D01*
X97095Y193060D01*
X97189Y192304D01*
X97301Y191551D01*
X97431Y190801D01*
X97579Y190054D01*
X97746Y189311D01*
X97930Y188572D01*
X98133Y187838D01*
X98353Y187109D01*
X98591Y186386D01*
X98846Y185669D01*
X99119Y184958D01*
X99409Y184254D01*
X99717Y183557D01*
X100041Y182868D01*
X100382Y182187D01*
X100739Y181515D01*
X101113Y180851D01*
X101502Y180197D01*
X101908Y179553D01*
X102329Y178918D01*
X102765Y178294D01*
X103217Y177681D01*
X103683Y177079D01*
X104164Y176488D01*
X104659Y175910D01*
X105168Y175344D01*
X105690Y174790D01*
X106226Y174249D01*
X106775Y173721D01*
X107337Y173207D01*
X107911Y172707D01*
X108497Y172221D01*
X109095Y171749D01*
X109704Y171292D01*
X110324Y170850D01*
X110954Y170423D01*
X111595Y170012D01*
X112246Y169616D01*
X112906Y169237D01*
X113575Y168873D01*
X114253Y168526D01*
X114939Y168196D01*
X115633Y167882D01*
X116334Y167586D01*
X117042Y167306D01*
X117757Y167044D01*
X118478Y166800D01*
X119205Y166573D01*
X119937Y166364D01*
X120674Y166172D01*
X121416Y165999D01*
X122161Y165844D01*
X122910Y165707D01*
X123662Y165588D01*
X124417Y165488D01*
X125174Y165406D01*
X125933Y165343D01*
X126693Y165298D01*
X127454Y165272D01*
X128216Y165264D01*
X128977Y165275D01*
X129738Y165304D01*
X130498Y165352D01*
X131256Y165418D01*
X132013Y165503D01*
X132767Y165606D01*
X133519Y165728D01*
X134268Y165868D01*
X135012Y166026D01*
X135753Y166202D01*
X136490Y166396D01*
X137221Y166608D01*
X137947Y166838D01*
X138667Y167085D01*
X139381Y167350D01*
X140088Y167632D01*
X140788Y167932D01*
X141481Y168248D01*
X142166Y168581D01*
X142842Y168931D01*
X143510Y169297D01*
X144168Y169679D01*
X144817Y170077D01*
X145456Y170491D01*
X146085Y170920D01*
X146704Y171365D01*
X147311Y171824D01*
X147907Y172298D01*
X148491Y172787D01*
X149063Y173289D01*
X149622Y173806D01*
X150169Y174336D01*
X150703Y174878D01*
X151224Y175434D01*
X151730Y176003D01*
X152223Y176583D01*
X152702Y177176D01*
X153166Y177779D01*
X153165Y177779D02*
X157125Y180499D01*
X161916Y180261D01*
X188372Y171476D02*
X215653Y165620D01*
X188372Y171476D02*
X161916Y180261D01*
X364229Y186132D02*
X403162Y208611D01*
X403452Y208143D01*
X403731Y207668D01*
X403998Y207187D01*
X404253Y206699D01*
X404496Y206205D01*
X404728Y205705D01*
X404946Y205200D01*
X405153Y204690D01*
X405346Y204175D01*
X405527Y203655D01*
X405696Y203131D01*
X405851Y202603D01*
X405994Y202071D01*
X406123Y201536D01*
X406240Y200998D01*
X406343Y200457D01*
X406433Y199914D01*
X406509Y199369D01*
X406572Y198822D01*
X406622Y198273D01*
X406658Y197724D01*
X406681Y197174D01*
X406691Y196624D01*
X406687Y196073D01*
X406669Y195523D01*
X406638Y194973D01*
X406594Y194425D01*
X406536Y193877D01*
X406465Y193331D01*
X406380Y192787D01*
X406283Y192246D01*
X406172Y191706D01*
X406047Y191170D01*
X405910Y190637D01*
X405760Y190107D01*
X405597Y189582D01*
X405421Y189060D01*
X405232Y188543D01*
X405031Y188030D01*
X404817Y187523D01*
X404591Y187021D01*
X404353Y186525D01*
X404102Y186035D01*
X403840Y185551D01*
X403566Y185073D01*
X403280Y184603D01*
X402983Y184139D01*
X402675Y183683D01*
X402355Y183235D01*
X402025Y182794D01*
X401684Y182362D01*
X401333Y181939D01*
X400971Y181524D01*
X400599Y181117D01*
X400218Y180721D01*
X399826Y180333D01*
X399426Y179956D01*
X399016Y179588D01*
X398598Y179230D01*
X398171Y178883D01*
X397735Y178546D01*
X397292Y178220D01*
X396840Y177905D01*
X396381Y177601D01*
X395915Y177309D01*
X395441Y177028D01*
X394961Y176758D01*
X394475Y176501D01*
X393982Y176255D01*
X393484Y176022D01*
X392979Y175800D01*
X392470Y175592D01*
X391956Y175395D01*
X391437Y175212D01*
X390913Y175041D01*
X390386Y174883D01*
X389855Y174738D01*
X389321Y174606D01*
X388783Y174487D01*
X388243Y174381D01*
X387700Y174288D01*
X387155Y174209D01*
X386609Y174143D01*
X386061Y174091D01*
X385512Y174052D01*
X384962Y174026D01*
X384412Y174014D01*
X383861Y174015D01*
X383311Y174030D01*
X382761Y174058D01*
X382212Y174100D01*
X381664Y174155D01*
X381118Y174224D01*
X380574Y174306D01*
X380031Y174401D01*
X379492Y174509D01*
X378955Y174631D01*
X378421Y174765D01*
X377891Y174913D01*
X377364Y175074D01*
X376842Y175247D01*
X376324Y175433D01*
X375810Y175632D01*
X375302Y175843D01*
X374799Y176067D01*
X374302Y176303D01*
X373810Y176551D01*
X373325Y176811D01*
X372846Y177083D01*
X372374Y177366D01*
X371909Y177661D01*
X371452Y177967D01*
X371002Y178284D01*
X370560Y178612D01*
X370126Y178951D01*
X369700Y179300D01*
X369284Y179660D01*
X368876Y180030D01*
X368477Y180410D01*
X368088Y180799D01*
X367708Y181197D01*
X367338Y181605D01*
X366979Y182022D01*
X366629Y182447D01*
X366291Y182881D01*
X365962Y183323D01*
X365645Y183773D01*
X365339Y184231D01*
X365044Y184696D01*
X364761Y185168D01*
X364489Y185646D01*
X364229Y186132D01*
X398934Y630712D02*
X359698Y652656D01*
X359951Y653145D01*
X360217Y653627D01*
X360494Y654103D01*
X360782Y654572D01*
X361082Y655034D01*
X361393Y655488D01*
X361715Y655934D01*
X362048Y656373D01*
X362391Y656803D01*
X362745Y657225D01*
X363109Y657638D01*
X363483Y658042D01*
X363867Y658436D01*
X364261Y658821D01*
X364664Y659197D01*
X365075Y659562D01*
X365496Y659917D01*
X365925Y660262D01*
X366363Y660596D01*
X366808Y660919D01*
X367261Y661232D01*
X367722Y661533D01*
X368190Y661823D01*
X368665Y662101D01*
X369147Y662368D01*
X369635Y662622D01*
X370129Y662865D01*
X370629Y663096D01*
X371135Y663314D01*
X371645Y663520D01*
X372161Y663713D01*
X372681Y663894D01*
X373205Y664061D01*
X373733Y664216D01*
X374265Y664358D01*
X374801Y664487D01*
X375339Y664603D01*
X375880Y664706D01*
X376423Y664795D01*
X376968Y664871D01*
X377515Y664934D01*
X378063Y664983D01*
X378613Y665019D01*
X379163Y665041D01*
X379713Y665050D01*
X380264Y665045D01*
X380814Y665027D01*
X381364Y664996D01*
X381912Y664951D01*
X382460Y664892D01*
X383006Y664821D01*
X383550Y664736D01*
X384091Y664637D01*
X384630Y664526D01*
X385167Y664401D01*
X385700Y664263D01*
X386229Y664112D01*
X386755Y663949D01*
X387276Y663772D01*
X387793Y663583D01*
X388305Y663381D01*
X388812Y663167D01*
X389314Y662940D01*
X389810Y662701D01*
X390300Y662450D01*
X390784Y662187D01*
X391261Y661913D01*
X391731Y661627D01*
X392194Y661329D01*
X392650Y661020D01*
X393098Y660700D01*
X393538Y660370D01*
X393970Y660028D01*
X394394Y659676D01*
X394808Y659314D01*
X395214Y658942D01*
X395610Y658560D01*
X395997Y658168D01*
X396375Y657767D01*
X396742Y657357D01*
X397099Y656938D01*
X397446Y656511D01*
X397782Y656075D01*
X398108Y655631D01*
X398422Y655179D01*
X398726Y654720D01*
X399018Y654253D01*
X399298Y653779D01*
X399567Y653299D01*
X399824Y652812D01*
X400069Y652319D01*
X400302Y651820D01*
X400523Y651316D01*
X400731Y650806D01*
X400927Y650292D01*
X401110Y649773D01*
X401281Y649249D01*
X401438Y648722D01*
X401583Y648190D01*
X401714Y647656D01*
X401832Y647118D01*
X401938Y646578D01*
X402029Y646035D01*
X402108Y645490D01*
X402173Y644944D01*
X402225Y644395D01*
X402264Y643846D01*
X402289Y643296D01*
X402300Y642746D01*
X402298Y642195D01*
X402283Y641645D01*
X402254Y641095D01*
X402212Y640546D01*
X402156Y639999D01*
X402087Y639452D01*
X402004Y638908D01*
X401909Y638366D01*
X401800Y637826D01*
X401677Y637290D01*
X401542Y636756D01*
X401394Y636226D01*
X401233Y635699D01*
X401059Y635177D01*
X400872Y634659D01*
X400673Y634146D01*
X400461Y633638D01*
X400236Y633135D01*
X400000Y632638D01*
X399751Y632147D01*
X399491Y631662D01*
X399219Y631183D01*
X398935Y630712D01*
X148132Y186163D02*
X109162Y208578D01*
X108873Y208110D01*
X108595Y207634D01*
X108329Y207153D01*
X108074Y206664D01*
X107832Y206170D01*
X107602Y205670D01*
X107384Y205165D01*
X107178Y204654D01*
X106986Y204138D01*
X106805Y203618D01*
X106638Y203094D01*
X106483Y202565D01*
X106342Y202034D01*
X106213Y201498D01*
X106098Y200960D01*
X105996Y200419D01*
X105907Y199876D01*
X105831Y199331D01*
X105769Y198784D01*
X105720Y198235D01*
X105685Y197686D01*
X105663Y197136D01*
X105654Y196586D01*
X105659Y196035D01*
X105677Y195485D01*
X105709Y194935D01*
X105755Y194387D01*
X105813Y193839D01*
X105885Y193294D01*
X105971Y192750D01*
X106070Y192208D01*
X106182Y191669D01*
X106307Y191133D01*
X106445Y190600D01*
X106596Y190071D01*
X106760Y189546D01*
X106937Y189024D01*
X107126Y188508D01*
X107328Y187996D01*
X107543Y187489D01*
X107770Y186987D01*
X108009Y186491D01*
X108260Y186001D01*
X108523Y185518D01*
X108798Y185041D01*
X109085Y184571D01*
X109383Y184108D01*
X109692Y183652D01*
X110012Y183205D01*
X110343Y182765D01*
X110685Y182333D01*
X111037Y181910D01*
X111399Y181496D01*
X111771Y181090D01*
X112154Y180694D01*
X112545Y180307D01*
X112947Y179930D01*
X113357Y179563D01*
X113776Y179206D01*
X114203Y178860D01*
X114640Y178524D01*
X115084Y178199D01*
X115536Y177884D01*
X115995Y177581D01*
X116462Y177289D01*
X116936Y177009D01*
X117416Y176741D01*
X117903Y176484D01*
X118396Y176239D01*
X118895Y176006D01*
X119399Y175786D01*
X119909Y175578D01*
X120424Y175383D01*
X120943Y175200D01*
X121467Y175030D01*
X121994Y174873D01*
X122525Y174728D01*
X123060Y174597D01*
X123598Y174479D01*
X124138Y174374D01*
X124681Y174283D01*
X125226Y174204D01*
X125772Y174139D01*
X126320Y174088D01*
X126870Y174050D01*
X127420Y174025D01*
X127970Y174014D01*
X128520Y174016D01*
X129071Y174032D01*
X129620Y174061D01*
X130169Y174103D01*
X130717Y174159D01*
X131263Y174229D01*
X131807Y174312D01*
X132349Y174408D01*
X132889Y174517D01*
X133425Y174639D01*
X133959Y174775D01*
X134489Y174923D01*
X135015Y175085D01*
X135537Y175259D01*
X136055Y175446D01*
X136568Y175645D01*
X137076Y175858D01*
X137579Y176082D01*
X138076Y176319D01*
X138567Y176567D01*
X139052Y176828D01*
X139530Y177101D01*
X140001Y177385D01*
X140466Y177680D01*
X140923Y177987D01*
X141372Y178305D01*
X141814Y178634D01*
X142247Y178973D01*
X142672Y179323D01*
X143088Y179684D01*
X143495Y180054D01*
X143893Y180434D01*
X144282Y180824D01*
X144661Y181223D01*
X145030Y181632D01*
X145389Y182049D01*
X145738Y182475D01*
X146076Y182909D01*
X146403Y183352D01*
X146720Y183802D01*
X147025Y184260D01*
X147319Y184726D01*
X147602Y185198D01*
X147873Y185677D01*
X148132Y186163D01*
X113233Y630757D02*
X152519Y652614D01*
X152518Y652614D02*
X152266Y653103D01*
X152002Y653586D01*
X151726Y654063D01*
X151439Y654532D01*
X151140Y654994D01*
X150830Y655449D01*
X150509Y655896D01*
X150177Y656336D01*
X149834Y656767D01*
X149481Y657189D01*
X149118Y657603D01*
X148745Y658007D01*
X148362Y658403D01*
X147969Y658789D01*
X147567Y659165D01*
X147156Y659531D01*
X146737Y659887D01*
X146308Y660233D01*
X145871Y660568D01*
X145427Y660892D01*
X144974Y661206D01*
X144514Y661508D01*
X144046Y661799D01*
X143572Y662078D01*
X143091Y662346D01*
X142604Y662601D01*
X142110Y662845D01*
X141611Y663077D01*
X141106Y663296D01*
X140596Y663503D01*
X140080Y663697D01*
X139561Y663879D01*
X139037Y664048D01*
X138509Y664204D01*
X137977Y664347D01*
X137443Y664477D01*
X136905Y664594D01*
X136364Y664698D01*
X135821Y664788D01*
X135276Y664866D01*
X134729Y664930D01*
X134181Y664980D01*
X133632Y665017D01*
X133082Y665040D01*
X132531Y665051D01*
X131981Y665047D01*
X131431Y665030D01*
X130881Y665000D01*
X130332Y664956D01*
X129785Y664899D01*
X129239Y664829D01*
X128695Y664745D01*
X128153Y664648D01*
X127613Y664537D01*
X127077Y664414D01*
X126544Y664277D01*
X126014Y664127D01*
X125488Y663965D01*
X124966Y663790D01*
X124449Y663601D01*
X123936Y663401D01*
X123429Y663188D01*
X122926Y662962D01*
X122430Y662724D01*
X121939Y662475D01*
X121455Y662213D01*
X120977Y661939D01*
X120506Y661654D01*
X120043Y661358D01*
X119586Y661050D01*
X119137Y660731D01*
X118697Y660401D01*
X118264Y660061D01*
X117840Y659710D01*
X117424Y659349D01*
X117018Y658977D01*
X116621Y658596D01*
X116233Y658206D01*
X115855Y657806D01*
X115486Y657396D01*
X115128Y656978D01*
X114781Y656552D01*
X114443Y656116D01*
X114117Y655673D01*
X113801Y655222D01*
X113497Y654764D01*
X113204Y654298D01*
X112922Y653825D01*
X112652Y653345D01*
X112394Y652859D01*
X112148Y652366D01*
X111914Y651868D01*
X111692Y651364D01*
X111482Y650855D01*
X111286Y650341D01*
X111101Y649822D01*
X110930Y649299D01*
X110771Y648772D01*
X110625Y648241D01*
X110493Y647707D01*
X110373Y647169D01*
X110267Y646629D01*
X110174Y646087D01*
X110094Y645542D01*
X110027Y644996D01*
X109974Y644448D01*
X109934Y643899D01*
X109908Y643349D01*
X109895Y642798D01*
X109896Y642248D01*
X109910Y641698D01*
X109938Y641148D01*
X109979Y640599D01*
X110033Y640051D01*
X110101Y639505D01*
X110182Y638960D01*
X110277Y638418D01*
X110385Y637878D01*
X110505Y637341D01*
X110640Y636807D01*
X110787Y636277D01*
X110947Y635750D01*
X111119Y635227D01*
X111305Y634709D01*
X111503Y634195D01*
X111714Y633687D01*
X111937Y633183D01*
X112172Y632686D01*
X112419Y632194D01*
X112679Y631708D01*
X112950Y631229D01*
X113233Y630757D01*
D11*
X2Y417889D02*
X1604Y389109D01*
X6401Y360803D01*
X14380Y333177D01*
X25478Y306554D01*
X39488Y281417D01*
X56252Y258007D01*
X75572Y236595D01*
X97124Y217523D01*
X99743Y213494D01*
X99382Y208710D01*
X98429Y206156D01*
X97701Y203529D01*
X97206Y200848D01*
X96946Y198134D01*
X96923Y195408D01*
X97138Y192690D01*
X97590Y190002D01*
X98274Y187363D01*
X99185Y184793D01*
X100317Y182313D01*
X101660Y179941D01*
X103205Y177695D01*
X104940Y175592D01*
X106852Y173649D01*
X108926Y171879D01*
X111146Y170297D01*
X113496Y168915D01*
X115957Y167742D01*
X118511Y166789D01*
X121139Y166061D01*
X123819Y165566D01*
X126533Y165306D01*
X129259Y165283D01*
X131977Y165499D01*
X134666Y165950D01*
X137305Y166634D01*
X139874Y167545D01*
X142354Y168677D01*
X144726Y170020D01*
X146972Y171565D01*
X149075Y173301D01*
X151019Y175212D01*
X152788Y177286D01*
X153165Y177779D01*
X157125Y180499D01*
X161916Y180261D01*
X188372Y171476D01*
X215653Y165620D01*
X215653Y0D01*
X296562Y0D01*
X296562Y165561D01*
X323919Y171393D01*
X350454Y180214D01*
X355251Y180455D01*
X359206Y177743D01*
X360937Y175637D01*
X362845Y173690D01*
X364915Y171916D01*
X367133Y170330D01*
X369480Y168943D01*
X371939Y167765D01*
X374491Y166807D01*
X377117Y166074D01*
X379797Y165574D01*
X382510Y165308D01*
X385236Y165281D01*
X387954Y165491D01*
X390644Y165937D01*
X393284Y166615D01*
X395855Y167522D01*
X398338Y168648D01*
X400712Y169987D01*
X402961Y171528D01*
X405067Y173259D01*
X407015Y175167D01*
X408788Y177238D01*
X410375Y179455D01*
X411762Y181802D01*
X412939Y184261D01*
X413898Y186813D01*
X414630Y189439D01*
X415131Y192119D01*
X415396Y194832D01*
X415424Y197558D01*
X415214Y200276D01*
X414768Y202966D01*
X414089Y205606D01*
X413183Y208177D01*
X412942Y208759D01*
X412575Y213551D01*
X415185Y217577D01*
X436725Y236697D01*
X456007Y258118D01*
X472736Y281512D01*
X486738Y306647D01*
X497834Y333259D01*
X505808Y360843D01*
X510609Y389121D01*
X512214Y417889D01*
X510507Y447326D01*
X505425Y476268D01*
X497024Y504471D01*
X485404Y531598D01*
X470793Y557183D01*
X453378Y580960D01*
X433372Y602650D01*
X411082Y621912D01*
X408413Y625910D01*
X408716Y630700D01*
X409639Y633265D01*
X410335Y635901D01*
X410798Y638588D01*
X411025Y641305D01*
X411015Y644031D01*
X410768Y646746D01*
X410284Y649429D01*
X409569Y652059D01*
X408627Y654618D01*
X407465Y657084D01*
X406093Y659440D01*
X404521Y661667D01*
X402761Y663749D01*
X400826Y665670D01*
X398731Y667414D01*
X396492Y668970D01*
X394126Y670324D01*
X391651Y671467D01*
X389086Y672390D01*
X386450Y673085D01*
X383763Y673549D01*
X381047Y673776D01*
X378320Y673766D01*
X375606Y673518D01*
X372922Y673035D01*
X370292Y672319D01*
X367734Y671377D01*
X365267Y670216D01*
X362911Y668844D01*
X360684Y667272D01*
X358602Y665512D01*
X356681Y663577D01*
X354937Y661482D01*
X354556Y660971D01*
X350634Y658202D01*
X345844Y658377D01*
X321547Y666175D01*
X296562Y671442D01*
X296562Y831445D01*
X215653Y831445D01*
X215653Y671383D01*
X190680Y666091D01*
X166386Y658312D01*
X161586Y658147D01*
X157674Y660922D01*
X155977Y663055D01*
X154100Y665033D01*
X152058Y666839D01*
X149866Y668460D01*
X147542Y669884D01*
X145102Y671101D01*
X142565Y672099D01*
X139951Y672873D01*
X137280Y673417D01*
X134571Y673725D01*
X131846Y673796D01*
X129125Y673629D01*
X126428Y673226D01*
X123778Y672589D01*
X121192Y671724D01*
X118692Y670637D01*
X116297Y669336D01*
X114023Y667831D01*
X111890Y666133D01*
X109913Y664257D01*
X108107Y662215D01*
X106485Y660023D01*
X105061Y657698D01*
X103845Y655259D01*
X102846Y652722D01*
X102072Y650108D01*
X101529Y647436D01*
X101220Y644728D01*
X101149Y642002D01*
X101316Y639281D01*
X101719Y636585D01*
X102356Y633934D01*
X103221Y631349D01*
X103452Y630766D01*
X103742Y625968D01*
X101067Y621984D01*
X78721Y602741D01*
X58683Y581055D01*
X41271Y557279D01*
X26677Y531675D01*
X15089Y504512D01*
X6734Y476297D01*
X1691Y447346D01*
X2Y417889D01*
X398934Y630712D02*
X398946Y630731D01*
X399903Y632445D01*
X400707Y634235D01*
X401352Y636089D01*
X401834Y637992D01*
X402147Y639930D01*
X402290Y641887D01*
X402263Y643850D01*
X402064Y645803D01*
X401696Y647731D01*
X401161Y649619D01*
X400464Y651454D01*
X399609Y653221D01*
X398604Y654907D01*
X397455Y656499D01*
X396172Y657984D01*
X394765Y659352D01*
X393243Y660593D01*
X391620Y661696D01*
X389906Y662653D01*
X388116Y663457D01*
X386262Y664102D01*
X384359Y664583D01*
X382421Y664897D01*
X380464Y665040D01*
X378501Y665012D01*
X376548Y664814D01*
X374620Y664446D01*
X372732Y663911D01*
X370897Y663213D01*
X369130Y662359D01*
X367444Y661353D01*
X365852Y660205D01*
X364367Y658922D01*
X362999Y657515D01*
X361758Y655993D01*
X360655Y654370D01*
X359698Y652656D01*
X398934Y630712D01*
X109162Y208578D02*
X109154Y208565D01*
X108176Y206863D01*
X107350Y205083D01*
X106682Y203237D01*
X106178Y201340D01*
X105841Y199406D01*
X105673Y197450D01*
X105677Y195488D01*
X105852Y193532D01*
X106197Y191600D01*
X106709Y189705D01*
X107383Y187862D01*
X108217Y186085D01*
X109201Y184387D01*
X110330Y182781D01*
X111595Y181280D01*
X112986Y179895D01*
X114492Y178636D01*
X116102Y177513D01*
X117804Y176535D01*
X119584Y175709D01*
X121430Y175041D01*
X123327Y174537D01*
X125261Y174200D01*
X127217Y174033D01*
X129179Y174036D01*
X131135Y174211D01*
X133067Y174556D01*
X134962Y175068D01*
X136805Y175743D01*
X138582Y176576D01*
X140280Y177561D01*
X141886Y178690D01*
X143387Y179954D01*
X144772Y181345D01*
X146031Y182851D01*
X147154Y184461D01*
X148132Y186163D01*
X109162Y208578D01*
X364229Y186132D02*
X364238Y186115D01*
X365220Y184416D01*
X366346Y182808D01*
X367609Y181305D01*
X368997Y179918D01*
X370502Y178657D01*
X372110Y177532D01*
X373810Y176551D01*
X375590Y175722D01*
X377434Y175052D01*
X379331Y174544D01*
X381264Y174204D01*
X383219Y174034D01*
X385182Y174035D01*
X387138Y174207D01*
X389071Y174549D01*
X390966Y175058D01*
X392811Y175730D01*
X394589Y176560D01*
X396289Y177542D01*
X397896Y178669D01*
X399399Y179931D01*
X400786Y181320D01*
X402048Y182824D01*
X403173Y184432D01*
X404153Y186133D01*
X404982Y187912D01*
X405653Y189757D01*
X406160Y191653D01*
X406500Y193586D01*
X406670Y195542D01*
X406669Y197505D01*
X406497Y199460D01*
X406156Y201393D01*
X405647Y203289D01*
X404975Y205133D01*
X404144Y206912D01*
X403162Y208611D01*
X364229Y186132D01*
X152519Y652614D02*
X152511Y652630D01*
X151556Y654345D01*
X150455Y655970D01*
X149217Y657493D01*
X147850Y658903D01*
X146366Y660187D01*
X144776Y661338D01*
X143092Y662346D01*
X141326Y663203D01*
X139492Y663903D01*
X137604Y664440D01*
X135676Y664811D01*
X133724Y665012D01*
X131761Y665042D01*
X129803Y664902D01*
X127865Y664591D01*
X125962Y664112D01*
X124107Y663469D01*
X122315Y662667D01*
X120600Y661712D01*
X118975Y660612D01*
X117452Y659373D01*
X116043Y658007D01*
X114758Y656523D01*
X113607Y654933D01*
X112600Y653248D01*
X111743Y651482D01*
X111043Y649648D01*
X110506Y647761D01*
X110135Y645833D01*
X109934Y643880D01*
X109903Y641918D01*
X110044Y639960D01*
X110355Y638022D01*
X110833Y636118D01*
X111476Y634264D01*
X112278Y632472D01*
X113233Y630757D01*
X152519Y652614D01*
M02*
