G04 EAGLE Gerber RS-274X export*
G75*
%MOMM*%
%FSLAX34Y34*%
%LPD*%
%INSilkscreen Bottom*%
%IPPOS*%
%AMOC8*
5,1,8,0,0,1.08239X$1,22.5*%
G01*
%ADD10C,0.050800*%
%ADD11C,0.152400*%
%ADD12C,0.101600*%
%ADD13R,0.787400X0.025400*%
%ADD14R,1.168400X0.025400*%
%ADD15R,1.422400X0.025400*%
%ADD16R,1.651000X0.025400*%
%ADD17R,1.854200X0.025400*%
%ADD18R,2.057400X0.025400*%
%ADD19R,2.209800X0.025400*%
%ADD20R,2.336800X0.025400*%
%ADD21R,2.514600X0.025400*%
%ADD22R,2.641600X0.025400*%
%ADD23R,2.768600X0.025400*%
%ADD24R,2.870200X0.025400*%
%ADD25R,2.997200X0.025400*%
%ADD26R,3.124200X0.025400*%
%ADD27R,3.200400X0.025400*%
%ADD28R,3.327400X0.025400*%
%ADD29R,3.429000X0.025400*%
%ADD30R,3.505200X0.025400*%
%ADD31R,3.606800X0.025400*%
%ADD32R,3.708400X0.025400*%
%ADD33R,3.784600X0.025400*%
%ADD34R,1.676400X0.025400*%
%ADD35R,2.108200X0.025400*%
%ADD36R,1.397000X0.025400*%
%ADD37R,1.803400X0.025400*%
%ADD38R,1.270000X0.025400*%
%ADD39R,1.701800X0.025400*%
%ADD40R,1.193800X0.025400*%
%ADD41R,1.625600X0.025400*%
%ADD42R,1.143000X0.025400*%
%ADD43R,1.549400X0.025400*%
%ADD44R,1.092200X0.025400*%
%ADD45R,1.498600X0.025400*%
%ADD46R,1.041400X0.025400*%
%ADD47R,1.447800X0.025400*%
%ADD48R,1.016000X0.025400*%
%ADD49R,0.990600X0.025400*%
%ADD50R,1.371600X0.025400*%
%ADD51R,0.965200X0.025400*%
%ADD52R,1.346200X0.025400*%
%ADD53R,0.914400X0.025400*%
%ADD54R,1.320800X0.025400*%
%ADD55R,0.889000X0.025400*%
%ADD56R,1.295400X0.025400*%
%ADD57R,0.863600X0.025400*%
%ADD58R,0.838200X0.025400*%
%ADD59R,1.244600X0.025400*%
%ADD60R,1.219200X0.025400*%
%ADD61R,0.762000X0.025400*%
%ADD62R,0.736600X0.025400*%
%ADD63R,0.711200X0.025400*%
%ADD64R,1.117600X0.025400*%
%ADD65R,0.685800X0.025400*%
%ADD66R,0.660400X0.025400*%
%ADD67R,0.635000X0.025400*%
%ADD68R,1.066800X0.025400*%
%ADD69R,0.609600X0.025400*%
%ADD70R,0.584200X0.025400*%
%ADD71R,0.076200X0.025400*%
%ADD72R,0.254000X0.025400*%
%ADD73R,1.930400X0.025400*%
%ADD74R,0.330200X0.025400*%
%ADD75R,0.558800X0.025400*%
%ADD76R,1.828800X0.025400*%
%ADD77R,0.406400X0.025400*%
%ADD78R,1.778000X0.025400*%
%ADD79R,0.431800X0.025400*%
%ADD80R,0.304800X0.025400*%
%ADD81R,1.727200X0.025400*%
%ADD82R,0.482600X0.025400*%
%ADD83R,0.533400X0.025400*%
%ADD84R,1.574800X0.025400*%
%ADD85R,0.812800X0.025400*%
%ADD86R,1.473200X0.025400*%
%ADD87R,1.524000X0.025400*%
%ADD88R,1.600200X0.025400*%
%ADD89R,0.508000X0.025400*%
%ADD90R,1.752600X0.025400*%
%ADD91R,0.457200X0.025400*%
%ADD92R,0.939800X0.025400*%
%ADD93R,0.152400X0.025400*%
%ADD94R,0.279400X0.025400*%
%ADD95R,0.355600X0.025400*%
%ADD96R,2.006600X0.025400*%
%ADD97R,1.981200X0.025400*%
%ADD98R,1.955800X0.025400*%
%ADD99R,1.905000X0.025400*%
%ADD100R,1.879600X0.025400*%
%ADD101R,2.184400X0.025400*%
%ADD102R,2.692400X0.025400*%
%ADD103R,5.334000X0.025400*%
%ADD104R,5.283200X0.025400*%
%ADD105R,5.232400X0.025400*%
%ADD106R,5.130800X0.025400*%
%ADD107R,2.489200X0.025400*%
%ADD108R,2.413000X0.025400*%
%ADD109R,2.260600X0.025400*%
%ADD110R,2.082800X0.025400*%
%ADD111C,0.203200*%
%ADD112C,0.076200*%


D10*
X326554Y365454D02*
X332142Y365454D01*
X332142Y367006D01*
X332140Y367083D01*
X332134Y367161D01*
X332125Y367237D01*
X332111Y367314D01*
X332094Y367389D01*
X332073Y367463D01*
X332048Y367537D01*
X332020Y367609D01*
X331988Y367679D01*
X331953Y367748D01*
X331914Y367815D01*
X331872Y367880D01*
X331827Y367943D01*
X331779Y368004D01*
X331728Y368062D01*
X331674Y368117D01*
X331617Y368170D01*
X331558Y368219D01*
X331496Y368266D01*
X331432Y368310D01*
X331366Y368350D01*
X331298Y368387D01*
X331228Y368421D01*
X331157Y368451D01*
X331084Y368477D01*
X331010Y368500D01*
X330935Y368519D01*
X330860Y368534D01*
X330783Y368546D01*
X330706Y368554D01*
X330629Y368558D01*
X330551Y368558D01*
X330474Y368554D01*
X330397Y368546D01*
X330320Y368534D01*
X330245Y368519D01*
X330170Y368500D01*
X330096Y368477D01*
X330023Y368451D01*
X329952Y368421D01*
X329882Y368387D01*
X329814Y368350D01*
X329748Y368310D01*
X329684Y368266D01*
X329622Y368219D01*
X329563Y368170D01*
X329506Y368117D01*
X329452Y368062D01*
X329401Y368004D01*
X329353Y367943D01*
X329308Y367880D01*
X329266Y367815D01*
X329227Y367748D01*
X329192Y367679D01*
X329160Y367609D01*
X329132Y367537D01*
X329107Y367463D01*
X329086Y367389D01*
X329069Y367314D01*
X329055Y367237D01*
X329046Y367161D01*
X329040Y367083D01*
X329038Y367006D01*
X329038Y365454D01*
X329348Y370674D02*
X329479Y370676D01*
X329609Y370681D01*
X329739Y370691D01*
X329869Y370704D01*
X329999Y370720D01*
X330128Y370740D01*
X330256Y370764D01*
X330383Y370792D01*
X330510Y370823D01*
X330636Y370858D01*
X330761Y370896D01*
X330885Y370938D01*
X331007Y370983D01*
X331128Y371032D01*
X331248Y371084D01*
X331366Y371140D01*
X331426Y371163D01*
X331486Y371189D01*
X331543Y371218D01*
X331599Y371251D01*
X331653Y371287D01*
X331705Y371325D01*
X331755Y371367D01*
X331802Y371411D01*
X331847Y371458D01*
X331889Y371508D01*
X331928Y371559D01*
X331964Y371613D01*
X331997Y371669D01*
X332027Y371726D01*
X332054Y371785D01*
X332077Y371846D01*
X332097Y371907D01*
X332113Y371970D01*
X332126Y372034D01*
X332135Y372098D01*
X332140Y372162D01*
X332142Y372227D01*
X332140Y372292D01*
X332135Y372356D01*
X332126Y372420D01*
X332113Y372484D01*
X332097Y372547D01*
X332077Y372608D01*
X332054Y372669D01*
X332027Y372728D01*
X331997Y372785D01*
X331964Y372841D01*
X331928Y372895D01*
X331889Y372946D01*
X331847Y372996D01*
X331802Y373043D01*
X331755Y373087D01*
X331705Y373129D01*
X331653Y373167D01*
X331599Y373203D01*
X331543Y373236D01*
X331486Y373265D01*
X331426Y373291D01*
X331366Y373314D01*
X331366Y373313D02*
X331248Y373369D01*
X331128Y373421D01*
X331007Y373470D01*
X330885Y373515D01*
X330761Y373557D01*
X330636Y373595D01*
X330510Y373630D01*
X330384Y373661D01*
X330256Y373689D01*
X330128Y373713D01*
X329999Y373733D01*
X329869Y373749D01*
X329739Y373762D01*
X329609Y373772D01*
X329479Y373777D01*
X329348Y373779D01*
X329348Y370675D02*
X329217Y370677D01*
X329087Y370682D01*
X328957Y370692D01*
X328827Y370705D01*
X328697Y370721D01*
X328568Y370741D01*
X328440Y370765D01*
X328313Y370793D01*
X328186Y370824D01*
X328060Y370859D01*
X327935Y370897D01*
X327811Y370939D01*
X327689Y370984D01*
X327568Y371033D01*
X327448Y371085D01*
X327330Y371141D01*
X327330Y371140D02*
X327270Y371163D01*
X327210Y371189D01*
X327153Y371218D01*
X327097Y371251D01*
X327043Y371287D01*
X326991Y371325D01*
X326941Y371367D01*
X326894Y371411D01*
X326849Y371458D01*
X326807Y371508D01*
X326768Y371559D01*
X326732Y371613D01*
X326699Y371669D01*
X326669Y371726D01*
X326642Y371785D01*
X326619Y371846D01*
X326599Y371907D01*
X326583Y371970D01*
X326570Y372034D01*
X326561Y372098D01*
X326556Y372162D01*
X326554Y372227D01*
X327330Y373313D02*
X327448Y373369D01*
X327568Y373421D01*
X327689Y373470D01*
X327811Y373515D01*
X327935Y373557D01*
X328060Y373595D01*
X328186Y373630D01*
X328312Y373661D01*
X328440Y373689D01*
X328568Y373713D01*
X328697Y373733D01*
X328827Y373749D01*
X328957Y373762D01*
X329087Y373772D01*
X329217Y373777D01*
X329348Y373779D01*
X327330Y373314D02*
X327270Y373291D01*
X327210Y373265D01*
X327153Y373236D01*
X327097Y373203D01*
X327043Y373167D01*
X326991Y373129D01*
X326941Y373087D01*
X326894Y373043D01*
X326849Y372996D01*
X326807Y372946D01*
X326768Y372895D01*
X326732Y372841D01*
X326699Y372785D01*
X326669Y372728D01*
X326642Y372669D01*
X326619Y372608D01*
X326599Y372547D01*
X326583Y372484D01*
X326570Y372420D01*
X326561Y372356D01*
X326556Y372292D01*
X326554Y372227D01*
X327796Y370985D02*
X330900Y373469D01*
X330364Y419184D02*
X335952Y419184D01*
X335952Y420736D01*
X335950Y420813D01*
X335944Y420891D01*
X335935Y420967D01*
X335921Y421044D01*
X335904Y421119D01*
X335883Y421193D01*
X335858Y421267D01*
X335830Y421339D01*
X335798Y421409D01*
X335763Y421478D01*
X335724Y421545D01*
X335682Y421610D01*
X335637Y421673D01*
X335589Y421734D01*
X335538Y421792D01*
X335484Y421847D01*
X335427Y421900D01*
X335368Y421949D01*
X335306Y421996D01*
X335242Y422040D01*
X335176Y422080D01*
X335108Y422117D01*
X335038Y422151D01*
X334967Y422181D01*
X334894Y422207D01*
X334820Y422230D01*
X334745Y422249D01*
X334670Y422264D01*
X334593Y422276D01*
X334516Y422284D01*
X334439Y422288D01*
X334361Y422288D01*
X334284Y422284D01*
X334207Y422276D01*
X334130Y422264D01*
X334055Y422249D01*
X333980Y422230D01*
X333906Y422207D01*
X333833Y422181D01*
X333762Y422151D01*
X333692Y422117D01*
X333624Y422080D01*
X333558Y422040D01*
X333494Y421996D01*
X333432Y421949D01*
X333373Y421900D01*
X333316Y421847D01*
X333262Y421792D01*
X333211Y421734D01*
X333163Y421673D01*
X333118Y421610D01*
X333076Y421545D01*
X333037Y421478D01*
X333002Y421409D01*
X332970Y421339D01*
X332942Y421267D01*
X332917Y421193D01*
X332896Y421119D01*
X332879Y421044D01*
X332865Y420967D01*
X332856Y420891D01*
X332850Y420813D01*
X332848Y420736D01*
X332848Y419184D01*
X335952Y426112D02*
X335950Y426185D01*
X335944Y426258D01*
X335935Y426331D01*
X335921Y426402D01*
X335904Y426474D01*
X335884Y426544D01*
X335859Y426613D01*
X335831Y426680D01*
X335800Y426746D01*
X335765Y426811D01*
X335727Y426873D01*
X335685Y426933D01*
X335641Y426991D01*
X335593Y427047D01*
X335543Y427100D01*
X335490Y427150D01*
X335434Y427198D01*
X335376Y427242D01*
X335316Y427284D01*
X335254Y427322D01*
X335189Y427357D01*
X335123Y427388D01*
X335056Y427416D01*
X334987Y427441D01*
X334917Y427461D01*
X334845Y427478D01*
X334774Y427492D01*
X334701Y427501D01*
X334628Y427507D01*
X334555Y427509D01*
X335952Y426112D02*
X335950Y426028D01*
X335944Y425945D01*
X335935Y425862D01*
X335921Y425780D01*
X335904Y425698D01*
X335882Y425617D01*
X335857Y425537D01*
X335829Y425459D01*
X335797Y425381D01*
X335761Y425306D01*
X335722Y425232D01*
X335679Y425160D01*
X335633Y425090D01*
X335584Y425023D01*
X335531Y424957D01*
X335476Y424895D01*
X335418Y424835D01*
X335357Y424777D01*
X335294Y424723D01*
X335228Y424671D01*
X335160Y424623D01*
X335089Y424578D01*
X335017Y424536D01*
X334942Y424498D01*
X334866Y424463D01*
X334789Y424432D01*
X334710Y424404D01*
X333469Y427043D02*
X333522Y427097D01*
X333579Y427148D01*
X333638Y427196D01*
X333699Y427241D01*
X333762Y427282D01*
X333828Y427321D01*
X333895Y427356D01*
X333964Y427388D01*
X334035Y427416D01*
X334106Y427440D01*
X334179Y427461D01*
X334253Y427478D01*
X334328Y427492D01*
X334403Y427501D01*
X334479Y427507D01*
X334555Y427509D01*
X333468Y427043D02*
X330364Y424405D01*
X330364Y427509D01*
X332142Y392954D02*
X326554Y392954D01*
X332142Y392954D02*
X332142Y394506D01*
X332140Y394583D01*
X332134Y394661D01*
X332125Y394737D01*
X332111Y394814D01*
X332094Y394889D01*
X332073Y394963D01*
X332048Y395037D01*
X332020Y395109D01*
X331988Y395179D01*
X331953Y395248D01*
X331914Y395315D01*
X331872Y395380D01*
X331827Y395443D01*
X331779Y395504D01*
X331728Y395562D01*
X331674Y395617D01*
X331617Y395670D01*
X331558Y395719D01*
X331496Y395766D01*
X331432Y395810D01*
X331366Y395850D01*
X331298Y395887D01*
X331228Y395921D01*
X331157Y395951D01*
X331084Y395977D01*
X331010Y396000D01*
X330935Y396019D01*
X330860Y396034D01*
X330783Y396046D01*
X330706Y396054D01*
X330629Y396058D01*
X330551Y396058D01*
X330474Y396054D01*
X330397Y396046D01*
X330320Y396034D01*
X330245Y396019D01*
X330170Y396000D01*
X330096Y395977D01*
X330023Y395951D01*
X329952Y395921D01*
X329882Y395887D01*
X329814Y395850D01*
X329748Y395810D01*
X329684Y395766D01*
X329622Y395719D01*
X329563Y395670D01*
X329506Y395617D01*
X329452Y395562D01*
X329401Y395504D01*
X329353Y395443D01*
X329308Y395380D01*
X329266Y395315D01*
X329227Y395248D01*
X329192Y395179D01*
X329160Y395109D01*
X329132Y395037D01*
X329107Y394963D01*
X329086Y394889D01*
X329069Y394814D01*
X329055Y394737D01*
X329046Y394661D01*
X329040Y394583D01*
X329038Y394506D01*
X329038Y392954D01*
X330900Y398175D02*
X332142Y399727D01*
X326554Y399727D01*
X326554Y398175D02*
X326554Y401279D01*
X326554Y452994D02*
X332142Y452994D01*
X332142Y454546D01*
X332140Y454623D01*
X332134Y454701D01*
X332125Y454777D01*
X332111Y454854D01*
X332094Y454929D01*
X332073Y455003D01*
X332048Y455077D01*
X332020Y455149D01*
X331988Y455219D01*
X331953Y455288D01*
X331914Y455355D01*
X331872Y455420D01*
X331827Y455483D01*
X331779Y455544D01*
X331728Y455602D01*
X331674Y455657D01*
X331617Y455710D01*
X331558Y455759D01*
X331496Y455806D01*
X331432Y455850D01*
X331366Y455890D01*
X331298Y455927D01*
X331228Y455961D01*
X331157Y455991D01*
X331084Y456017D01*
X331010Y456040D01*
X330935Y456059D01*
X330860Y456074D01*
X330783Y456086D01*
X330706Y456094D01*
X330629Y456098D01*
X330551Y456098D01*
X330474Y456094D01*
X330397Y456086D01*
X330320Y456074D01*
X330245Y456059D01*
X330170Y456040D01*
X330096Y456017D01*
X330023Y455991D01*
X329952Y455961D01*
X329882Y455927D01*
X329814Y455890D01*
X329748Y455850D01*
X329684Y455806D01*
X329622Y455759D01*
X329563Y455710D01*
X329506Y455657D01*
X329452Y455602D01*
X329401Y455544D01*
X329353Y455483D01*
X329308Y455420D01*
X329266Y455355D01*
X329227Y455288D01*
X329192Y455219D01*
X329160Y455149D01*
X329132Y455077D01*
X329107Y455003D01*
X329086Y454929D01*
X329069Y454854D01*
X329055Y454777D01*
X329046Y454701D01*
X329040Y454623D01*
X329038Y454546D01*
X329038Y452994D01*
X326554Y458215D02*
X326554Y459767D01*
X326556Y459844D01*
X326562Y459922D01*
X326571Y459998D01*
X326585Y460075D01*
X326602Y460150D01*
X326623Y460224D01*
X326648Y460298D01*
X326676Y460370D01*
X326708Y460440D01*
X326743Y460509D01*
X326782Y460576D01*
X326824Y460641D01*
X326869Y460704D01*
X326917Y460765D01*
X326968Y460823D01*
X327022Y460878D01*
X327079Y460931D01*
X327138Y460980D01*
X327200Y461027D01*
X327264Y461071D01*
X327330Y461111D01*
X327398Y461148D01*
X327468Y461182D01*
X327539Y461212D01*
X327612Y461238D01*
X327686Y461261D01*
X327761Y461280D01*
X327836Y461295D01*
X327913Y461307D01*
X327990Y461315D01*
X328067Y461319D01*
X328145Y461319D01*
X328222Y461315D01*
X328299Y461307D01*
X328376Y461295D01*
X328451Y461280D01*
X328526Y461261D01*
X328600Y461238D01*
X328673Y461212D01*
X328744Y461182D01*
X328814Y461148D01*
X328882Y461111D01*
X328948Y461071D01*
X329012Y461027D01*
X329074Y460980D01*
X329133Y460931D01*
X329190Y460878D01*
X329244Y460823D01*
X329295Y460765D01*
X329343Y460704D01*
X329388Y460641D01*
X329430Y460576D01*
X329469Y460509D01*
X329504Y460440D01*
X329536Y460370D01*
X329564Y460298D01*
X329589Y460224D01*
X329610Y460150D01*
X329627Y460075D01*
X329641Y459998D01*
X329650Y459922D01*
X329656Y459844D01*
X329658Y459767D01*
X332142Y460077D02*
X332142Y458215D01*
X332142Y460077D02*
X332140Y460147D01*
X332134Y460216D01*
X332124Y460285D01*
X332111Y460353D01*
X332093Y460421D01*
X332072Y460487D01*
X332047Y460552D01*
X332019Y460616D01*
X331987Y460678D01*
X331952Y460738D01*
X331913Y460796D01*
X331871Y460851D01*
X331826Y460905D01*
X331778Y460955D01*
X331728Y461003D01*
X331674Y461048D01*
X331619Y461090D01*
X331561Y461129D01*
X331501Y461164D01*
X331439Y461196D01*
X331375Y461224D01*
X331310Y461249D01*
X331244Y461270D01*
X331176Y461288D01*
X331108Y461301D01*
X331039Y461311D01*
X330970Y461317D01*
X330900Y461319D01*
X330830Y461317D01*
X330761Y461311D01*
X330692Y461301D01*
X330624Y461288D01*
X330556Y461270D01*
X330490Y461249D01*
X330425Y461224D01*
X330361Y461196D01*
X330299Y461164D01*
X330239Y461129D01*
X330181Y461090D01*
X330126Y461048D01*
X330072Y461003D01*
X330022Y460955D01*
X329974Y460905D01*
X329929Y460851D01*
X329887Y460796D01*
X329848Y460738D01*
X329813Y460678D01*
X329781Y460616D01*
X329753Y460552D01*
X329728Y460487D01*
X329707Y460421D01*
X329689Y460353D01*
X329676Y460285D01*
X329666Y460216D01*
X329660Y460147D01*
X329658Y460077D01*
X329658Y458835D01*
X332142Y470454D02*
X326554Y470454D01*
X332142Y470454D02*
X332142Y472006D01*
X332140Y472083D01*
X332134Y472161D01*
X332125Y472237D01*
X332111Y472314D01*
X332094Y472389D01*
X332073Y472463D01*
X332048Y472537D01*
X332020Y472609D01*
X331988Y472679D01*
X331953Y472748D01*
X331914Y472815D01*
X331872Y472880D01*
X331827Y472943D01*
X331779Y473004D01*
X331728Y473062D01*
X331674Y473117D01*
X331617Y473170D01*
X331558Y473219D01*
X331496Y473266D01*
X331432Y473310D01*
X331366Y473350D01*
X331298Y473387D01*
X331228Y473421D01*
X331157Y473451D01*
X331084Y473477D01*
X331010Y473500D01*
X330935Y473519D01*
X330860Y473534D01*
X330783Y473546D01*
X330706Y473554D01*
X330629Y473558D01*
X330551Y473558D01*
X330474Y473554D01*
X330397Y473546D01*
X330320Y473534D01*
X330245Y473519D01*
X330170Y473500D01*
X330096Y473477D01*
X330023Y473451D01*
X329952Y473421D01*
X329882Y473387D01*
X329814Y473350D01*
X329748Y473310D01*
X329684Y473266D01*
X329622Y473219D01*
X329563Y473170D01*
X329506Y473117D01*
X329452Y473062D01*
X329401Y473004D01*
X329353Y472943D01*
X329308Y472880D01*
X329266Y472815D01*
X329227Y472748D01*
X329192Y472679D01*
X329160Y472609D01*
X329132Y472537D01*
X329107Y472463D01*
X329086Y472389D01*
X329069Y472314D01*
X329055Y472237D01*
X329046Y472161D01*
X329040Y472083D01*
X329038Y472006D01*
X329038Y470454D01*
X327796Y475675D02*
X332142Y476916D01*
X327796Y475675D02*
X327796Y478779D01*
X329038Y477848D02*
X326554Y477848D01*
X326554Y495454D02*
X332142Y495454D01*
X332142Y497006D01*
X332140Y497083D01*
X332134Y497161D01*
X332125Y497237D01*
X332111Y497314D01*
X332094Y497389D01*
X332073Y497463D01*
X332048Y497537D01*
X332020Y497609D01*
X331988Y497679D01*
X331953Y497748D01*
X331914Y497815D01*
X331872Y497880D01*
X331827Y497943D01*
X331779Y498004D01*
X331728Y498062D01*
X331674Y498117D01*
X331617Y498170D01*
X331558Y498219D01*
X331496Y498266D01*
X331432Y498310D01*
X331366Y498350D01*
X331298Y498387D01*
X331228Y498421D01*
X331157Y498451D01*
X331084Y498477D01*
X331010Y498500D01*
X330935Y498519D01*
X330860Y498534D01*
X330783Y498546D01*
X330706Y498554D01*
X330629Y498558D01*
X330551Y498558D01*
X330474Y498554D01*
X330397Y498546D01*
X330320Y498534D01*
X330245Y498519D01*
X330170Y498500D01*
X330096Y498477D01*
X330023Y498451D01*
X329952Y498421D01*
X329882Y498387D01*
X329814Y498350D01*
X329748Y498310D01*
X329684Y498266D01*
X329622Y498219D01*
X329563Y498170D01*
X329506Y498117D01*
X329452Y498062D01*
X329401Y498004D01*
X329353Y497943D01*
X329308Y497880D01*
X329266Y497815D01*
X329227Y497748D01*
X329192Y497679D01*
X329160Y497609D01*
X329132Y497537D01*
X329107Y497463D01*
X329086Y497389D01*
X329069Y497314D01*
X329055Y497237D01*
X329046Y497161D01*
X329040Y497083D01*
X329038Y497006D01*
X329038Y495454D01*
X326554Y500675D02*
X326554Y502537D01*
X326556Y502607D01*
X326562Y502676D01*
X326572Y502745D01*
X326585Y502813D01*
X326603Y502881D01*
X326624Y502947D01*
X326649Y503012D01*
X326677Y503076D01*
X326709Y503138D01*
X326744Y503198D01*
X326783Y503256D01*
X326825Y503311D01*
X326870Y503365D01*
X326918Y503415D01*
X326968Y503463D01*
X327022Y503508D01*
X327077Y503550D01*
X327135Y503589D01*
X327195Y503624D01*
X327257Y503656D01*
X327321Y503684D01*
X327386Y503709D01*
X327452Y503730D01*
X327520Y503748D01*
X327588Y503761D01*
X327657Y503771D01*
X327726Y503777D01*
X327796Y503779D01*
X328417Y503779D01*
X328487Y503777D01*
X328556Y503771D01*
X328625Y503761D01*
X328693Y503748D01*
X328761Y503730D01*
X328827Y503709D01*
X328892Y503684D01*
X328956Y503656D01*
X329018Y503624D01*
X329078Y503589D01*
X329136Y503550D01*
X329191Y503508D01*
X329245Y503463D01*
X329295Y503415D01*
X329343Y503365D01*
X329388Y503311D01*
X329430Y503256D01*
X329469Y503198D01*
X329504Y503138D01*
X329536Y503076D01*
X329564Y503012D01*
X329589Y502947D01*
X329610Y502881D01*
X329628Y502813D01*
X329641Y502745D01*
X329651Y502676D01*
X329657Y502607D01*
X329659Y502537D01*
X329658Y502537D02*
X329658Y500675D01*
X332142Y500675D01*
X332142Y503779D01*
X444183Y362954D02*
X446046Y362954D01*
X444183Y362954D02*
X444113Y362956D01*
X444044Y362962D01*
X443975Y362972D01*
X443907Y362985D01*
X443839Y363003D01*
X443773Y363024D01*
X443708Y363049D01*
X443644Y363077D01*
X443582Y363109D01*
X443522Y363144D01*
X443464Y363183D01*
X443409Y363225D01*
X443355Y363270D01*
X443305Y363318D01*
X443257Y363368D01*
X443212Y363422D01*
X443170Y363477D01*
X443131Y363535D01*
X443096Y363595D01*
X443064Y363657D01*
X443036Y363721D01*
X443011Y363786D01*
X442990Y363852D01*
X442972Y363920D01*
X442959Y363988D01*
X442949Y364057D01*
X442943Y364126D01*
X442941Y364196D01*
X442942Y364196D02*
X442942Y364817D01*
X442941Y364817D02*
X442943Y364887D01*
X442949Y364956D01*
X442959Y365025D01*
X442972Y365093D01*
X442990Y365161D01*
X443011Y365227D01*
X443036Y365292D01*
X443064Y365356D01*
X443096Y365418D01*
X443131Y365478D01*
X443170Y365536D01*
X443212Y365591D01*
X443257Y365645D01*
X443305Y365695D01*
X443355Y365743D01*
X443409Y365788D01*
X443464Y365830D01*
X443522Y365869D01*
X443582Y365904D01*
X443644Y365936D01*
X443708Y365964D01*
X443773Y365989D01*
X443839Y366010D01*
X443907Y366028D01*
X443975Y366041D01*
X444044Y366051D01*
X444113Y366057D01*
X444183Y366059D01*
X444183Y366058D02*
X446046Y366058D01*
X446046Y368542D01*
X442942Y368542D01*
X440870Y368542D02*
X439007Y362954D01*
X437145Y368542D01*
X421373Y366058D02*
X420442Y366058D01*
X420442Y362954D01*
X422304Y362954D01*
X422374Y362956D01*
X422443Y362962D01*
X422512Y362972D01*
X422580Y362985D01*
X422648Y363003D01*
X422714Y363024D01*
X422779Y363049D01*
X422843Y363077D01*
X422905Y363109D01*
X422965Y363144D01*
X423023Y363183D01*
X423078Y363225D01*
X423132Y363270D01*
X423182Y363318D01*
X423230Y363368D01*
X423275Y363422D01*
X423317Y363477D01*
X423356Y363535D01*
X423391Y363595D01*
X423423Y363657D01*
X423451Y363721D01*
X423476Y363786D01*
X423497Y363852D01*
X423515Y363920D01*
X423528Y363988D01*
X423538Y364057D01*
X423544Y364126D01*
X423546Y364196D01*
X423546Y367300D01*
X423544Y367370D01*
X423538Y367439D01*
X423528Y367508D01*
X423515Y367576D01*
X423497Y367644D01*
X423476Y367710D01*
X423451Y367775D01*
X423423Y367839D01*
X423391Y367901D01*
X423356Y367961D01*
X423317Y368019D01*
X423275Y368074D01*
X423230Y368128D01*
X423182Y368178D01*
X423132Y368226D01*
X423078Y368271D01*
X423023Y368313D01*
X422965Y368352D01*
X422905Y368387D01*
X422843Y368419D01*
X422779Y368447D01*
X422714Y368472D01*
X422648Y368493D01*
X422580Y368511D01*
X422512Y368524D01*
X422443Y368534D01*
X422374Y368540D01*
X422304Y368542D01*
X420442Y368542D01*
X417694Y368542D02*
X417694Y362954D01*
X414589Y362954D02*
X417694Y368542D01*
X414589Y368542D02*
X414589Y362954D01*
X411842Y362954D02*
X411842Y368542D01*
X410290Y368542D01*
X410214Y368540D01*
X410138Y368535D01*
X410062Y368525D01*
X409987Y368512D01*
X409913Y368495D01*
X409839Y368475D01*
X409767Y368451D01*
X409696Y368424D01*
X409626Y368393D01*
X409558Y368359D01*
X409492Y368321D01*
X409428Y368280D01*
X409365Y368237D01*
X409305Y368190D01*
X409248Y368140D01*
X409193Y368087D01*
X409140Y368032D01*
X409090Y367975D01*
X409043Y367915D01*
X409000Y367852D01*
X408959Y367788D01*
X408921Y367722D01*
X408887Y367654D01*
X408856Y367584D01*
X408829Y367513D01*
X408805Y367441D01*
X408785Y367367D01*
X408768Y367293D01*
X408755Y367218D01*
X408745Y367142D01*
X408740Y367066D01*
X408738Y366990D01*
X408737Y366990D02*
X408737Y364506D01*
X408738Y364506D02*
X408740Y364430D01*
X408745Y364354D01*
X408755Y364278D01*
X408768Y364203D01*
X408785Y364129D01*
X408805Y364055D01*
X408829Y363983D01*
X408856Y363912D01*
X408887Y363842D01*
X408921Y363774D01*
X408959Y363708D01*
X409000Y363644D01*
X409043Y363581D01*
X409090Y363521D01*
X409140Y363464D01*
X409193Y363409D01*
X409248Y363356D01*
X409305Y363306D01*
X409365Y363259D01*
X409428Y363216D01*
X409492Y363175D01*
X409558Y363137D01*
X409626Y363103D01*
X409696Y363072D01*
X409767Y363045D01*
X409839Y363021D01*
X409913Y363001D01*
X409987Y362984D01*
X410062Y362971D01*
X410138Y362961D01*
X410214Y362956D01*
X410290Y362954D01*
X411842Y362954D01*
X393546Y368542D02*
X391683Y362954D01*
X389821Y368542D01*
X387294Y368542D02*
X387294Y362954D01*
X387915Y362954D02*
X386673Y362954D01*
X386673Y368542D02*
X387915Y368542D01*
X384275Y368542D02*
X384275Y362954D01*
X381170Y362954D02*
X384275Y368542D01*
X381170Y368542D02*
X381170Y362954D01*
D11*
X354838Y624332D02*
X347613Y624332D01*
X354838Y624332D02*
X354838Y640588D01*
X347613Y640588D01*
X349419Y633363D02*
X354838Y633363D01*
X341182Y640588D02*
X341182Y624332D01*
X335763Y631557D02*
X341182Y640588D01*
X335763Y631557D02*
X330344Y640588D01*
X330344Y624332D01*
X322533Y624332D02*
X322533Y640588D01*
X315309Y640588D01*
X315309Y633363D02*
X322533Y633363D01*
X300469Y633363D02*
X295953Y633363D01*
X295953Y633364D02*
X295820Y633362D01*
X295688Y633356D01*
X295556Y633346D01*
X295424Y633333D01*
X295292Y633315D01*
X295162Y633294D01*
X295031Y633269D01*
X294902Y633240D01*
X294774Y633207D01*
X294646Y633171D01*
X294520Y633131D01*
X294395Y633087D01*
X294271Y633039D01*
X294149Y632988D01*
X294028Y632933D01*
X293909Y632875D01*
X293791Y632813D01*
X293676Y632748D01*
X293562Y632679D01*
X293451Y632608D01*
X293342Y632532D01*
X293235Y632454D01*
X293130Y632373D01*
X293028Y632288D01*
X292928Y632201D01*
X292831Y632111D01*
X292736Y632018D01*
X292645Y631922D01*
X292556Y631824D01*
X292470Y631723D01*
X292387Y631619D01*
X292307Y631513D01*
X292231Y631405D01*
X292157Y631295D01*
X292087Y631182D01*
X292020Y631068D01*
X291957Y630951D01*
X291897Y630833D01*
X291840Y630713D01*
X291787Y630591D01*
X291738Y630468D01*
X291692Y630344D01*
X291650Y630218D01*
X291612Y630091D01*
X291577Y629963D01*
X291546Y629834D01*
X291519Y629705D01*
X291496Y629574D01*
X291476Y629443D01*
X291461Y629311D01*
X291449Y629179D01*
X291441Y629047D01*
X291437Y628914D01*
X291437Y628782D01*
X291441Y628649D01*
X291449Y628517D01*
X291461Y628385D01*
X291476Y628253D01*
X291496Y628122D01*
X291519Y627991D01*
X291546Y627862D01*
X291577Y627733D01*
X291612Y627605D01*
X291650Y627478D01*
X291692Y627352D01*
X291738Y627228D01*
X291787Y627105D01*
X291840Y626983D01*
X291897Y626863D01*
X291957Y626745D01*
X292020Y626628D01*
X292087Y626514D01*
X292157Y626401D01*
X292231Y626291D01*
X292307Y626183D01*
X292387Y626077D01*
X292470Y625973D01*
X292556Y625872D01*
X292645Y625774D01*
X292736Y625678D01*
X292831Y625585D01*
X292928Y625495D01*
X293028Y625408D01*
X293130Y625323D01*
X293235Y625242D01*
X293342Y625164D01*
X293451Y625088D01*
X293562Y625017D01*
X293676Y624948D01*
X293791Y624883D01*
X293909Y624821D01*
X294028Y624763D01*
X294149Y624708D01*
X294271Y624657D01*
X294395Y624609D01*
X294520Y624565D01*
X294646Y624525D01*
X294774Y624489D01*
X294902Y624456D01*
X295031Y624427D01*
X295162Y624402D01*
X295292Y624381D01*
X295424Y624363D01*
X295556Y624350D01*
X295688Y624340D01*
X295820Y624334D01*
X295953Y624332D01*
X300469Y624332D01*
X300469Y640588D01*
X295953Y640588D01*
X295834Y640586D01*
X295714Y640580D01*
X295595Y640570D01*
X295477Y640556D01*
X295358Y640539D01*
X295241Y640517D01*
X295124Y640492D01*
X295009Y640462D01*
X294894Y640429D01*
X294780Y640392D01*
X294668Y640352D01*
X294557Y640307D01*
X294448Y640259D01*
X294340Y640208D01*
X294234Y640153D01*
X294130Y640094D01*
X294028Y640032D01*
X293928Y639967D01*
X293830Y639898D01*
X293734Y639826D01*
X293641Y639751D01*
X293551Y639674D01*
X293463Y639593D01*
X293378Y639509D01*
X293296Y639422D01*
X293216Y639333D01*
X293140Y639241D01*
X293066Y639147D01*
X292996Y639050D01*
X292929Y638952D01*
X292865Y638851D01*
X292805Y638747D01*
X292748Y638642D01*
X292695Y638535D01*
X292645Y638427D01*
X292599Y638317D01*
X292557Y638205D01*
X292518Y638092D01*
X292483Y637978D01*
X292452Y637863D01*
X292424Y637746D01*
X292401Y637629D01*
X292381Y637512D01*
X292365Y637393D01*
X292353Y637274D01*
X292345Y637155D01*
X292341Y637036D01*
X292341Y636916D01*
X292345Y636797D01*
X292353Y636678D01*
X292365Y636559D01*
X292381Y636440D01*
X292401Y636323D01*
X292424Y636206D01*
X292452Y636089D01*
X292483Y635974D01*
X292518Y635860D01*
X292557Y635747D01*
X292599Y635635D01*
X292645Y635525D01*
X292695Y635417D01*
X292748Y635310D01*
X292805Y635205D01*
X292865Y635101D01*
X292929Y635000D01*
X292996Y634902D01*
X293066Y634805D01*
X293140Y634711D01*
X293216Y634619D01*
X293296Y634530D01*
X293378Y634443D01*
X293463Y634359D01*
X293551Y634278D01*
X293641Y634201D01*
X293734Y634126D01*
X293830Y634054D01*
X293928Y633985D01*
X294028Y633920D01*
X294130Y633858D01*
X294234Y633799D01*
X294340Y633744D01*
X294448Y633693D01*
X294557Y633645D01*
X294668Y633600D01*
X294780Y633560D01*
X294894Y633523D01*
X295009Y633490D01*
X295124Y633460D01*
X295241Y633435D01*
X295358Y633413D01*
X295477Y633396D01*
X295595Y633382D01*
X295714Y633372D01*
X295834Y633366D01*
X295953Y633364D01*
X285102Y635169D02*
X285102Y624332D01*
X285102Y635169D02*
X279684Y635169D01*
X279684Y633363D01*
X274766Y631557D02*
X274766Y627944D01*
X274766Y631557D02*
X274764Y631676D01*
X274758Y631796D01*
X274748Y631915D01*
X274734Y632033D01*
X274717Y632152D01*
X274695Y632269D01*
X274670Y632386D01*
X274640Y632501D01*
X274607Y632616D01*
X274570Y632730D01*
X274530Y632842D01*
X274485Y632953D01*
X274437Y633062D01*
X274386Y633170D01*
X274331Y633276D01*
X274272Y633380D01*
X274210Y633482D01*
X274145Y633582D01*
X274076Y633680D01*
X274004Y633776D01*
X273929Y633869D01*
X273852Y633959D01*
X273771Y634047D01*
X273687Y634132D01*
X273600Y634214D01*
X273511Y634294D01*
X273419Y634370D01*
X273325Y634444D01*
X273228Y634514D01*
X273130Y634581D01*
X273029Y634645D01*
X272925Y634705D01*
X272820Y634762D01*
X272713Y634815D01*
X272605Y634865D01*
X272495Y634911D01*
X272383Y634953D01*
X272270Y634992D01*
X272156Y635027D01*
X272041Y635058D01*
X271924Y635086D01*
X271807Y635109D01*
X271690Y635129D01*
X271571Y635145D01*
X271452Y635157D01*
X271333Y635165D01*
X271214Y635169D01*
X271094Y635169D01*
X270975Y635165D01*
X270856Y635157D01*
X270737Y635145D01*
X270618Y635129D01*
X270501Y635109D01*
X270384Y635086D01*
X270267Y635058D01*
X270152Y635027D01*
X270038Y634992D01*
X269925Y634953D01*
X269813Y634911D01*
X269703Y634865D01*
X269595Y634815D01*
X269488Y634762D01*
X269383Y634705D01*
X269279Y634645D01*
X269178Y634581D01*
X269080Y634514D01*
X268983Y634444D01*
X268889Y634370D01*
X268797Y634294D01*
X268708Y634214D01*
X268621Y634132D01*
X268537Y634047D01*
X268456Y633959D01*
X268379Y633869D01*
X268304Y633776D01*
X268232Y633680D01*
X268163Y633582D01*
X268098Y633482D01*
X268036Y633380D01*
X267977Y633276D01*
X267922Y633170D01*
X267871Y633062D01*
X267823Y632953D01*
X267778Y632842D01*
X267738Y632730D01*
X267701Y632616D01*
X267668Y632501D01*
X267638Y632386D01*
X267613Y632269D01*
X267591Y632152D01*
X267574Y632033D01*
X267560Y631915D01*
X267550Y631796D01*
X267544Y631676D01*
X267542Y631557D01*
X267542Y627944D01*
X267544Y627825D01*
X267550Y627705D01*
X267560Y627586D01*
X267574Y627468D01*
X267591Y627349D01*
X267613Y627232D01*
X267638Y627115D01*
X267668Y627000D01*
X267701Y626885D01*
X267738Y626771D01*
X267778Y626659D01*
X267823Y626548D01*
X267871Y626439D01*
X267922Y626331D01*
X267977Y626225D01*
X268036Y626121D01*
X268098Y626019D01*
X268163Y625919D01*
X268232Y625821D01*
X268304Y625725D01*
X268379Y625632D01*
X268456Y625542D01*
X268537Y625454D01*
X268621Y625369D01*
X268708Y625287D01*
X268797Y625207D01*
X268889Y625131D01*
X268983Y625057D01*
X269080Y624987D01*
X269178Y624920D01*
X269279Y624856D01*
X269383Y624796D01*
X269488Y624739D01*
X269595Y624686D01*
X269703Y624636D01*
X269813Y624590D01*
X269925Y624548D01*
X270038Y624509D01*
X270152Y624474D01*
X270267Y624443D01*
X270384Y624415D01*
X270501Y624392D01*
X270618Y624372D01*
X270737Y624356D01*
X270856Y624344D01*
X270975Y624336D01*
X271094Y624332D01*
X271214Y624332D01*
X271333Y624336D01*
X271452Y624344D01*
X271571Y624356D01*
X271690Y624372D01*
X271807Y624392D01*
X271924Y624415D01*
X272041Y624443D01*
X272156Y624474D01*
X272270Y624509D01*
X272383Y624548D01*
X272495Y624590D01*
X272605Y624636D01*
X272713Y624686D01*
X272820Y624739D01*
X272925Y624796D01*
X273029Y624856D01*
X273130Y624920D01*
X273228Y624987D01*
X273325Y625057D01*
X273419Y625131D01*
X273511Y625207D01*
X273600Y625287D01*
X273687Y625369D01*
X273771Y625454D01*
X273852Y625542D01*
X273929Y625632D01*
X274004Y625725D01*
X274076Y625821D01*
X274145Y625919D01*
X274210Y626019D01*
X274272Y626121D01*
X274331Y626225D01*
X274386Y626331D01*
X274437Y626439D01*
X274485Y626548D01*
X274530Y626659D01*
X274570Y626771D01*
X274607Y626885D01*
X274640Y627000D01*
X274670Y627115D01*
X274695Y627232D01*
X274717Y627349D01*
X274734Y627468D01*
X274748Y627586D01*
X274758Y627705D01*
X274764Y627825D01*
X274766Y627944D01*
X258132Y630654D02*
X254068Y630654D01*
X258132Y630654D02*
X258244Y630652D01*
X258355Y630646D01*
X258466Y630636D01*
X258577Y630623D01*
X258687Y630605D01*
X258796Y630583D01*
X258905Y630558D01*
X259013Y630529D01*
X259119Y630496D01*
X259225Y630459D01*
X259329Y630419D01*
X259431Y630375D01*
X259532Y630327D01*
X259631Y630276D01*
X259729Y630221D01*
X259824Y630163D01*
X259917Y630102D01*
X260008Y630037D01*
X260097Y629969D01*
X260183Y629898D01*
X260266Y629825D01*
X260347Y629748D01*
X260426Y629668D01*
X260501Y629586D01*
X260573Y629501D01*
X260643Y629414D01*
X260709Y629324D01*
X260772Y629232D01*
X260832Y629137D01*
X260888Y629041D01*
X260941Y628943D01*
X260990Y628843D01*
X261036Y628741D01*
X261078Y628638D01*
X261117Y628533D01*
X261152Y628427D01*
X261183Y628320D01*
X261210Y628212D01*
X261234Y628103D01*
X261253Y627993D01*
X261269Y627883D01*
X261281Y627772D01*
X261289Y627660D01*
X261293Y627549D01*
X261293Y627437D01*
X261289Y627326D01*
X261281Y627214D01*
X261269Y627103D01*
X261253Y626993D01*
X261234Y626883D01*
X261210Y626774D01*
X261183Y626666D01*
X261152Y626559D01*
X261117Y626453D01*
X261078Y626348D01*
X261036Y626245D01*
X260990Y626143D01*
X260941Y626043D01*
X260888Y625945D01*
X260832Y625849D01*
X260772Y625754D01*
X260709Y625662D01*
X260643Y625572D01*
X260573Y625485D01*
X260501Y625400D01*
X260426Y625318D01*
X260347Y625238D01*
X260266Y625161D01*
X260183Y625088D01*
X260097Y625017D01*
X260008Y624949D01*
X259917Y624884D01*
X259824Y624823D01*
X259729Y624765D01*
X259631Y624710D01*
X259532Y624659D01*
X259431Y624611D01*
X259329Y624567D01*
X259225Y624527D01*
X259119Y624490D01*
X259013Y624457D01*
X258905Y624428D01*
X258796Y624403D01*
X258687Y624381D01*
X258577Y624363D01*
X258466Y624350D01*
X258355Y624340D01*
X258244Y624334D01*
X258132Y624332D01*
X254068Y624332D01*
X254068Y632460D01*
X254070Y632561D01*
X254076Y632662D01*
X254085Y632763D01*
X254098Y632864D01*
X254115Y632964D01*
X254136Y633063D01*
X254160Y633161D01*
X254188Y633258D01*
X254220Y633355D01*
X254255Y633450D01*
X254294Y633543D01*
X254336Y633635D01*
X254382Y633726D01*
X254431Y633815D01*
X254483Y633901D01*
X254539Y633986D01*
X254597Y634069D01*
X254659Y634149D01*
X254724Y634227D01*
X254791Y634303D01*
X254861Y634376D01*
X254934Y634446D01*
X255010Y634513D01*
X255088Y634578D01*
X255168Y634640D01*
X255251Y634698D01*
X255336Y634754D01*
X255423Y634806D01*
X255511Y634855D01*
X255602Y634901D01*
X255694Y634943D01*
X255787Y634982D01*
X255882Y635017D01*
X255979Y635049D01*
X256076Y635077D01*
X256174Y635101D01*
X256273Y635122D01*
X256373Y635139D01*
X256474Y635152D01*
X256575Y635161D01*
X256676Y635167D01*
X256777Y635169D01*
X260390Y635169D01*
X244424Y624332D02*
X240812Y624332D01*
X244424Y624332D02*
X244525Y624334D01*
X244626Y624340D01*
X244727Y624349D01*
X244828Y624362D01*
X244928Y624379D01*
X245027Y624400D01*
X245125Y624424D01*
X245222Y624452D01*
X245319Y624484D01*
X245414Y624519D01*
X245507Y624558D01*
X245599Y624600D01*
X245690Y624646D01*
X245779Y624695D01*
X245865Y624747D01*
X245950Y624803D01*
X246033Y624861D01*
X246113Y624923D01*
X246191Y624988D01*
X246267Y625055D01*
X246340Y625125D01*
X246410Y625198D01*
X246477Y625274D01*
X246542Y625352D01*
X246604Y625432D01*
X246662Y625515D01*
X246718Y625600D01*
X246770Y625687D01*
X246819Y625775D01*
X246865Y625866D01*
X246907Y625958D01*
X246946Y626051D01*
X246981Y626146D01*
X247013Y626243D01*
X247041Y626340D01*
X247065Y626438D01*
X247086Y626537D01*
X247103Y626637D01*
X247116Y626738D01*
X247125Y626839D01*
X247131Y626940D01*
X247133Y627041D01*
X247134Y627041D02*
X247134Y632460D01*
X247133Y632460D02*
X247131Y632561D01*
X247125Y632662D01*
X247116Y632763D01*
X247103Y632864D01*
X247086Y632964D01*
X247065Y633063D01*
X247041Y633161D01*
X247013Y633258D01*
X246981Y633355D01*
X246946Y633450D01*
X246907Y633543D01*
X246865Y633635D01*
X246819Y633726D01*
X246770Y633815D01*
X246718Y633901D01*
X246662Y633986D01*
X246604Y634069D01*
X246542Y634149D01*
X246477Y634227D01*
X246410Y634303D01*
X246340Y634376D01*
X246267Y634446D01*
X246191Y634513D01*
X246113Y634578D01*
X246033Y634640D01*
X245950Y634698D01*
X245865Y634754D01*
X245779Y634806D01*
X245690Y634855D01*
X245599Y634901D01*
X245507Y634943D01*
X245414Y634982D01*
X245319Y635017D01*
X245222Y635049D01*
X245125Y635077D01*
X245027Y635101D01*
X244928Y635122D01*
X244828Y635139D01*
X244727Y635152D01*
X244626Y635161D01*
X244525Y635167D01*
X244424Y635169D01*
X240812Y635169D01*
X234646Y640588D02*
X234646Y624332D01*
X234646Y635169D02*
X230131Y635169D01*
X230027Y635167D01*
X229924Y635161D01*
X229820Y635151D01*
X229717Y635137D01*
X229615Y635119D01*
X229514Y635098D01*
X229413Y635072D01*
X229314Y635043D01*
X229215Y635010D01*
X229118Y634973D01*
X229023Y634932D01*
X228929Y634888D01*
X228837Y634840D01*
X228747Y634789D01*
X228658Y634734D01*
X228572Y634676D01*
X228489Y634614D01*
X228407Y634550D01*
X228329Y634482D01*
X228253Y634412D01*
X228179Y634339D01*
X228109Y634262D01*
X228041Y634184D01*
X227977Y634102D01*
X227915Y634019D01*
X227857Y633933D01*
X227802Y633844D01*
X227751Y633754D01*
X227703Y633662D01*
X227659Y633568D01*
X227618Y633473D01*
X227581Y633376D01*
X227548Y633277D01*
X227519Y633178D01*
X227493Y633077D01*
X227472Y632976D01*
X227454Y632874D01*
X227440Y632771D01*
X227430Y632667D01*
X227424Y632564D01*
X227422Y632460D01*
X227421Y632460D02*
X227421Y624332D01*
X207587Y624332D02*
X213006Y640588D01*
X202168Y640588D02*
X207587Y624332D01*
X196471Y624332D02*
X191956Y624332D01*
X191823Y624334D01*
X191691Y624340D01*
X191559Y624350D01*
X191427Y624363D01*
X191295Y624381D01*
X191165Y624402D01*
X191034Y624427D01*
X190905Y624456D01*
X190777Y624489D01*
X190649Y624525D01*
X190523Y624565D01*
X190398Y624609D01*
X190274Y624657D01*
X190152Y624708D01*
X190031Y624763D01*
X189912Y624821D01*
X189794Y624883D01*
X189679Y624948D01*
X189565Y625017D01*
X189454Y625088D01*
X189345Y625164D01*
X189238Y625242D01*
X189133Y625323D01*
X189031Y625408D01*
X188931Y625495D01*
X188834Y625585D01*
X188739Y625678D01*
X188648Y625774D01*
X188559Y625872D01*
X188473Y625973D01*
X188390Y626077D01*
X188310Y626183D01*
X188234Y626291D01*
X188160Y626401D01*
X188090Y626514D01*
X188023Y626628D01*
X187960Y626745D01*
X187900Y626863D01*
X187843Y626983D01*
X187790Y627105D01*
X187741Y627228D01*
X187695Y627352D01*
X187653Y627478D01*
X187615Y627605D01*
X187580Y627733D01*
X187549Y627862D01*
X187522Y627991D01*
X187499Y628122D01*
X187479Y628253D01*
X187464Y628385D01*
X187452Y628517D01*
X187444Y628649D01*
X187440Y628782D01*
X187440Y628914D01*
X187444Y629047D01*
X187452Y629179D01*
X187464Y629311D01*
X187479Y629443D01*
X187499Y629574D01*
X187522Y629705D01*
X187549Y629834D01*
X187580Y629963D01*
X187615Y630091D01*
X187653Y630218D01*
X187695Y630344D01*
X187741Y630468D01*
X187790Y630591D01*
X187843Y630713D01*
X187900Y630833D01*
X187960Y630951D01*
X188023Y631068D01*
X188090Y631182D01*
X188160Y631295D01*
X188234Y631405D01*
X188310Y631513D01*
X188390Y631619D01*
X188473Y631723D01*
X188559Y631824D01*
X188648Y631922D01*
X188739Y632018D01*
X188834Y632111D01*
X188931Y632201D01*
X189031Y632288D01*
X189133Y632373D01*
X189238Y632454D01*
X189345Y632532D01*
X189454Y632608D01*
X189565Y632679D01*
X189679Y632748D01*
X189794Y632813D01*
X189912Y632875D01*
X190031Y632933D01*
X190152Y632988D01*
X190274Y633039D01*
X190398Y633087D01*
X190523Y633131D01*
X190649Y633171D01*
X190777Y633207D01*
X190905Y633240D01*
X191034Y633269D01*
X191165Y633294D01*
X191295Y633315D01*
X191427Y633333D01*
X191559Y633346D01*
X191691Y633356D01*
X191823Y633362D01*
X191956Y633364D01*
X191053Y640588D02*
X196471Y640588D01*
X191053Y640588D02*
X190934Y640586D01*
X190814Y640580D01*
X190695Y640570D01*
X190577Y640556D01*
X190458Y640539D01*
X190341Y640517D01*
X190224Y640492D01*
X190109Y640462D01*
X189994Y640429D01*
X189880Y640392D01*
X189768Y640352D01*
X189657Y640307D01*
X189548Y640259D01*
X189440Y640208D01*
X189334Y640153D01*
X189230Y640094D01*
X189128Y640032D01*
X189028Y639967D01*
X188930Y639898D01*
X188834Y639826D01*
X188741Y639751D01*
X188651Y639674D01*
X188563Y639593D01*
X188478Y639509D01*
X188396Y639422D01*
X188316Y639333D01*
X188240Y639241D01*
X188166Y639147D01*
X188096Y639050D01*
X188029Y638952D01*
X187965Y638851D01*
X187905Y638747D01*
X187848Y638642D01*
X187795Y638535D01*
X187745Y638427D01*
X187699Y638317D01*
X187657Y638205D01*
X187618Y638092D01*
X187583Y637978D01*
X187552Y637863D01*
X187524Y637746D01*
X187501Y637629D01*
X187481Y637512D01*
X187465Y637393D01*
X187453Y637274D01*
X187445Y637155D01*
X187441Y637036D01*
X187441Y636916D01*
X187445Y636797D01*
X187453Y636678D01*
X187465Y636559D01*
X187481Y636440D01*
X187501Y636323D01*
X187524Y636206D01*
X187552Y636089D01*
X187583Y635974D01*
X187618Y635860D01*
X187657Y635747D01*
X187699Y635635D01*
X187745Y635525D01*
X187795Y635417D01*
X187848Y635310D01*
X187905Y635205D01*
X187965Y635101D01*
X188029Y635000D01*
X188096Y634902D01*
X188166Y634805D01*
X188240Y634711D01*
X188316Y634619D01*
X188396Y634530D01*
X188478Y634443D01*
X188563Y634359D01*
X188651Y634278D01*
X188741Y634201D01*
X188834Y634126D01*
X188930Y634054D01*
X189028Y633985D01*
X189128Y633920D01*
X189230Y633858D01*
X189334Y633799D01*
X189440Y633744D01*
X189548Y633693D01*
X189657Y633645D01*
X189768Y633600D01*
X189880Y633560D01*
X189994Y633523D01*
X190109Y633490D01*
X190224Y633460D01*
X190341Y633435D01*
X190458Y633413D01*
X190577Y633396D01*
X190695Y633382D01*
X190814Y633372D01*
X190934Y633366D01*
X191053Y633364D01*
X191053Y633363D02*
X194665Y633363D01*
X181466Y625235D02*
X181466Y624332D01*
X181466Y625235D02*
X180562Y625235D01*
X180562Y624332D01*
X181466Y624332D01*
X174588Y632460D02*
X174584Y632780D01*
X174573Y633099D01*
X174554Y633419D01*
X174527Y633737D01*
X174493Y634055D01*
X174451Y634372D01*
X174401Y634688D01*
X174344Y635003D01*
X174280Y635316D01*
X174208Y635628D01*
X174129Y635938D01*
X174042Y636245D01*
X173948Y636551D01*
X173847Y636854D01*
X173738Y637155D01*
X173623Y637453D01*
X173500Y637749D01*
X173370Y638041D01*
X173233Y638330D01*
X173233Y638331D02*
X173194Y638439D01*
X173151Y638546D01*
X173105Y638651D01*
X173054Y638755D01*
X173001Y638857D01*
X172944Y638957D01*
X172883Y639055D01*
X172819Y639150D01*
X172752Y639244D01*
X172681Y639335D01*
X172608Y639424D01*
X172531Y639510D01*
X172452Y639593D01*
X172370Y639674D01*
X172285Y639752D01*
X172197Y639826D01*
X172107Y639898D01*
X172015Y639966D01*
X171920Y640032D01*
X171823Y640094D01*
X171724Y640152D01*
X171622Y640208D01*
X171520Y640259D01*
X171415Y640307D01*
X171309Y640352D01*
X171201Y640393D01*
X171092Y640430D01*
X170982Y640463D01*
X170870Y640492D01*
X170758Y640518D01*
X170645Y640540D01*
X170531Y640557D01*
X170417Y640571D01*
X170302Y640581D01*
X170187Y640587D01*
X170072Y640589D01*
X170072Y640588D02*
X169957Y640586D01*
X169842Y640580D01*
X169727Y640570D01*
X169613Y640556D01*
X169499Y640539D01*
X169386Y640517D01*
X169274Y640491D01*
X169162Y640462D01*
X169052Y640429D01*
X168943Y640392D01*
X168835Y640351D01*
X168729Y640306D01*
X168625Y640258D01*
X168522Y640207D01*
X168421Y640151D01*
X168321Y640093D01*
X168224Y640031D01*
X168130Y639966D01*
X168037Y639897D01*
X167947Y639825D01*
X167859Y639751D01*
X167774Y639673D01*
X167692Y639592D01*
X167613Y639509D01*
X167536Y639423D01*
X167463Y639334D01*
X167392Y639243D01*
X167325Y639149D01*
X167261Y639054D01*
X167200Y638956D01*
X167143Y638856D01*
X167090Y638754D01*
X167039Y638650D01*
X166993Y638545D01*
X166950Y638438D01*
X166911Y638330D01*
X166912Y638330D02*
X166775Y638041D01*
X166645Y637749D01*
X166522Y637453D01*
X166407Y637155D01*
X166298Y636854D01*
X166197Y636551D01*
X166103Y636245D01*
X166016Y635938D01*
X165937Y635628D01*
X165865Y635316D01*
X165801Y635003D01*
X165744Y634688D01*
X165694Y634372D01*
X165652Y634055D01*
X165618Y633737D01*
X165591Y633419D01*
X165572Y633099D01*
X165561Y632780D01*
X165557Y632460D01*
X174587Y632460D02*
X174583Y632140D01*
X174572Y631821D01*
X174553Y631501D01*
X174526Y631183D01*
X174492Y630865D01*
X174450Y630548D01*
X174400Y630232D01*
X174343Y629917D01*
X174279Y629604D01*
X174207Y629292D01*
X174128Y628982D01*
X174041Y628675D01*
X173947Y628369D01*
X173846Y628066D01*
X173737Y627765D01*
X173622Y627467D01*
X173499Y627171D01*
X173369Y626879D01*
X173232Y626590D01*
X173233Y626590D02*
X173194Y626482D01*
X173151Y626375D01*
X173105Y626270D01*
X173054Y626166D01*
X173001Y626064D01*
X172944Y625964D01*
X172883Y625866D01*
X172819Y625771D01*
X172752Y625677D01*
X172681Y625586D01*
X172608Y625497D01*
X172531Y625411D01*
X172452Y625328D01*
X172370Y625247D01*
X172285Y625169D01*
X172197Y625095D01*
X172107Y625023D01*
X172014Y624954D01*
X171920Y624889D01*
X171823Y624827D01*
X171723Y624769D01*
X171622Y624713D01*
X171520Y624662D01*
X171415Y624614D01*
X171309Y624569D01*
X171201Y624528D01*
X171092Y624491D01*
X170982Y624458D01*
X170870Y624429D01*
X170758Y624403D01*
X170645Y624381D01*
X170531Y624364D01*
X170417Y624350D01*
X170302Y624340D01*
X170187Y624334D01*
X170072Y624332D01*
X166912Y626590D02*
X166775Y626879D01*
X166645Y627171D01*
X166522Y627467D01*
X166407Y627765D01*
X166298Y628066D01*
X166197Y628369D01*
X166103Y628675D01*
X166016Y628982D01*
X165937Y629292D01*
X165865Y629604D01*
X165801Y629917D01*
X165744Y630232D01*
X165694Y630548D01*
X165652Y630865D01*
X165618Y631183D01*
X165591Y631501D01*
X165572Y631821D01*
X165561Y632140D01*
X165557Y632460D01*
X166911Y626590D02*
X166950Y626482D01*
X166993Y626375D01*
X167039Y626270D01*
X167090Y626166D01*
X167143Y626064D01*
X167201Y625964D01*
X167261Y625866D01*
X167325Y625771D01*
X167392Y625677D01*
X167463Y625586D01*
X167536Y625497D01*
X167613Y625411D01*
X167692Y625328D01*
X167774Y625247D01*
X167859Y625169D01*
X167947Y625095D01*
X168037Y625023D01*
X168130Y624954D01*
X168224Y624889D01*
X168321Y624827D01*
X168421Y624769D01*
X168522Y624713D01*
X168625Y624662D01*
X168729Y624614D01*
X168835Y624569D01*
X168943Y624528D01*
X169052Y624491D01*
X169162Y624458D01*
X169274Y624429D01*
X169386Y624403D01*
X169499Y624381D01*
X169613Y624364D01*
X169727Y624350D01*
X169842Y624340D01*
X169957Y624334D01*
X170072Y624332D01*
X173685Y627944D02*
X166460Y636976D01*
X354838Y613918D02*
X354838Y597662D01*
X354838Y613918D02*
X350322Y613918D01*
X350191Y613916D01*
X350059Y613910D01*
X349928Y613901D01*
X349798Y613887D01*
X349667Y613870D01*
X349538Y613849D01*
X349409Y613825D01*
X349281Y613796D01*
X349153Y613764D01*
X349027Y613728D01*
X348902Y613689D01*
X348777Y613646D01*
X348655Y613599D01*
X348533Y613549D01*
X348413Y613495D01*
X348295Y613438D01*
X348179Y613377D01*
X348064Y613313D01*
X347951Y613246D01*
X347840Y613175D01*
X347732Y613101D01*
X347625Y613024D01*
X347521Y612944D01*
X347419Y612861D01*
X347320Y612776D01*
X347223Y612687D01*
X347129Y612595D01*
X347037Y612501D01*
X346948Y612404D01*
X346863Y612305D01*
X346780Y612203D01*
X346700Y612099D01*
X346623Y611992D01*
X346549Y611884D01*
X346478Y611773D01*
X346411Y611660D01*
X346347Y611545D01*
X346286Y611429D01*
X346229Y611311D01*
X346175Y611191D01*
X346125Y611069D01*
X346078Y610947D01*
X346035Y610822D01*
X345996Y610697D01*
X345960Y610571D01*
X345928Y610443D01*
X345899Y610315D01*
X345875Y610186D01*
X345854Y610057D01*
X345837Y609926D01*
X345823Y609796D01*
X345814Y609665D01*
X345808Y609533D01*
X345806Y609402D01*
X345807Y609402D02*
X345807Y602178D01*
X345806Y602178D02*
X345808Y602047D01*
X345814Y601915D01*
X345823Y601784D01*
X345837Y601654D01*
X345854Y601523D01*
X345875Y601394D01*
X345899Y601265D01*
X345928Y601137D01*
X345960Y601009D01*
X345996Y600883D01*
X346035Y600758D01*
X346078Y600633D01*
X346125Y600511D01*
X346175Y600389D01*
X346229Y600269D01*
X346286Y600151D01*
X346347Y600035D01*
X346411Y599920D01*
X346478Y599807D01*
X346549Y599696D01*
X346623Y599588D01*
X346700Y599481D01*
X346780Y599377D01*
X346863Y599275D01*
X346948Y599176D01*
X347037Y599079D01*
X347129Y598985D01*
X347223Y598893D01*
X347320Y598804D01*
X347419Y598719D01*
X347521Y598636D01*
X347625Y598556D01*
X347732Y598479D01*
X347840Y598405D01*
X347951Y598334D01*
X348064Y598267D01*
X348179Y598203D01*
X348295Y598142D01*
X348413Y598085D01*
X348533Y598031D01*
X348655Y597981D01*
X348777Y597934D01*
X348902Y597891D01*
X349027Y597852D01*
X349153Y597816D01*
X349281Y597784D01*
X349409Y597755D01*
X349538Y597731D01*
X349667Y597710D01*
X349798Y597693D01*
X349928Y597679D01*
X350059Y597670D01*
X350191Y597664D01*
X350322Y597662D01*
X354838Y597662D01*
X336115Y597662D02*
X331600Y597662D01*
X336115Y597662D02*
X336216Y597664D01*
X336317Y597670D01*
X336418Y597679D01*
X336519Y597692D01*
X336619Y597709D01*
X336718Y597730D01*
X336816Y597754D01*
X336913Y597782D01*
X337010Y597814D01*
X337105Y597849D01*
X337198Y597888D01*
X337290Y597930D01*
X337381Y597976D01*
X337470Y598025D01*
X337556Y598077D01*
X337641Y598133D01*
X337724Y598191D01*
X337804Y598253D01*
X337882Y598318D01*
X337958Y598385D01*
X338031Y598455D01*
X338101Y598528D01*
X338168Y598604D01*
X338233Y598682D01*
X338295Y598762D01*
X338353Y598845D01*
X338409Y598930D01*
X338461Y599017D01*
X338510Y599105D01*
X338556Y599196D01*
X338598Y599288D01*
X338637Y599381D01*
X338672Y599476D01*
X338704Y599573D01*
X338732Y599670D01*
X338756Y599768D01*
X338777Y599867D01*
X338794Y599967D01*
X338807Y600068D01*
X338816Y600169D01*
X338822Y600270D01*
X338824Y600371D01*
X338825Y600371D02*
X338825Y604887D01*
X338824Y604887D02*
X338822Y605006D01*
X338816Y605126D01*
X338806Y605245D01*
X338792Y605363D01*
X338775Y605482D01*
X338753Y605599D01*
X338728Y605716D01*
X338698Y605831D01*
X338665Y605946D01*
X338628Y606060D01*
X338588Y606172D01*
X338543Y606283D01*
X338495Y606392D01*
X338444Y606500D01*
X338389Y606606D01*
X338330Y606710D01*
X338268Y606812D01*
X338203Y606912D01*
X338134Y607010D01*
X338062Y607106D01*
X337987Y607199D01*
X337910Y607289D01*
X337829Y607377D01*
X337745Y607462D01*
X337658Y607544D01*
X337569Y607624D01*
X337477Y607700D01*
X337383Y607774D01*
X337286Y607844D01*
X337188Y607911D01*
X337087Y607975D01*
X336983Y608035D01*
X336878Y608092D01*
X336771Y608145D01*
X336663Y608195D01*
X336553Y608241D01*
X336441Y608283D01*
X336328Y608322D01*
X336214Y608357D01*
X336099Y608388D01*
X335982Y608416D01*
X335865Y608439D01*
X335748Y608459D01*
X335629Y608475D01*
X335510Y608487D01*
X335391Y608495D01*
X335272Y608499D01*
X335152Y608499D01*
X335033Y608495D01*
X334914Y608487D01*
X334795Y608475D01*
X334676Y608459D01*
X334559Y608439D01*
X334442Y608416D01*
X334325Y608388D01*
X334210Y608357D01*
X334096Y608322D01*
X333983Y608283D01*
X333871Y608241D01*
X333761Y608195D01*
X333653Y608145D01*
X333546Y608092D01*
X333441Y608035D01*
X333337Y607975D01*
X333236Y607911D01*
X333138Y607844D01*
X333041Y607774D01*
X332947Y607700D01*
X332855Y607624D01*
X332766Y607544D01*
X332679Y607462D01*
X332595Y607377D01*
X332514Y607289D01*
X332437Y607199D01*
X332362Y607106D01*
X332290Y607010D01*
X332221Y606912D01*
X332156Y606812D01*
X332094Y606710D01*
X332035Y606606D01*
X331980Y606500D01*
X331929Y606392D01*
X331881Y606283D01*
X331836Y606172D01*
X331796Y606060D01*
X331759Y605946D01*
X331726Y605831D01*
X331696Y605716D01*
X331671Y605599D01*
X331649Y605482D01*
X331632Y605363D01*
X331618Y605245D01*
X331608Y605126D01*
X331602Y605006D01*
X331600Y604887D01*
X331600Y603081D01*
X338825Y603081D01*
X323923Y603984D02*
X319407Y602178D01*
X323923Y603984D02*
X324011Y604021D01*
X324097Y604062D01*
X324182Y604106D01*
X324265Y604154D01*
X324345Y604205D01*
X324424Y604259D01*
X324500Y604317D01*
X324574Y604377D01*
X324646Y604441D01*
X324714Y604507D01*
X324780Y604577D01*
X324843Y604648D01*
X324904Y604723D01*
X324961Y604799D01*
X325014Y604878D01*
X325065Y604959D01*
X325112Y605042D01*
X325156Y605127D01*
X325196Y605214D01*
X325233Y605302D01*
X325266Y605392D01*
X325296Y605483D01*
X325321Y605575D01*
X325343Y605668D01*
X325361Y605762D01*
X325376Y605856D01*
X325386Y605951D01*
X325392Y606047D01*
X325395Y606142D01*
X325394Y606238D01*
X325388Y606333D01*
X325379Y606429D01*
X325366Y606523D01*
X325350Y606617D01*
X325329Y606711D01*
X325304Y606803D01*
X325276Y606894D01*
X325244Y606984D01*
X325209Y607073D01*
X325170Y607160D01*
X325127Y607246D01*
X325081Y607330D01*
X325031Y607411D01*
X324979Y607491D01*
X324923Y607569D01*
X324863Y607644D01*
X324801Y607716D01*
X324736Y607786D01*
X324668Y607854D01*
X324598Y607918D01*
X324525Y607980D01*
X324449Y608038D01*
X324371Y608094D01*
X324291Y608146D01*
X324209Y608195D01*
X324125Y608240D01*
X324039Y608282D01*
X323952Y608321D01*
X323863Y608356D01*
X323772Y608387D01*
X323681Y608414D01*
X323588Y608438D01*
X323495Y608458D01*
X323401Y608474D01*
X323306Y608486D01*
X323211Y608495D01*
X323115Y608499D01*
X323020Y608500D01*
X322773Y608493D01*
X322527Y608481D01*
X322281Y608463D01*
X322035Y608438D01*
X321791Y608408D01*
X321547Y608372D01*
X321304Y608331D01*
X321062Y608283D01*
X320821Y608229D01*
X320582Y608170D01*
X320344Y608105D01*
X320108Y608034D01*
X319873Y607958D01*
X319640Y607876D01*
X319410Y607788D01*
X319182Y607695D01*
X318955Y607597D01*
X319407Y602177D02*
X319319Y602140D01*
X319233Y602099D01*
X319148Y602055D01*
X319065Y602007D01*
X318985Y601956D01*
X318906Y601902D01*
X318830Y601844D01*
X318756Y601784D01*
X318684Y601720D01*
X318616Y601654D01*
X318550Y601584D01*
X318487Y601513D01*
X318426Y601438D01*
X318369Y601362D01*
X318316Y601283D01*
X318265Y601202D01*
X318218Y601119D01*
X318174Y601034D01*
X318134Y600947D01*
X318097Y600859D01*
X318064Y600769D01*
X318034Y600678D01*
X318009Y600586D01*
X317987Y600493D01*
X317969Y600399D01*
X317954Y600305D01*
X317944Y600210D01*
X317938Y600114D01*
X317935Y600019D01*
X317936Y599923D01*
X317942Y599828D01*
X317951Y599732D01*
X317964Y599638D01*
X317980Y599544D01*
X318001Y599450D01*
X318026Y599358D01*
X318054Y599267D01*
X318086Y599177D01*
X318121Y599088D01*
X318160Y599001D01*
X318203Y598915D01*
X318249Y598831D01*
X318299Y598750D01*
X318351Y598670D01*
X318407Y598592D01*
X318467Y598517D01*
X318529Y598445D01*
X318594Y598375D01*
X318662Y598307D01*
X318732Y598243D01*
X318805Y598181D01*
X318881Y598123D01*
X318959Y598067D01*
X319039Y598015D01*
X319121Y597966D01*
X319205Y597921D01*
X319291Y597879D01*
X319378Y597840D01*
X319467Y597805D01*
X319558Y597774D01*
X319649Y597747D01*
X319742Y597723D01*
X319835Y597703D01*
X319929Y597687D01*
X320024Y597675D01*
X320119Y597666D01*
X320215Y597662D01*
X320310Y597661D01*
X320311Y597662D02*
X320673Y597671D01*
X321035Y597689D01*
X321396Y597716D01*
X321756Y597751D01*
X322116Y597794D01*
X322475Y597846D01*
X322832Y597907D01*
X323187Y597976D01*
X323541Y598053D01*
X323893Y598139D01*
X324243Y598233D01*
X324591Y598336D01*
X324936Y598446D01*
X325278Y598565D01*
X311765Y597662D02*
X311765Y608499D01*
X312217Y613015D02*
X312217Y613918D01*
X311314Y613918D01*
X311314Y613015D01*
X312217Y613015D01*
X302842Y597662D02*
X298327Y597662D01*
X302842Y597662D02*
X302943Y597664D01*
X303044Y597670D01*
X303145Y597679D01*
X303246Y597692D01*
X303346Y597709D01*
X303445Y597730D01*
X303543Y597754D01*
X303640Y597782D01*
X303737Y597814D01*
X303832Y597849D01*
X303925Y597888D01*
X304017Y597930D01*
X304108Y597976D01*
X304197Y598025D01*
X304283Y598077D01*
X304368Y598133D01*
X304451Y598191D01*
X304531Y598253D01*
X304609Y598318D01*
X304685Y598385D01*
X304758Y598455D01*
X304828Y598528D01*
X304895Y598604D01*
X304960Y598682D01*
X305022Y598762D01*
X305080Y598845D01*
X305136Y598930D01*
X305188Y599017D01*
X305237Y599105D01*
X305283Y599196D01*
X305325Y599288D01*
X305364Y599381D01*
X305399Y599476D01*
X305431Y599573D01*
X305459Y599670D01*
X305483Y599768D01*
X305504Y599867D01*
X305521Y599967D01*
X305534Y600068D01*
X305543Y600169D01*
X305549Y600270D01*
X305551Y600371D01*
X305551Y605790D01*
X305549Y605891D01*
X305543Y605992D01*
X305534Y606093D01*
X305521Y606194D01*
X305504Y606294D01*
X305483Y606393D01*
X305459Y606491D01*
X305431Y606588D01*
X305399Y606685D01*
X305364Y606780D01*
X305325Y606873D01*
X305283Y606965D01*
X305237Y607056D01*
X305188Y607145D01*
X305136Y607231D01*
X305080Y607316D01*
X305022Y607399D01*
X304960Y607479D01*
X304895Y607557D01*
X304828Y607633D01*
X304758Y607706D01*
X304685Y607776D01*
X304609Y607843D01*
X304531Y607908D01*
X304451Y607970D01*
X304368Y608028D01*
X304283Y608084D01*
X304197Y608136D01*
X304108Y608185D01*
X304017Y608231D01*
X303925Y608273D01*
X303832Y608312D01*
X303737Y608347D01*
X303640Y608379D01*
X303543Y608407D01*
X303445Y608431D01*
X303346Y608452D01*
X303246Y608469D01*
X303145Y608482D01*
X303044Y608491D01*
X302943Y608497D01*
X302842Y608499D01*
X298327Y608499D01*
X298327Y594953D01*
X298329Y594852D01*
X298335Y594751D01*
X298344Y594650D01*
X298357Y594549D01*
X298374Y594449D01*
X298395Y594350D01*
X298419Y594252D01*
X298447Y594155D01*
X298479Y594058D01*
X298514Y593963D01*
X298553Y593870D01*
X298595Y593778D01*
X298641Y593687D01*
X298690Y593599D01*
X298742Y593512D01*
X298798Y593427D01*
X298856Y593344D01*
X298918Y593264D01*
X298983Y593186D01*
X299050Y593110D01*
X299120Y593037D01*
X299193Y592967D01*
X299269Y592900D01*
X299347Y592835D01*
X299427Y592773D01*
X299510Y592715D01*
X299595Y592659D01*
X299682Y592607D01*
X299770Y592558D01*
X299861Y592512D01*
X299953Y592470D01*
X300046Y592431D01*
X300141Y592396D01*
X300238Y592364D01*
X300335Y592336D01*
X300433Y592312D01*
X300532Y592291D01*
X300632Y592274D01*
X300733Y592261D01*
X300834Y592252D01*
X300935Y592246D01*
X301036Y592244D01*
X301036Y592243D02*
X304648Y592243D01*
X290889Y597662D02*
X290889Y608499D01*
X286373Y608499D01*
X286269Y608497D01*
X286166Y608491D01*
X286062Y608481D01*
X285959Y608467D01*
X285857Y608449D01*
X285756Y608428D01*
X285655Y608402D01*
X285556Y608373D01*
X285457Y608340D01*
X285360Y608303D01*
X285265Y608262D01*
X285171Y608218D01*
X285079Y608170D01*
X284989Y608119D01*
X284900Y608064D01*
X284814Y608006D01*
X284731Y607944D01*
X284649Y607880D01*
X284571Y607812D01*
X284495Y607742D01*
X284421Y607669D01*
X284351Y607592D01*
X284283Y607514D01*
X284219Y607432D01*
X284157Y607349D01*
X284099Y607263D01*
X284044Y607174D01*
X283993Y607084D01*
X283945Y606992D01*
X283901Y606898D01*
X283860Y606803D01*
X283823Y606706D01*
X283790Y606607D01*
X283761Y606508D01*
X283735Y606407D01*
X283714Y606306D01*
X283696Y606204D01*
X283682Y606101D01*
X283672Y605997D01*
X283666Y605894D01*
X283664Y605790D01*
X283664Y597662D01*
X274112Y597662D02*
X269596Y597662D01*
X274112Y597662D02*
X274213Y597664D01*
X274314Y597670D01*
X274415Y597679D01*
X274516Y597692D01*
X274616Y597709D01*
X274715Y597730D01*
X274813Y597754D01*
X274910Y597782D01*
X275007Y597814D01*
X275102Y597849D01*
X275195Y597888D01*
X275287Y597930D01*
X275378Y597976D01*
X275467Y598025D01*
X275553Y598077D01*
X275638Y598133D01*
X275721Y598191D01*
X275801Y598253D01*
X275879Y598318D01*
X275955Y598385D01*
X276028Y598455D01*
X276098Y598528D01*
X276165Y598604D01*
X276230Y598682D01*
X276292Y598762D01*
X276350Y598845D01*
X276406Y598930D01*
X276458Y599017D01*
X276507Y599105D01*
X276553Y599196D01*
X276595Y599288D01*
X276634Y599381D01*
X276669Y599476D01*
X276701Y599573D01*
X276729Y599670D01*
X276753Y599768D01*
X276774Y599867D01*
X276791Y599967D01*
X276804Y600068D01*
X276813Y600169D01*
X276819Y600270D01*
X276821Y600371D01*
X276821Y604887D01*
X276820Y604887D02*
X276818Y605006D01*
X276812Y605126D01*
X276802Y605245D01*
X276788Y605363D01*
X276771Y605482D01*
X276749Y605599D01*
X276724Y605716D01*
X276694Y605831D01*
X276661Y605946D01*
X276624Y606060D01*
X276584Y606172D01*
X276539Y606283D01*
X276491Y606392D01*
X276440Y606500D01*
X276385Y606606D01*
X276326Y606710D01*
X276264Y606812D01*
X276199Y606912D01*
X276130Y607010D01*
X276058Y607106D01*
X275983Y607199D01*
X275906Y607289D01*
X275825Y607377D01*
X275741Y607462D01*
X275654Y607544D01*
X275565Y607624D01*
X275473Y607700D01*
X275379Y607774D01*
X275282Y607844D01*
X275184Y607911D01*
X275083Y607975D01*
X274979Y608035D01*
X274874Y608092D01*
X274767Y608145D01*
X274659Y608195D01*
X274549Y608241D01*
X274437Y608283D01*
X274324Y608322D01*
X274210Y608357D01*
X274095Y608388D01*
X273978Y608416D01*
X273861Y608439D01*
X273744Y608459D01*
X273625Y608475D01*
X273506Y608487D01*
X273387Y608495D01*
X273268Y608499D01*
X273148Y608499D01*
X273029Y608495D01*
X272910Y608487D01*
X272791Y608475D01*
X272672Y608459D01*
X272555Y608439D01*
X272438Y608416D01*
X272321Y608388D01*
X272206Y608357D01*
X272092Y608322D01*
X271979Y608283D01*
X271867Y608241D01*
X271757Y608195D01*
X271649Y608145D01*
X271542Y608092D01*
X271437Y608035D01*
X271333Y607975D01*
X271232Y607911D01*
X271134Y607844D01*
X271037Y607774D01*
X270943Y607700D01*
X270851Y607624D01*
X270762Y607544D01*
X270675Y607462D01*
X270591Y607377D01*
X270510Y607289D01*
X270433Y607199D01*
X270358Y607106D01*
X270286Y607010D01*
X270217Y606912D01*
X270152Y606812D01*
X270090Y606710D01*
X270031Y606606D01*
X269976Y606500D01*
X269925Y606392D01*
X269877Y606283D01*
X269832Y606172D01*
X269792Y606060D01*
X269755Y605946D01*
X269722Y605831D01*
X269692Y605716D01*
X269667Y605599D01*
X269645Y605482D01*
X269628Y605363D01*
X269614Y605245D01*
X269604Y605126D01*
X269598Y605006D01*
X269596Y604887D01*
X269596Y603081D01*
X276821Y603081D01*
X256122Y597662D02*
X256122Y613918D01*
X256122Y597662D02*
X260638Y597662D01*
X260739Y597664D01*
X260840Y597670D01*
X260941Y597679D01*
X261042Y597692D01*
X261142Y597709D01*
X261241Y597730D01*
X261339Y597754D01*
X261436Y597782D01*
X261533Y597814D01*
X261628Y597849D01*
X261721Y597888D01*
X261813Y597930D01*
X261904Y597976D01*
X261993Y598025D01*
X262079Y598077D01*
X262164Y598133D01*
X262247Y598191D01*
X262327Y598253D01*
X262405Y598318D01*
X262481Y598385D01*
X262554Y598455D01*
X262624Y598528D01*
X262691Y598604D01*
X262756Y598682D01*
X262818Y598762D01*
X262876Y598845D01*
X262932Y598930D01*
X262984Y599017D01*
X263033Y599105D01*
X263079Y599196D01*
X263121Y599288D01*
X263160Y599381D01*
X263195Y599476D01*
X263227Y599573D01*
X263255Y599670D01*
X263279Y599768D01*
X263300Y599867D01*
X263317Y599967D01*
X263330Y600068D01*
X263339Y600169D01*
X263345Y600270D01*
X263347Y600371D01*
X263347Y605790D01*
X263345Y605891D01*
X263339Y605992D01*
X263330Y606093D01*
X263317Y606194D01*
X263300Y606294D01*
X263279Y606393D01*
X263255Y606491D01*
X263227Y606588D01*
X263195Y606685D01*
X263160Y606780D01*
X263121Y606873D01*
X263079Y606965D01*
X263033Y607056D01*
X262984Y607145D01*
X262932Y607231D01*
X262876Y607316D01*
X262818Y607399D01*
X262756Y607479D01*
X262691Y607557D01*
X262624Y607633D01*
X262554Y607706D01*
X262481Y607776D01*
X262405Y607843D01*
X262327Y607908D01*
X262247Y607970D01*
X262164Y608028D01*
X262079Y608084D01*
X261993Y608136D01*
X261904Y608185D01*
X261813Y608231D01*
X261721Y608273D01*
X261628Y608312D01*
X261533Y608347D01*
X261436Y608379D01*
X261339Y608407D01*
X261241Y608431D01*
X261142Y608452D01*
X261042Y608469D01*
X260941Y608482D01*
X260840Y608491D01*
X260739Y608497D01*
X260638Y608499D01*
X256122Y608499D01*
X240275Y613918D02*
X240275Y597662D01*
X235759Y597662D01*
X235655Y597664D01*
X235552Y597670D01*
X235448Y597680D01*
X235345Y597694D01*
X235243Y597712D01*
X235142Y597733D01*
X235041Y597759D01*
X234942Y597788D01*
X234843Y597821D01*
X234746Y597858D01*
X234651Y597899D01*
X234557Y597943D01*
X234465Y597991D01*
X234375Y598042D01*
X234286Y598097D01*
X234200Y598155D01*
X234117Y598217D01*
X234035Y598281D01*
X233957Y598349D01*
X233881Y598419D01*
X233807Y598492D01*
X233737Y598569D01*
X233669Y598647D01*
X233605Y598729D01*
X233543Y598812D01*
X233485Y598898D01*
X233430Y598987D01*
X233379Y599077D01*
X233331Y599169D01*
X233287Y599263D01*
X233246Y599358D01*
X233209Y599455D01*
X233176Y599554D01*
X233147Y599653D01*
X233121Y599754D01*
X233100Y599855D01*
X233082Y599957D01*
X233068Y600060D01*
X233058Y600164D01*
X233052Y600267D01*
X233050Y600371D01*
X233050Y605790D01*
X233052Y605891D01*
X233058Y605992D01*
X233067Y606093D01*
X233080Y606194D01*
X233097Y606294D01*
X233118Y606393D01*
X233142Y606491D01*
X233170Y606588D01*
X233202Y606685D01*
X233237Y606780D01*
X233276Y606873D01*
X233318Y606965D01*
X233364Y607056D01*
X233413Y607145D01*
X233465Y607231D01*
X233521Y607316D01*
X233579Y607399D01*
X233641Y607479D01*
X233706Y607557D01*
X233773Y607633D01*
X233843Y607706D01*
X233916Y607776D01*
X233992Y607843D01*
X234070Y607908D01*
X234150Y607970D01*
X234233Y608028D01*
X234318Y608084D01*
X234405Y608136D01*
X234493Y608185D01*
X234584Y608231D01*
X234676Y608273D01*
X234769Y608312D01*
X234864Y608347D01*
X234961Y608379D01*
X235058Y608407D01*
X235156Y608431D01*
X235255Y608452D01*
X235355Y608469D01*
X235456Y608482D01*
X235557Y608491D01*
X235658Y608497D01*
X235759Y608499D01*
X240275Y608499D01*
X227322Y592243D02*
X225516Y592243D01*
X220097Y608499D01*
X227322Y608499D02*
X223710Y597662D01*
X198978Y606693D02*
X196268Y606693D01*
X196268Y597662D01*
X201687Y597662D01*
X201805Y597664D01*
X201923Y597670D01*
X202041Y597679D01*
X202158Y597693D01*
X202275Y597710D01*
X202392Y597731D01*
X202507Y597756D01*
X202622Y597785D01*
X202736Y597818D01*
X202848Y597854D01*
X202959Y597894D01*
X203069Y597937D01*
X203178Y597984D01*
X203285Y598034D01*
X203390Y598089D01*
X203493Y598146D01*
X203594Y598207D01*
X203694Y598271D01*
X203791Y598338D01*
X203886Y598408D01*
X203978Y598482D01*
X204069Y598558D01*
X204156Y598638D01*
X204241Y598720D01*
X204323Y598805D01*
X204403Y598892D01*
X204479Y598983D01*
X204553Y599075D01*
X204623Y599170D01*
X204690Y599267D01*
X204754Y599367D01*
X204815Y599468D01*
X204872Y599571D01*
X204927Y599676D01*
X204977Y599783D01*
X205024Y599892D01*
X205067Y600002D01*
X205107Y600113D01*
X205143Y600225D01*
X205176Y600339D01*
X205205Y600454D01*
X205230Y600569D01*
X205251Y600686D01*
X205268Y600803D01*
X205282Y600920D01*
X205291Y601038D01*
X205297Y601156D01*
X205299Y601274D01*
X205299Y610306D01*
X205297Y610424D01*
X205291Y610542D01*
X205282Y610660D01*
X205268Y610777D01*
X205251Y610894D01*
X205230Y611011D01*
X205205Y611126D01*
X205176Y611241D01*
X205143Y611355D01*
X205107Y611467D01*
X205067Y611578D01*
X205024Y611688D01*
X204977Y611797D01*
X204927Y611904D01*
X204872Y612009D01*
X204815Y612112D01*
X204754Y612213D01*
X204690Y612313D01*
X204623Y612410D01*
X204553Y612505D01*
X204479Y612597D01*
X204403Y612688D01*
X204323Y612775D01*
X204241Y612860D01*
X204156Y612942D01*
X204069Y613022D01*
X203978Y613098D01*
X203886Y613172D01*
X203791Y613242D01*
X203694Y613309D01*
X203594Y613373D01*
X203493Y613434D01*
X203390Y613491D01*
X203285Y613546D01*
X203178Y613596D01*
X203069Y613643D01*
X202959Y613686D01*
X202848Y613726D01*
X202736Y613762D01*
X202622Y613795D01*
X202507Y613824D01*
X202392Y613849D01*
X202275Y613870D01*
X202158Y613887D01*
X202041Y613901D01*
X201923Y613910D01*
X201805Y613916D01*
X201687Y613918D01*
X196268Y613918D01*
X188415Y613918D02*
X188415Y597662D01*
X188415Y613918D02*
X183900Y613918D01*
X183767Y613916D01*
X183635Y613910D01*
X183503Y613900D01*
X183371Y613887D01*
X183239Y613869D01*
X183109Y613848D01*
X182978Y613823D01*
X182849Y613794D01*
X182721Y613761D01*
X182593Y613725D01*
X182467Y613685D01*
X182342Y613641D01*
X182218Y613593D01*
X182096Y613542D01*
X181975Y613487D01*
X181856Y613429D01*
X181738Y613367D01*
X181623Y613302D01*
X181509Y613233D01*
X181398Y613162D01*
X181289Y613086D01*
X181182Y613008D01*
X181077Y612927D01*
X180975Y612842D01*
X180875Y612755D01*
X180778Y612665D01*
X180683Y612572D01*
X180592Y612476D01*
X180503Y612378D01*
X180417Y612277D01*
X180334Y612173D01*
X180254Y612067D01*
X180178Y611959D01*
X180104Y611849D01*
X180034Y611736D01*
X179967Y611622D01*
X179904Y611505D01*
X179844Y611387D01*
X179787Y611267D01*
X179734Y611145D01*
X179685Y611022D01*
X179639Y610898D01*
X179597Y610772D01*
X179559Y610645D01*
X179524Y610517D01*
X179493Y610388D01*
X179466Y610259D01*
X179443Y610128D01*
X179423Y609997D01*
X179408Y609865D01*
X179396Y609733D01*
X179388Y609601D01*
X179384Y609468D01*
X179384Y609336D01*
X179388Y609203D01*
X179396Y609071D01*
X179408Y608939D01*
X179423Y608807D01*
X179443Y608676D01*
X179466Y608545D01*
X179493Y608416D01*
X179524Y608287D01*
X179559Y608159D01*
X179597Y608032D01*
X179639Y607906D01*
X179685Y607782D01*
X179734Y607659D01*
X179787Y607537D01*
X179844Y607417D01*
X179904Y607299D01*
X179967Y607182D01*
X180034Y607068D01*
X180104Y606955D01*
X180178Y606845D01*
X180254Y606737D01*
X180334Y606631D01*
X180417Y606527D01*
X180503Y606426D01*
X180592Y606328D01*
X180683Y606232D01*
X180778Y606139D01*
X180875Y606049D01*
X180975Y605962D01*
X181077Y605877D01*
X181182Y605796D01*
X181289Y605718D01*
X181398Y605642D01*
X181509Y605571D01*
X181623Y605502D01*
X181738Y605437D01*
X181856Y605375D01*
X181975Y605317D01*
X182096Y605262D01*
X182218Y605211D01*
X182342Y605163D01*
X182467Y605119D01*
X182593Y605079D01*
X182721Y605043D01*
X182849Y605010D01*
X182978Y604981D01*
X183109Y604956D01*
X183239Y604935D01*
X183371Y604917D01*
X183503Y604904D01*
X183635Y604894D01*
X183767Y604888D01*
X183900Y604886D01*
X183900Y604887D02*
X188415Y604887D01*
X172784Y597662D02*
X172784Y613918D01*
X168268Y613918D01*
X168135Y613916D01*
X168003Y613910D01*
X167871Y613900D01*
X167739Y613887D01*
X167607Y613869D01*
X167477Y613848D01*
X167346Y613823D01*
X167217Y613794D01*
X167089Y613761D01*
X166961Y613725D01*
X166835Y613685D01*
X166710Y613641D01*
X166586Y613593D01*
X166464Y613542D01*
X166343Y613487D01*
X166224Y613429D01*
X166106Y613367D01*
X165991Y613302D01*
X165877Y613233D01*
X165766Y613162D01*
X165657Y613086D01*
X165550Y613008D01*
X165445Y612927D01*
X165343Y612842D01*
X165243Y612755D01*
X165146Y612665D01*
X165051Y612572D01*
X164960Y612476D01*
X164871Y612378D01*
X164785Y612277D01*
X164702Y612173D01*
X164622Y612067D01*
X164546Y611959D01*
X164472Y611849D01*
X164402Y611736D01*
X164335Y611622D01*
X164272Y611505D01*
X164212Y611387D01*
X164155Y611267D01*
X164102Y611145D01*
X164053Y611022D01*
X164007Y610898D01*
X163965Y610772D01*
X163927Y610645D01*
X163892Y610517D01*
X163861Y610388D01*
X163834Y610259D01*
X163811Y610128D01*
X163791Y609997D01*
X163776Y609865D01*
X163764Y609733D01*
X163756Y609601D01*
X163752Y609468D01*
X163752Y609336D01*
X163756Y609203D01*
X163764Y609071D01*
X163776Y608939D01*
X163791Y608807D01*
X163811Y608676D01*
X163834Y608545D01*
X163861Y608416D01*
X163892Y608287D01*
X163927Y608159D01*
X163965Y608032D01*
X164007Y607906D01*
X164053Y607782D01*
X164102Y607659D01*
X164155Y607537D01*
X164212Y607417D01*
X164272Y607299D01*
X164335Y607182D01*
X164402Y607068D01*
X164472Y606955D01*
X164546Y606845D01*
X164622Y606737D01*
X164702Y606631D01*
X164785Y606527D01*
X164871Y606426D01*
X164960Y606328D01*
X165051Y606232D01*
X165146Y606139D01*
X165243Y606049D01*
X165343Y605962D01*
X165445Y605877D01*
X165550Y605796D01*
X165657Y605718D01*
X165766Y605642D01*
X165877Y605571D01*
X165991Y605502D01*
X166106Y605437D01*
X166224Y605375D01*
X166343Y605317D01*
X166464Y605262D01*
X166586Y605211D01*
X166710Y605163D01*
X166835Y605119D01*
X166961Y605079D01*
X167089Y605043D01*
X167217Y605010D01*
X167346Y604981D01*
X167477Y604956D01*
X167607Y604935D01*
X167739Y604917D01*
X167871Y604904D01*
X168003Y604894D01*
X168135Y604888D01*
X168268Y604886D01*
X168268Y604887D02*
X172784Y604887D01*
X157153Y597662D02*
X157153Y613918D01*
X148122Y613918D02*
X157153Y603984D01*
X153540Y607596D02*
X148122Y597662D01*
X481838Y462788D02*
X481838Y446532D01*
X481838Y462788D02*
X477322Y462788D01*
X477191Y462786D01*
X477059Y462780D01*
X476928Y462771D01*
X476798Y462757D01*
X476667Y462740D01*
X476538Y462719D01*
X476409Y462695D01*
X476281Y462666D01*
X476153Y462634D01*
X476027Y462598D01*
X475902Y462559D01*
X475777Y462516D01*
X475655Y462469D01*
X475533Y462419D01*
X475413Y462365D01*
X475295Y462308D01*
X475179Y462247D01*
X475064Y462183D01*
X474951Y462116D01*
X474840Y462045D01*
X474732Y461971D01*
X474625Y461894D01*
X474521Y461814D01*
X474419Y461731D01*
X474320Y461646D01*
X474223Y461557D01*
X474129Y461465D01*
X474037Y461371D01*
X473948Y461274D01*
X473863Y461175D01*
X473780Y461073D01*
X473700Y460969D01*
X473623Y460862D01*
X473549Y460754D01*
X473478Y460643D01*
X473411Y460530D01*
X473347Y460415D01*
X473286Y460299D01*
X473229Y460181D01*
X473175Y460061D01*
X473125Y459939D01*
X473078Y459817D01*
X473035Y459692D01*
X472996Y459567D01*
X472960Y459441D01*
X472928Y459313D01*
X472899Y459185D01*
X472875Y459056D01*
X472854Y458927D01*
X472837Y458796D01*
X472823Y458666D01*
X472814Y458535D01*
X472808Y458403D01*
X472806Y458272D01*
X472807Y458272D02*
X472807Y451048D01*
X472806Y451048D02*
X472808Y450917D01*
X472814Y450785D01*
X472823Y450654D01*
X472837Y450524D01*
X472854Y450393D01*
X472875Y450264D01*
X472899Y450135D01*
X472928Y450007D01*
X472960Y449879D01*
X472996Y449753D01*
X473035Y449628D01*
X473078Y449503D01*
X473125Y449381D01*
X473175Y449259D01*
X473229Y449139D01*
X473286Y449021D01*
X473347Y448905D01*
X473411Y448790D01*
X473478Y448677D01*
X473549Y448566D01*
X473623Y448458D01*
X473700Y448351D01*
X473780Y448247D01*
X473863Y448145D01*
X473948Y448046D01*
X474037Y447949D01*
X474129Y447855D01*
X474223Y447763D01*
X474320Y447674D01*
X474419Y447589D01*
X474521Y447506D01*
X474625Y447426D01*
X474732Y447349D01*
X474840Y447275D01*
X474951Y447204D01*
X475064Y447137D01*
X475179Y447073D01*
X475295Y447012D01*
X475413Y446955D01*
X475533Y446901D01*
X475655Y446851D01*
X475777Y446804D01*
X475902Y446761D01*
X476027Y446722D01*
X476153Y446686D01*
X476281Y446654D01*
X476409Y446625D01*
X476538Y446601D01*
X476667Y446580D01*
X476798Y446563D01*
X476928Y446549D01*
X477059Y446540D01*
X477191Y446534D01*
X477322Y446532D01*
X481838Y446532D01*
X465860Y446532D02*
X465860Y457369D01*
X466311Y461885D02*
X466311Y462788D01*
X465408Y462788D01*
X465408Y461885D01*
X466311Y461885D01*
X456936Y446532D02*
X452421Y446532D01*
X456936Y446532D02*
X457037Y446534D01*
X457138Y446540D01*
X457239Y446549D01*
X457340Y446562D01*
X457440Y446579D01*
X457539Y446600D01*
X457637Y446624D01*
X457734Y446652D01*
X457831Y446684D01*
X457926Y446719D01*
X458019Y446758D01*
X458111Y446800D01*
X458202Y446846D01*
X458291Y446895D01*
X458377Y446947D01*
X458462Y447003D01*
X458545Y447061D01*
X458625Y447123D01*
X458703Y447188D01*
X458779Y447255D01*
X458852Y447325D01*
X458922Y447398D01*
X458989Y447474D01*
X459054Y447552D01*
X459116Y447632D01*
X459174Y447715D01*
X459230Y447800D01*
X459282Y447887D01*
X459331Y447975D01*
X459377Y448066D01*
X459419Y448158D01*
X459458Y448251D01*
X459493Y448346D01*
X459525Y448443D01*
X459553Y448540D01*
X459577Y448638D01*
X459598Y448737D01*
X459615Y448837D01*
X459628Y448938D01*
X459637Y449039D01*
X459643Y449140D01*
X459645Y449241D01*
X459646Y449241D02*
X459646Y454660D01*
X459645Y454660D02*
X459643Y454761D01*
X459637Y454862D01*
X459628Y454963D01*
X459615Y455064D01*
X459598Y455164D01*
X459577Y455263D01*
X459553Y455361D01*
X459525Y455458D01*
X459493Y455555D01*
X459458Y455650D01*
X459419Y455743D01*
X459377Y455835D01*
X459331Y455926D01*
X459282Y456015D01*
X459230Y456101D01*
X459174Y456186D01*
X459116Y456269D01*
X459054Y456349D01*
X458989Y456427D01*
X458922Y456503D01*
X458852Y456576D01*
X458779Y456646D01*
X458703Y456713D01*
X458625Y456778D01*
X458545Y456840D01*
X458462Y456898D01*
X458377Y456954D01*
X458291Y457006D01*
X458202Y457055D01*
X458111Y457101D01*
X458019Y457143D01*
X457926Y457182D01*
X457831Y457217D01*
X457734Y457249D01*
X457637Y457277D01*
X457539Y457301D01*
X457440Y457322D01*
X457340Y457339D01*
X457239Y457352D01*
X457138Y457361D01*
X457037Y457367D01*
X456936Y457369D01*
X452421Y457369D01*
X452421Y443823D01*
X452423Y443722D01*
X452429Y443621D01*
X452438Y443520D01*
X452451Y443419D01*
X452468Y443319D01*
X452489Y443220D01*
X452513Y443122D01*
X452541Y443025D01*
X452573Y442928D01*
X452608Y442833D01*
X452647Y442740D01*
X452689Y442648D01*
X452735Y442557D01*
X452784Y442469D01*
X452836Y442382D01*
X452892Y442297D01*
X452950Y442214D01*
X453012Y442134D01*
X453077Y442056D01*
X453144Y441980D01*
X453214Y441907D01*
X453287Y441837D01*
X453363Y441770D01*
X453441Y441705D01*
X453521Y441643D01*
X453604Y441585D01*
X453689Y441529D01*
X453776Y441477D01*
X453864Y441428D01*
X453955Y441382D01*
X454047Y441340D01*
X454140Y441301D01*
X454235Y441266D01*
X454332Y441234D01*
X454429Y441206D01*
X454527Y441182D01*
X454626Y441161D01*
X454726Y441144D01*
X454827Y441131D01*
X454928Y441122D01*
X455029Y441116D01*
X455130Y441114D01*
X455130Y441113D02*
X458742Y441113D01*
X445539Y446532D02*
X445539Y457369D01*
X445991Y461885D02*
X445991Y462788D01*
X445087Y462788D01*
X445087Y461885D01*
X445991Y461885D01*
X434215Y446532D02*
X434097Y446534D01*
X433979Y446540D01*
X433861Y446549D01*
X433744Y446563D01*
X433627Y446580D01*
X433510Y446601D01*
X433395Y446626D01*
X433280Y446655D01*
X433166Y446688D01*
X433054Y446724D01*
X432943Y446764D01*
X432833Y446807D01*
X432724Y446854D01*
X432617Y446904D01*
X432512Y446959D01*
X432409Y447016D01*
X432308Y447077D01*
X432208Y447141D01*
X432111Y447208D01*
X432016Y447278D01*
X431924Y447352D01*
X431833Y447428D01*
X431746Y447508D01*
X431661Y447590D01*
X431579Y447675D01*
X431499Y447762D01*
X431423Y447853D01*
X431349Y447945D01*
X431279Y448040D01*
X431212Y448137D01*
X431148Y448237D01*
X431087Y448338D01*
X431030Y448441D01*
X430975Y448546D01*
X430925Y448653D01*
X430878Y448762D01*
X430835Y448872D01*
X430795Y448983D01*
X430759Y449095D01*
X430726Y449209D01*
X430697Y449324D01*
X430672Y449439D01*
X430651Y449556D01*
X430634Y449673D01*
X430620Y449790D01*
X430611Y449908D01*
X430605Y450026D01*
X430603Y450144D01*
X434215Y446532D02*
X434398Y446534D01*
X434580Y446541D01*
X434762Y446552D01*
X434944Y446567D01*
X435126Y446587D01*
X435307Y446611D01*
X435487Y446639D01*
X435667Y446671D01*
X435846Y446708D01*
X436023Y446749D01*
X436200Y446795D01*
X436376Y446844D01*
X436551Y446898D01*
X436724Y446956D01*
X436895Y447018D01*
X437066Y447084D01*
X437234Y447155D01*
X437401Y447229D01*
X437566Y447307D01*
X437729Y447389D01*
X437890Y447475D01*
X438049Y447565D01*
X438206Y447659D01*
X438360Y447756D01*
X438512Y447857D01*
X438662Y447962D01*
X438809Y448070D01*
X438953Y448181D01*
X439095Y448296D01*
X439234Y448415D01*
X439370Y448537D01*
X439503Y448662D01*
X439633Y448790D01*
X439182Y459176D02*
X439180Y459294D01*
X439174Y459412D01*
X439165Y459530D01*
X439151Y459647D01*
X439134Y459764D01*
X439113Y459881D01*
X439088Y459996D01*
X439059Y460111D01*
X439026Y460225D01*
X438990Y460337D01*
X438950Y460448D01*
X438907Y460558D01*
X438860Y460667D01*
X438810Y460774D01*
X438755Y460879D01*
X438698Y460982D01*
X438637Y461083D01*
X438573Y461183D01*
X438506Y461280D01*
X438436Y461375D01*
X438362Y461467D01*
X438286Y461558D01*
X438206Y461645D01*
X438124Y461730D01*
X438039Y461812D01*
X437952Y461892D01*
X437861Y461968D01*
X437769Y462042D01*
X437674Y462112D01*
X437577Y462179D01*
X437477Y462243D01*
X437376Y462304D01*
X437273Y462361D01*
X437168Y462416D01*
X437061Y462466D01*
X436952Y462513D01*
X436842Y462556D01*
X436731Y462596D01*
X436619Y462632D01*
X436505Y462665D01*
X436390Y462694D01*
X436275Y462719D01*
X436158Y462740D01*
X436041Y462757D01*
X435924Y462771D01*
X435806Y462780D01*
X435688Y462786D01*
X435570Y462788D01*
X435409Y462786D01*
X435247Y462780D01*
X435086Y462771D01*
X434925Y462757D01*
X434765Y462740D01*
X434605Y462719D01*
X434445Y462694D01*
X434286Y462665D01*
X434128Y462633D01*
X433971Y462597D01*
X433815Y462557D01*
X433659Y462513D01*
X433505Y462465D01*
X433352Y462414D01*
X433200Y462360D01*
X433049Y462301D01*
X432900Y462240D01*
X432753Y462174D01*
X432607Y462105D01*
X432462Y462033D01*
X432320Y461957D01*
X432179Y461878D01*
X432040Y461796D01*
X431904Y461710D01*
X431769Y461621D01*
X431636Y461529D01*
X431506Y461433D01*
X437376Y456015D02*
X437477Y456077D01*
X437577Y456142D01*
X437674Y456211D01*
X437769Y456283D01*
X437862Y456357D01*
X437952Y456435D01*
X438040Y456516D01*
X438125Y456599D01*
X438207Y456685D01*
X438286Y456774D01*
X438363Y456865D01*
X438436Y456959D01*
X438507Y457055D01*
X438574Y457153D01*
X438638Y457253D01*
X438699Y457356D01*
X438756Y457460D01*
X438810Y457566D01*
X438860Y457674D01*
X438907Y457783D01*
X438951Y457894D01*
X438991Y458006D01*
X439027Y458120D01*
X439059Y458234D01*
X439088Y458350D01*
X439113Y458466D01*
X439134Y458583D01*
X439151Y458701D01*
X439165Y458819D01*
X439174Y458938D01*
X439180Y459057D01*
X439182Y459176D01*
X432408Y453305D02*
X432307Y453243D01*
X432207Y453178D01*
X432110Y453109D01*
X432015Y453037D01*
X431922Y452963D01*
X431832Y452885D01*
X431744Y452804D01*
X431659Y452721D01*
X431577Y452635D01*
X431498Y452546D01*
X431421Y452455D01*
X431348Y452361D01*
X431277Y452265D01*
X431210Y452167D01*
X431146Y452067D01*
X431085Y451964D01*
X431028Y451860D01*
X430974Y451754D01*
X430924Y451646D01*
X430877Y451537D01*
X430833Y451426D01*
X430793Y451314D01*
X430757Y451200D01*
X430725Y451086D01*
X430696Y450970D01*
X430671Y450854D01*
X430650Y450737D01*
X430633Y450619D01*
X430619Y450501D01*
X430610Y450382D01*
X430604Y450263D01*
X430602Y450144D01*
X432409Y453305D02*
X437376Y456015D01*
X424068Y457369D02*
X424068Y441113D01*
X424068Y457369D02*
X419553Y457369D01*
X419449Y457367D01*
X419346Y457361D01*
X419242Y457351D01*
X419139Y457337D01*
X419037Y457319D01*
X418936Y457298D01*
X418835Y457272D01*
X418736Y457243D01*
X418637Y457210D01*
X418540Y457173D01*
X418445Y457132D01*
X418351Y457088D01*
X418259Y457040D01*
X418169Y456989D01*
X418080Y456934D01*
X417994Y456876D01*
X417911Y456814D01*
X417829Y456750D01*
X417751Y456682D01*
X417675Y456612D01*
X417601Y456539D01*
X417531Y456462D01*
X417463Y456384D01*
X417399Y456302D01*
X417337Y456219D01*
X417279Y456133D01*
X417224Y456044D01*
X417173Y455954D01*
X417125Y455862D01*
X417081Y455768D01*
X417040Y455673D01*
X417003Y455576D01*
X416970Y455477D01*
X416941Y455378D01*
X416915Y455277D01*
X416894Y455176D01*
X416876Y455074D01*
X416862Y454971D01*
X416852Y454867D01*
X416846Y454764D01*
X416844Y454660D01*
X416843Y454660D02*
X416843Y449241D01*
X416844Y449241D02*
X416846Y449140D01*
X416852Y449039D01*
X416861Y448938D01*
X416874Y448837D01*
X416891Y448737D01*
X416912Y448638D01*
X416936Y448540D01*
X416964Y448443D01*
X416996Y448346D01*
X417031Y448251D01*
X417070Y448158D01*
X417112Y448066D01*
X417158Y447975D01*
X417207Y447886D01*
X417259Y447800D01*
X417315Y447715D01*
X417373Y447632D01*
X417435Y447552D01*
X417500Y447474D01*
X417567Y447398D01*
X417637Y447325D01*
X417710Y447255D01*
X417786Y447188D01*
X417864Y447123D01*
X417944Y447061D01*
X418027Y447003D01*
X418112Y446947D01*
X418199Y446895D01*
X418287Y446846D01*
X418378Y446800D01*
X418470Y446758D01*
X418563Y446719D01*
X418658Y446684D01*
X418755Y446652D01*
X418852Y446624D01*
X418950Y446600D01*
X419049Y446579D01*
X419149Y446562D01*
X419250Y446549D01*
X419351Y446540D01*
X419452Y446534D01*
X419553Y446532D01*
X424068Y446532D01*
X407507Y452854D02*
X403443Y452854D01*
X407507Y452854D02*
X407619Y452852D01*
X407730Y452846D01*
X407841Y452836D01*
X407952Y452823D01*
X408062Y452805D01*
X408171Y452783D01*
X408280Y452758D01*
X408388Y452729D01*
X408494Y452696D01*
X408600Y452659D01*
X408704Y452619D01*
X408806Y452575D01*
X408907Y452527D01*
X409006Y452476D01*
X409104Y452421D01*
X409199Y452363D01*
X409292Y452302D01*
X409383Y452237D01*
X409472Y452169D01*
X409558Y452098D01*
X409641Y452025D01*
X409722Y451948D01*
X409801Y451868D01*
X409876Y451786D01*
X409948Y451701D01*
X410018Y451614D01*
X410084Y451524D01*
X410147Y451432D01*
X410207Y451337D01*
X410263Y451241D01*
X410316Y451143D01*
X410365Y451043D01*
X410411Y450941D01*
X410453Y450838D01*
X410492Y450733D01*
X410527Y450627D01*
X410558Y450520D01*
X410585Y450412D01*
X410609Y450303D01*
X410628Y450193D01*
X410644Y450083D01*
X410656Y449972D01*
X410664Y449860D01*
X410668Y449749D01*
X410668Y449637D01*
X410664Y449526D01*
X410656Y449414D01*
X410644Y449303D01*
X410628Y449193D01*
X410609Y449083D01*
X410585Y448974D01*
X410558Y448866D01*
X410527Y448759D01*
X410492Y448653D01*
X410453Y448548D01*
X410411Y448445D01*
X410365Y448343D01*
X410316Y448243D01*
X410263Y448145D01*
X410207Y448049D01*
X410147Y447954D01*
X410084Y447862D01*
X410018Y447772D01*
X409948Y447685D01*
X409876Y447600D01*
X409801Y447518D01*
X409722Y447438D01*
X409641Y447361D01*
X409558Y447288D01*
X409472Y447217D01*
X409383Y447149D01*
X409292Y447084D01*
X409199Y447023D01*
X409104Y446965D01*
X409006Y446910D01*
X408907Y446859D01*
X408806Y446811D01*
X408704Y446767D01*
X408600Y446727D01*
X408494Y446690D01*
X408388Y446657D01*
X408280Y446628D01*
X408171Y446603D01*
X408062Y446581D01*
X407952Y446563D01*
X407841Y446550D01*
X407730Y446540D01*
X407619Y446534D01*
X407507Y446532D01*
X403443Y446532D01*
X403443Y454660D01*
X403445Y454761D01*
X403451Y454862D01*
X403460Y454963D01*
X403473Y455064D01*
X403490Y455164D01*
X403511Y455263D01*
X403535Y455361D01*
X403563Y455458D01*
X403595Y455555D01*
X403630Y455650D01*
X403669Y455743D01*
X403711Y455835D01*
X403757Y455926D01*
X403806Y456015D01*
X403858Y456101D01*
X403914Y456186D01*
X403972Y456269D01*
X404034Y456349D01*
X404099Y456427D01*
X404166Y456503D01*
X404236Y456576D01*
X404309Y456646D01*
X404385Y456713D01*
X404463Y456778D01*
X404543Y456840D01*
X404626Y456898D01*
X404711Y456954D01*
X404798Y457006D01*
X404886Y457055D01*
X404977Y457101D01*
X405069Y457143D01*
X405162Y457182D01*
X405257Y457217D01*
X405354Y457249D01*
X405451Y457277D01*
X405549Y457301D01*
X405648Y457322D01*
X405748Y457339D01*
X405849Y457352D01*
X405950Y457361D01*
X406051Y457367D01*
X406152Y457369D01*
X409765Y457369D01*
X395920Y457369D02*
X395920Y446532D01*
X395920Y457369D02*
X390502Y457369D01*
X390502Y455563D01*
X384895Y462788D02*
X384895Y446532D01*
X384895Y451951D02*
X377670Y457369D01*
X381734Y454208D02*
X377670Y446532D01*
X476419Y436118D02*
X481838Y419862D01*
X471001Y419862D02*
X476419Y436118D01*
X472355Y423926D02*
X480483Y423926D01*
X464837Y419862D02*
X464837Y430699D01*
X459418Y430699D01*
X459418Y428893D01*
X451791Y419862D02*
X447276Y419862D01*
X451791Y419862D02*
X451892Y419864D01*
X451993Y419870D01*
X452094Y419879D01*
X452195Y419892D01*
X452295Y419909D01*
X452394Y419930D01*
X452492Y419954D01*
X452589Y419982D01*
X452686Y420014D01*
X452781Y420049D01*
X452874Y420088D01*
X452966Y420130D01*
X453057Y420176D01*
X453146Y420225D01*
X453232Y420277D01*
X453317Y420333D01*
X453400Y420391D01*
X453480Y420453D01*
X453558Y420518D01*
X453634Y420585D01*
X453707Y420655D01*
X453777Y420728D01*
X453844Y420804D01*
X453909Y420882D01*
X453971Y420962D01*
X454029Y421045D01*
X454085Y421130D01*
X454137Y421217D01*
X454186Y421305D01*
X454232Y421396D01*
X454274Y421488D01*
X454313Y421581D01*
X454348Y421676D01*
X454380Y421773D01*
X454408Y421870D01*
X454432Y421968D01*
X454453Y422067D01*
X454470Y422167D01*
X454483Y422268D01*
X454492Y422369D01*
X454498Y422470D01*
X454500Y422571D01*
X454501Y422571D02*
X454501Y427087D01*
X454500Y427087D02*
X454498Y427206D01*
X454492Y427326D01*
X454482Y427445D01*
X454468Y427563D01*
X454451Y427682D01*
X454429Y427799D01*
X454404Y427916D01*
X454374Y428031D01*
X454341Y428146D01*
X454304Y428260D01*
X454264Y428372D01*
X454219Y428483D01*
X454171Y428592D01*
X454120Y428700D01*
X454065Y428806D01*
X454006Y428910D01*
X453944Y429012D01*
X453879Y429112D01*
X453810Y429210D01*
X453738Y429306D01*
X453663Y429399D01*
X453586Y429489D01*
X453505Y429577D01*
X453421Y429662D01*
X453334Y429744D01*
X453245Y429824D01*
X453153Y429900D01*
X453059Y429974D01*
X452962Y430044D01*
X452864Y430111D01*
X452763Y430175D01*
X452659Y430235D01*
X452554Y430292D01*
X452447Y430345D01*
X452339Y430395D01*
X452229Y430441D01*
X452117Y430483D01*
X452004Y430522D01*
X451890Y430557D01*
X451775Y430588D01*
X451658Y430616D01*
X451541Y430639D01*
X451424Y430659D01*
X451305Y430675D01*
X451186Y430687D01*
X451067Y430695D01*
X450948Y430699D01*
X450828Y430699D01*
X450709Y430695D01*
X450590Y430687D01*
X450471Y430675D01*
X450352Y430659D01*
X450235Y430639D01*
X450118Y430616D01*
X450001Y430588D01*
X449886Y430557D01*
X449772Y430522D01*
X449659Y430483D01*
X449547Y430441D01*
X449437Y430395D01*
X449329Y430345D01*
X449222Y430292D01*
X449117Y430235D01*
X449013Y430175D01*
X448912Y430111D01*
X448814Y430044D01*
X448717Y429974D01*
X448623Y429900D01*
X448531Y429824D01*
X448442Y429744D01*
X448355Y429662D01*
X448271Y429577D01*
X448190Y429489D01*
X448113Y429399D01*
X448038Y429306D01*
X447966Y429210D01*
X447897Y429112D01*
X447832Y429012D01*
X447770Y428910D01*
X447711Y428806D01*
X447656Y428700D01*
X447605Y428592D01*
X447557Y428483D01*
X447512Y428372D01*
X447472Y428260D01*
X447435Y428146D01*
X447402Y428031D01*
X447372Y427916D01*
X447347Y427799D01*
X447325Y427682D01*
X447308Y427563D01*
X447294Y427445D01*
X447284Y427326D01*
X447278Y427206D01*
X447276Y427087D01*
X447276Y425281D01*
X454501Y425281D01*
X437866Y426184D02*
X433802Y426184D01*
X437866Y426184D02*
X437978Y426182D01*
X438089Y426176D01*
X438200Y426166D01*
X438311Y426153D01*
X438421Y426135D01*
X438530Y426113D01*
X438639Y426088D01*
X438747Y426059D01*
X438853Y426026D01*
X438959Y425989D01*
X439063Y425949D01*
X439165Y425905D01*
X439266Y425857D01*
X439365Y425806D01*
X439463Y425751D01*
X439558Y425693D01*
X439651Y425632D01*
X439742Y425567D01*
X439831Y425499D01*
X439917Y425428D01*
X440000Y425355D01*
X440081Y425278D01*
X440160Y425198D01*
X440235Y425116D01*
X440307Y425031D01*
X440377Y424944D01*
X440443Y424854D01*
X440506Y424762D01*
X440566Y424667D01*
X440622Y424571D01*
X440675Y424473D01*
X440724Y424373D01*
X440770Y424271D01*
X440812Y424168D01*
X440851Y424063D01*
X440886Y423957D01*
X440917Y423850D01*
X440944Y423742D01*
X440968Y423633D01*
X440987Y423523D01*
X441003Y423413D01*
X441015Y423302D01*
X441023Y423190D01*
X441027Y423079D01*
X441027Y422967D01*
X441023Y422856D01*
X441015Y422744D01*
X441003Y422633D01*
X440987Y422523D01*
X440968Y422413D01*
X440944Y422304D01*
X440917Y422196D01*
X440886Y422089D01*
X440851Y421983D01*
X440812Y421878D01*
X440770Y421775D01*
X440724Y421673D01*
X440675Y421573D01*
X440622Y421475D01*
X440566Y421379D01*
X440506Y421284D01*
X440443Y421192D01*
X440377Y421102D01*
X440307Y421015D01*
X440235Y420930D01*
X440160Y420848D01*
X440081Y420768D01*
X440000Y420691D01*
X439917Y420618D01*
X439831Y420547D01*
X439742Y420479D01*
X439651Y420414D01*
X439558Y420353D01*
X439463Y420295D01*
X439365Y420240D01*
X439266Y420189D01*
X439165Y420141D01*
X439063Y420097D01*
X438959Y420057D01*
X438853Y420020D01*
X438747Y419987D01*
X438639Y419958D01*
X438530Y419933D01*
X438421Y419911D01*
X438311Y419893D01*
X438200Y419880D01*
X438089Y419870D01*
X437978Y419864D01*
X437866Y419862D01*
X433802Y419862D01*
X433802Y427990D01*
X433804Y428091D01*
X433810Y428192D01*
X433819Y428293D01*
X433832Y428394D01*
X433849Y428494D01*
X433870Y428593D01*
X433894Y428691D01*
X433922Y428788D01*
X433954Y428885D01*
X433989Y428980D01*
X434028Y429073D01*
X434070Y429165D01*
X434116Y429256D01*
X434165Y429345D01*
X434217Y429431D01*
X434273Y429516D01*
X434331Y429599D01*
X434393Y429679D01*
X434458Y429757D01*
X434525Y429833D01*
X434595Y429906D01*
X434668Y429976D01*
X434744Y430043D01*
X434822Y430108D01*
X434902Y430170D01*
X434985Y430228D01*
X435070Y430284D01*
X435157Y430336D01*
X435245Y430385D01*
X435336Y430431D01*
X435428Y430473D01*
X435521Y430512D01*
X435616Y430547D01*
X435713Y430579D01*
X435810Y430607D01*
X435908Y430631D01*
X436007Y430652D01*
X436107Y430669D01*
X436208Y430682D01*
X436309Y430691D01*
X436410Y430697D01*
X436511Y430699D01*
X440124Y430699D01*
D12*
X323389Y342872D02*
X321188Y342872D01*
X321188Y335534D01*
X325591Y335534D01*
X325698Y335536D01*
X325805Y335542D01*
X325912Y335552D01*
X326018Y335565D01*
X326124Y335583D01*
X326229Y335604D01*
X326333Y335629D01*
X326437Y335658D01*
X326539Y335691D01*
X326639Y335728D01*
X326739Y335768D01*
X326837Y335812D01*
X326933Y335859D01*
X327027Y335910D01*
X327120Y335964D01*
X327210Y336021D01*
X327299Y336082D01*
X327385Y336146D01*
X327468Y336213D01*
X327550Y336283D01*
X327628Y336356D01*
X327704Y336432D01*
X327777Y336510D01*
X327847Y336592D01*
X327914Y336675D01*
X327978Y336761D01*
X328039Y336850D01*
X328096Y336940D01*
X328150Y337033D01*
X328201Y337127D01*
X328249Y337223D01*
X328292Y337321D01*
X328332Y337421D01*
X328369Y337521D01*
X328402Y337623D01*
X328431Y337727D01*
X328456Y337831D01*
X328477Y337936D01*
X328495Y338042D01*
X328508Y338148D01*
X328518Y338255D01*
X328524Y338362D01*
X328526Y338469D01*
X328526Y345807D01*
X328524Y345914D01*
X328518Y346021D01*
X328508Y346128D01*
X328495Y346234D01*
X328477Y346340D01*
X328456Y346445D01*
X328431Y346549D01*
X328402Y346653D01*
X328369Y346755D01*
X328332Y346855D01*
X328292Y346955D01*
X328248Y347053D01*
X328201Y347149D01*
X328150Y347243D01*
X328096Y347336D01*
X328039Y347426D01*
X327978Y347515D01*
X327914Y347601D01*
X327847Y347684D01*
X327777Y347766D01*
X327704Y347844D01*
X327628Y347920D01*
X327550Y347993D01*
X327468Y348063D01*
X327385Y348130D01*
X327299Y348194D01*
X327210Y348255D01*
X327120Y348312D01*
X327027Y348366D01*
X326933Y348417D01*
X326837Y348464D01*
X326739Y348508D01*
X326640Y348548D01*
X326539Y348585D01*
X326437Y348618D01*
X326333Y348647D01*
X326229Y348672D01*
X326124Y348693D01*
X326018Y348711D01*
X325912Y348724D01*
X325805Y348734D01*
X325698Y348740D01*
X325591Y348742D01*
X321188Y348742D01*
X314871Y348742D02*
X314871Y335534D01*
X307533Y335534D02*
X314871Y348742D01*
X307533Y348742D02*
X307533Y335534D01*
X301216Y335534D02*
X301216Y348742D01*
X297547Y348742D01*
X297427Y348740D01*
X297307Y348734D01*
X297187Y348724D01*
X297068Y348711D01*
X296949Y348693D01*
X296831Y348672D01*
X296714Y348646D01*
X296597Y348617D01*
X296482Y348584D01*
X296368Y348547D01*
X296255Y348507D01*
X296143Y348463D01*
X296033Y348415D01*
X295924Y348364D01*
X295817Y348309D01*
X295713Y348250D01*
X295610Y348189D01*
X295509Y348124D01*
X295410Y348055D01*
X295313Y347984D01*
X295219Y347909D01*
X295128Y347832D01*
X295039Y347751D01*
X294953Y347667D01*
X294869Y347581D01*
X294788Y347492D01*
X294711Y347401D01*
X294636Y347307D01*
X294565Y347210D01*
X294496Y347111D01*
X294431Y347010D01*
X294370Y346908D01*
X294311Y346803D01*
X294256Y346696D01*
X294205Y346587D01*
X294157Y346477D01*
X294113Y346365D01*
X294073Y346252D01*
X294036Y346138D01*
X294003Y346023D01*
X293974Y345906D01*
X293948Y345789D01*
X293927Y345671D01*
X293909Y345552D01*
X293896Y345433D01*
X293886Y345313D01*
X293880Y345193D01*
X293878Y345073D01*
X293878Y339203D01*
X293880Y339083D01*
X293886Y338963D01*
X293896Y338843D01*
X293909Y338724D01*
X293927Y338605D01*
X293948Y338487D01*
X293974Y338370D01*
X294003Y338253D01*
X294036Y338138D01*
X294073Y338024D01*
X294113Y337911D01*
X294157Y337799D01*
X294205Y337689D01*
X294256Y337580D01*
X294311Y337473D01*
X294370Y337369D01*
X294431Y337266D01*
X294496Y337165D01*
X294565Y337066D01*
X294636Y336969D01*
X294711Y336875D01*
X294788Y336784D01*
X294869Y336695D01*
X294953Y336609D01*
X295039Y336525D01*
X295128Y336444D01*
X295219Y336367D01*
X295313Y336292D01*
X295410Y336221D01*
X295509Y336152D01*
X295610Y336087D01*
X295713Y336026D01*
X295817Y335967D01*
X295924Y335912D01*
X296033Y335861D01*
X296143Y335813D01*
X296255Y335769D01*
X296368Y335729D01*
X296482Y335692D01*
X296597Y335659D01*
X296714Y335630D01*
X296831Y335604D01*
X296949Y335583D01*
X297068Y335565D01*
X297187Y335552D01*
X297307Y335542D01*
X297427Y335536D01*
X297547Y335534D01*
X301216Y335534D01*
X361148Y342872D02*
X365551Y342872D01*
X361148Y342872D02*
X361041Y342870D01*
X360934Y342864D01*
X360827Y342854D01*
X360721Y342841D01*
X360615Y342823D01*
X360510Y342802D01*
X360406Y342777D01*
X360302Y342748D01*
X360200Y342715D01*
X360100Y342678D01*
X360000Y342638D01*
X359902Y342594D01*
X359806Y342547D01*
X359712Y342496D01*
X359619Y342442D01*
X359529Y342385D01*
X359440Y342324D01*
X359354Y342260D01*
X359271Y342193D01*
X359189Y342123D01*
X359111Y342050D01*
X359035Y341974D01*
X358962Y341896D01*
X358892Y341814D01*
X358825Y341731D01*
X358761Y341645D01*
X358700Y341556D01*
X358643Y341466D01*
X358589Y341373D01*
X358538Y341279D01*
X358491Y341183D01*
X358447Y341085D01*
X358407Y340985D01*
X358370Y340885D01*
X358337Y340783D01*
X358308Y340679D01*
X358283Y340575D01*
X358262Y340470D01*
X358244Y340364D01*
X358231Y340258D01*
X358221Y340151D01*
X358215Y340044D01*
X358213Y339937D01*
X358213Y339203D01*
X358215Y339083D01*
X358221Y338963D01*
X358231Y338843D01*
X358244Y338724D01*
X358262Y338605D01*
X358283Y338487D01*
X358309Y338370D01*
X358338Y338253D01*
X358371Y338138D01*
X358408Y338024D01*
X358448Y337911D01*
X358492Y337799D01*
X358540Y337689D01*
X358591Y337580D01*
X358646Y337473D01*
X358705Y337369D01*
X358766Y337266D01*
X358831Y337165D01*
X358900Y337066D01*
X358971Y336969D01*
X359046Y336875D01*
X359123Y336784D01*
X359204Y336695D01*
X359288Y336609D01*
X359374Y336525D01*
X359463Y336444D01*
X359554Y336367D01*
X359648Y336292D01*
X359745Y336221D01*
X359844Y336152D01*
X359945Y336087D01*
X360048Y336026D01*
X360152Y335967D01*
X360259Y335912D01*
X360368Y335861D01*
X360478Y335813D01*
X360590Y335769D01*
X360703Y335729D01*
X360817Y335692D01*
X360932Y335659D01*
X361049Y335630D01*
X361166Y335604D01*
X361284Y335583D01*
X361403Y335565D01*
X361522Y335552D01*
X361642Y335542D01*
X361762Y335536D01*
X361882Y335534D01*
X362002Y335536D01*
X362122Y335542D01*
X362242Y335552D01*
X362361Y335565D01*
X362480Y335583D01*
X362598Y335604D01*
X362715Y335630D01*
X362832Y335659D01*
X362947Y335692D01*
X363061Y335729D01*
X363174Y335769D01*
X363286Y335813D01*
X363396Y335861D01*
X363505Y335912D01*
X363612Y335967D01*
X363717Y336026D01*
X363819Y336087D01*
X363920Y336152D01*
X364019Y336221D01*
X364116Y336292D01*
X364210Y336367D01*
X364301Y336444D01*
X364390Y336525D01*
X364476Y336609D01*
X364560Y336695D01*
X364641Y336784D01*
X364718Y336875D01*
X364793Y336969D01*
X364864Y337066D01*
X364933Y337165D01*
X364998Y337266D01*
X365059Y337369D01*
X365118Y337473D01*
X365173Y337580D01*
X365224Y337689D01*
X365272Y337799D01*
X365316Y337911D01*
X365356Y338024D01*
X365393Y338138D01*
X365426Y338253D01*
X365455Y338370D01*
X365481Y338487D01*
X365502Y338605D01*
X365520Y338724D01*
X365533Y338843D01*
X365543Y338963D01*
X365549Y339083D01*
X365551Y339203D01*
X365551Y342872D01*
X365549Y343023D01*
X365543Y343174D01*
X365533Y343325D01*
X365520Y343476D01*
X365502Y343626D01*
X365481Y343775D01*
X365456Y343924D01*
X365427Y344073D01*
X365394Y344220D01*
X365357Y344367D01*
X365317Y344513D01*
X365273Y344657D01*
X365225Y344801D01*
X365174Y344943D01*
X365119Y345083D01*
X365060Y345223D01*
X364997Y345360D01*
X364932Y345496D01*
X364862Y345631D01*
X364790Y345763D01*
X364713Y345894D01*
X364634Y346022D01*
X364551Y346149D01*
X364465Y346273D01*
X364376Y346395D01*
X364284Y346515D01*
X364188Y346632D01*
X364090Y346747D01*
X363989Y346859D01*
X363885Y346969D01*
X363778Y347076D01*
X363668Y347180D01*
X363556Y347281D01*
X363441Y347379D01*
X363324Y347475D01*
X363204Y347567D01*
X363082Y347656D01*
X362958Y347742D01*
X362831Y347825D01*
X362703Y347904D01*
X362572Y347981D01*
X362440Y348053D01*
X362305Y348123D01*
X362169Y348188D01*
X362032Y348251D01*
X361892Y348310D01*
X361752Y348365D01*
X361610Y348416D01*
X361466Y348464D01*
X361322Y348508D01*
X361176Y348548D01*
X361029Y348585D01*
X360882Y348618D01*
X360733Y348647D01*
X360584Y348672D01*
X360435Y348693D01*
X360285Y348711D01*
X360134Y348724D01*
X359983Y348734D01*
X359832Y348740D01*
X359681Y348742D01*
X353483Y348742D02*
X349081Y335534D01*
X344678Y348742D01*
D13*
X216662Y527050D03*
X296672Y527050D03*
D14*
X216789Y527304D03*
X296545Y527304D03*
D15*
X216789Y527558D03*
X296545Y527558D03*
D16*
X216916Y527812D03*
X296418Y527812D03*
D17*
X217170Y528066D03*
X296164Y528066D03*
D18*
X217170Y528320D03*
X296164Y528320D03*
D19*
X217170Y528574D03*
X296164Y528574D03*
D20*
X217297Y528828D03*
X296037Y528828D03*
D21*
X217424Y529082D03*
X295910Y529082D03*
D22*
X217551Y529336D03*
X295783Y529336D03*
D23*
X217678Y529590D03*
X295656Y529590D03*
D24*
X217678Y529844D03*
X295656Y529844D03*
D25*
X217805Y530098D03*
X295529Y530098D03*
D26*
X217932Y530352D03*
X295402Y530352D03*
D27*
X218059Y530606D03*
X295275Y530606D03*
D28*
X218186Y530860D03*
X295148Y530860D03*
D29*
X218186Y531114D03*
X295148Y531114D03*
D30*
X218313Y531368D03*
X295021Y531368D03*
D31*
X218313Y531622D03*
X295021Y531622D03*
D32*
X218567Y531876D03*
X294767Y531876D03*
D33*
X218694Y532130D03*
X294640Y532130D03*
D34*
X207645Y532384D03*
D35*
X227584Y532384D03*
X285750Y532384D03*
D34*
X305689Y532384D03*
D36*
X205994Y532638D03*
D37*
X229616Y532638D03*
X283718Y532638D03*
D36*
X307340Y532638D03*
D38*
X205105Y532892D03*
D39*
X230632Y532892D03*
X282702Y532892D03*
D38*
X308229Y532892D03*
D40*
X204470Y533146D03*
D41*
X231521Y533146D03*
X281813Y533146D03*
D40*
X308864Y533146D03*
D42*
X203708Y533400D03*
D43*
X232410Y533400D03*
X280924Y533400D03*
D42*
X309626Y533400D03*
D44*
X203200Y533654D03*
D45*
X233172Y533654D03*
X280162Y533654D03*
D44*
X310134Y533654D03*
D46*
X202692Y533908D03*
D47*
X233934Y533908D03*
X279400Y533908D03*
D46*
X310642Y533908D03*
D48*
X202311Y534162D03*
D15*
X234569Y534162D03*
X278765Y534162D03*
D48*
X311023Y534162D03*
D49*
X201930Y534416D03*
D50*
X235077Y534416D03*
X278257Y534416D03*
D49*
X311404Y534416D03*
D51*
X201549Y534670D03*
D52*
X235712Y534670D03*
X277622Y534670D03*
D51*
X311785Y534670D03*
D53*
X201295Y534924D03*
D54*
X236347Y534924D03*
X276987Y534924D03*
D53*
X312039Y534924D03*
D55*
X200914Y535178D03*
D56*
X236982Y535178D03*
X276352Y535178D03*
D55*
X312420Y535178D03*
D57*
X200533Y535432D03*
D56*
X237490Y535432D03*
X275844Y535432D03*
D57*
X312801Y535432D03*
D58*
X200152Y535686D03*
D59*
X237998Y535686D03*
X275336Y535686D03*
D58*
X313182Y535686D03*
X199898Y535940D03*
D59*
X238506Y535940D03*
X274828Y535940D03*
D58*
X313436Y535940D03*
D13*
X199644Y536194D03*
D60*
X239141Y536194D03*
X274193Y536194D03*
D13*
X313690Y536194D03*
X199390Y536448D03*
D40*
X239522Y536448D03*
X273812Y536448D03*
D13*
X313944Y536448D03*
X199136Y536702D03*
D40*
X240030Y536702D03*
X273304Y536702D03*
D61*
X314325Y536702D03*
D62*
X198882Y536956D03*
D40*
X240538Y536956D03*
X272796Y536956D03*
D62*
X314452Y536956D03*
X198628Y537210D03*
D14*
X240919Y537210D03*
X272415Y537210D03*
D62*
X314706Y537210D03*
X198374Y537464D03*
D42*
X241554Y537464D03*
X271780Y537464D03*
D62*
X314960Y537464D03*
D63*
X198247Y537718D03*
D64*
X241935Y537718D03*
X271399Y537718D03*
D63*
X315087Y537718D03*
X197993Y537972D03*
D64*
X242443Y537972D03*
X270891Y537972D03*
D63*
X315341Y537972D03*
D65*
X197866Y538226D03*
D64*
X242951Y538226D03*
X270383Y538226D03*
D65*
X315468Y538226D03*
X197612Y538480D03*
D64*
X243205Y538480D03*
D44*
X270002Y538480D03*
D65*
X315722Y538480D03*
D66*
X197485Y538734D03*
D64*
X243713Y538734D03*
X269621Y538734D03*
D66*
X315849Y538734D03*
X197231Y538988D03*
D44*
X244094Y538988D03*
X269240Y538988D03*
D66*
X316103Y538988D03*
D67*
X197104Y539242D03*
D44*
X244602Y539242D03*
X268732Y539242D03*
D67*
X316230Y539242D03*
D66*
X196977Y539496D03*
D68*
X244983Y539496D03*
X268351Y539496D03*
D66*
X316357Y539496D03*
D67*
X196850Y539750D03*
D68*
X245491Y539750D03*
X267843Y539750D03*
D67*
X316484Y539750D03*
X196596Y540004D03*
D68*
X245745Y540004D03*
X267589Y540004D03*
D67*
X316738Y540004D03*
X196596Y540258D03*
D46*
X246126Y540258D03*
D68*
X267081Y540258D03*
D67*
X316738Y540258D03*
X196342Y540512D03*
D46*
X246634Y540512D03*
X266700Y540512D03*
D67*
X316992Y540512D03*
D69*
X196215Y540766D03*
D48*
X247015Y540766D03*
X266319Y540766D03*
D69*
X317119Y540766D03*
X196215Y541020D03*
D46*
X247396Y541020D03*
X265938Y541020D03*
D69*
X317119Y541020D03*
X195961Y541274D03*
D48*
X247777Y541274D03*
X265557Y541274D03*
D69*
X317373Y541274D03*
X195961Y541528D03*
D48*
X248285Y541528D03*
X265049Y541528D03*
D69*
X317373Y541528D03*
X195707Y541782D03*
D48*
X248539Y541782D03*
X264795Y541782D03*
D69*
X317627Y541782D03*
X195707Y542036D03*
D49*
X248920Y542036D03*
X264414Y542036D03*
D69*
X317627Y542036D03*
D70*
X195580Y542290D03*
D48*
X249301Y542290D03*
X264033Y542290D03*
D70*
X317754Y542290D03*
D69*
X195453Y542544D03*
D49*
X249682Y542544D03*
X263652Y542544D03*
D69*
X317881Y542544D03*
X195453Y542798D03*
D51*
X250063Y542798D03*
X263271Y542798D03*
D69*
X317881Y542798D03*
D70*
X195326Y543052D03*
D49*
X250444Y543052D03*
X262890Y543052D03*
D70*
X318008Y543052D03*
X195326Y543306D03*
D51*
X250825Y543306D03*
X262509Y543306D03*
D70*
X318008Y543306D03*
X195072Y543560D03*
D51*
X251079Y543560D03*
X262255Y543560D03*
D71*
X290576Y543560D03*
D70*
X318262Y543560D03*
X195072Y543814D03*
D51*
X251587Y543814D03*
X261747Y543814D03*
D72*
X290703Y543814D03*
D70*
X318262Y543814D03*
X195072Y544068D03*
D73*
X256667Y544068D03*
D74*
X290576Y544068D03*
D70*
X318262Y544068D03*
D75*
X194945Y544322D03*
D76*
X256667Y544322D03*
D77*
X290703Y544322D03*
D75*
X318389Y544322D03*
D70*
X194818Y544576D03*
D78*
X256667Y544576D03*
D79*
X290576Y544576D03*
D70*
X318516Y544576D03*
X194818Y544830D03*
D80*
X207137Y544830D03*
D81*
X256667Y544830D03*
D82*
X290576Y544830D03*
D80*
X306197Y544830D03*
D70*
X318516Y544830D03*
X194818Y545084D03*
D83*
X207264Y545084D03*
D41*
X256667Y545084D03*
D83*
X290576Y545084D03*
X306070Y545084D03*
D70*
X318516Y545084D03*
D75*
X194691Y545338D03*
D63*
X207391Y545338D03*
D84*
X256667Y545338D03*
D75*
X290449Y545338D03*
D63*
X305943Y545338D03*
D75*
X318643Y545338D03*
X194691Y545592D03*
D85*
X207391Y545592D03*
D86*
X256667Y545592D03*
D70*
X290322Y545592D03*
D85*
X305943Y545592D03*
D75*
X318643Y545592D03*
X194691Y545846D03*
D53*
X207391Y545846D03*
D15*
X256667Y545846D03*
D70*
X290322Y545846D03*
D53*
X305943Y545846D03*
D75*
X318643Y545846D03*
D70*
X194564Y546100D03*
D49*
X207518Y546100D03*
D54*
X256667Y546100D03*
D67*
X290322Y546100D03*
D49*
X305816Y546100D03*
D70*
X318770Y546100D03*
D75*
X194437Y546354D03*
D44*
X207518Y546354D03*
D38*
X256667Y546354D03*
D66*
X290195Y546354D03*
D44*
X305816Y546354D03*
D75*
X318897Y546354D03*
X194437Y546608D03*
D14*
X207645Y546608D03*
D60*
X256667Y546608D03*
D65*
X290068Y546608D03*
D14*
X305689Y546608D03*
D75*
X318897Y546608D03*
X194437Y546862D03*
D59*
X207772Y546862D03*
D64*
X256667Y546862D03*
D65*
X289814Y546862D03*
D59*
X305562Y546862D03*
D75*
X318897Y546862D03*
X194437Y547116D03*
D56*
X207772Y547116D03*
D68*
X256667Y547116D03*
D65*
X289814Y547116D03*
D56*
X305562Y547116D03*
D75*
X318897Y547116D03*
X194437Y547370D03*
D50*
X207899Y547370D03*
D48*
X256667Y547370D03*
D63*
X289687Y547370D03*
D50*
X305435Y547370D03*
D75*
X318897Y547370D03*
X194437Y547624D03*
D15*
X207899Y547624D03*
D53*
X256667Y547624D03*
D63*
X289433Y547624D03*
D15*
X305435Y547624D03*
D75*
X318897Y547624D03*
X194437Y547878D03*
D86*
X208153Y547878D03*
D57*
X256667Y547878D03*
D62*
X289306Y547878D03*
D86*
X305181Y547878D03*
D75*
X318897Y547878D03*
X194437Y548132D03*
D87*
X208153Y548132D03*
D85*
X256667Y548132D03*
D62*
X289052Y548132D03*
D87*
X305181Y548132D03*
D75*
X318897Y548132D03*
X194437Y548386D03*
D84*
X208153Y548386D03*
D63*
X256667Y548386D03*
D62*
X288798Y548386D03*
D84*
X305181Y548386D03*
D75*
X318897Y548386D03*
D83*
X194310Y548640D03*
D88*
X208280Y548640D03*
D66*
X256667Y548640D03*
D63*
X288671Y548640D03*
D88*
X305054Y548640D03*
D83*
X319024Y548640D03*
X194310Y548894D03*
D16*
X208280Y548894D03*
D69*
X256667Y548894D03*
D62*
X288544Y548894D03*
D16*
X305054Y548894D03*
D83*
X319024Y548894D03*
X194310Y549148D03*
D39*
X208534Y549148D03*
D89*
X256667Y549148D03*
D62*
X288290Y549148D03*
D39*
X304800Y549148D03*
D83*
X319024Y549148D03*
X194310Y549402D03*
D90*
X208534Y549402D03*
D91*
X256667Y549402D03*
D62*
X288036Y549402D03*
D90*
X304800Y549402D03*
D83*
X319024Y549402D03*
X194310Y549656D03*
D78*
X208661Y549656D03*
D77*
X256667Y549656D03*
D62*
X287782Y549656D03*
D78*
X304673Y549656D03*
D83*
X319024Y549656D03*
X194310Y549910D03*
D76*
X208661Y549910D03*
D80*
X256667Y549910D03*
D62*
X287528Y549910D03*
D76*
X304673Y549910D03*
D83*
X319024Y549910D03*
X194310Y550164D03*
D17*
X208788Y550164D03*
D72*
X256667Y550164D03*
D63*
X287401Y550164D03*
D17*
X304546Y550164D03*
D83*
X319024Y550164D03*
D75*
X194437Y550418D03*
D65*
X202946Y550418D03*
D49*
X213360Y550418D03*
D62*
X287274Y550418D03*
D49*
X299974Y550418D03*
D65*
X310388Y550418D03*
D75*
X318897Y550418D03*
X194437Y550672D03*
D67*
X202692Y550672D03*
D92*
X213868Y550672D03*
D62*
X287020Y550672D03*
D92*
X299466Y550672D03*
D67*
X310642Y550672D03*
D75*
X318897Y550672D03*
X194437Y550926D03*
D67*
X202438Y550926D03*
D53*
X214249Y550926D03*
D62*
X286766Y550926D03*
D53*
X299085Y550926D03*
D67*
X310896Y550926D03*
D75*
X318897Y550926D03*
X194437Y551180D03*
D69*
X202311Y551180D03*
D55*
X214630Y551180D03*
D62*
X286512Y551180D03*
D55*
X298704Y551180D03*
D69*
X311023Y551180D03*
D75*
X318897Y551180D03*
X194437Y551434D03*
D70*
X202184Y551434D03*
D57*
X215011Y551434D03*
D62*
X286258Y551434D03*
D57*
X298323Y551434D03*
D70*
X311150Y551434D03*
D75*
X318897Y551434D03*
X194437Y551688D03*
X202057Y551688D03*
D58*
X215138Y551688D03*
D62*
X286004Y551688D03*
D58*
X298196Y551688D03*
D75*
X311277Y551688D03*
X318897Y551688D03*
X194437Y551942D03*
X202057Y551942D03*
D85*
X215519Y551942D03*
D62*
X286004Y551942D03*
D85*
X297815Y551942D03*
D75*
X311277Y551942D03*
X318897Y551942D03*
X194437Y552196D03*
X202057Y552196D03*
D85*
X215773Y552196D03*
D62*
X285750Y552196D03*
D85*
X297561Y552196D03*
D75*
X311277Y552196D03*
X318897Y552196D03*
D70*
X194564Y552450D03*
D75*
X202057Y552450D03*
D13*
X216154Y552450D03*
D62*
X285496Y552450D03*
D13*
X297180Y552450D03*
D75*
X311277Y552450D03*
D70*
X318770Y552450D03*
X194564Y552704D03*
D75*
X202057Y552704D03*
D13*
X216408Y552704D03*
D62*
X285242Y552704D03*
D13*
X296926Y552704D03*
D75*
X311277Y552704D03*
X318643Y552704D03*
X194691Y552958D03*
X202057Y552958D03*
D13*
X216662Y552958D03*
D62*
X284988Y552958D03*
D13*
X296672Y552958D03*
D75*
X311277Y552958D03*
X318643Y552958D03*
X194691Y553212D03*
X202057Y553212D03*
D13*
X216916Y553212D03*
D61*
X284861Y553212D03*
D13*
X296418Y553212D03*
D75*
X311277Y553212D03*
X318643Y553212D03*
D70*
X194818Y553466D03*
D75*
X202057Y553466D03*
D13*
X217170Y553466D03*
D61*
X284607Y553466D03*
D13*
X296164Y553466D03*
D75*
X311277Y553466D03*
D70*
X318516Y553466D03*
X194818Y553720D03*
D75*
X202057Y553720D03*
D13*
X217424Y553720D03*
D61*
X284353Y553720D03*
D13*
X295910Y553720D03*
D75*
X311277Y553720D03*
D70*
X318516Y553720D03*
X194818Y553974D03*
X202184Y553974D03*
D61*
X217551Y553974D03*
X284099Y553974D03*
X295783Y553974D03*
D70*
X311150Y553974D03*
X318516Y553974D03*
X195072Y554228D03*
X202184Y554228D03*
D61*
X217805Y554228D03*
X283845Y554228D03*
X295529Y554228D03*
D70*
X311150Y554228D03*
X318262Y554228D03*
X195072Y554482D03*
D69*
X202311Y554482D03*
D61*
X218059Y554482D03*
X283591Y554482D03*
X295275Y554482D03*
D69*
X311023Y554482D03*
D70*
X318262Y554482D03*
D69*
X195199Y554736D03*
D70*
X202438Y554736D03*
D93*
X211201Y554736D03*
D61*
X218313Y554736D03*
X283337Y554736D03*
X295021Y554736D03*
D93*
X302133Y554736D03*
D70*
X310896Y554736D03*
D69*
X318135Y554736D03*
X195199Y554990D03*
X202565Y554990D03*
D94*
X211074Y554990D03*
D61*
X218567Y554990D03*
D13*
X283210Y554990D03*
D61*
X294767Y554990D03*
D94*
X302260Y554990D03*
D69*
X310769Y554990D03*
X318135Y554990D03*
D70*
X195326Y555244D03*
D66*
X202819Y555244D03*
D95*
X211201Y555244D03*
D61*
X218821Y555244D03*
D13*
X282956Y555244D03*
D61*
X294513Y555244D03*
D95*
X302133Y555244D03*
D66*
X310515Y555244D03*
D70*
X318008Y555244D03*
D69*
X195453Y555498D03*
D63*
X203073Y555498D03*
D91*
X210947Y555498D03*
D61*
X219075Y555498D03*
D13*
X282702Y555498D03*
D61*
X294259Y555498D03*
D91*
X302387Y555498D03*
D63*
X310261Y555498D03*
D69*
X317881Y555498D03*
D67*
X195580Y555752D03*
D50*
X206629Y555752D03*
D61*
X219329Y555752D03*
D13*
X282448Y555752D03*
D61*
X294005Y555752D03*
D50*
X306705Y555752D03*
D67*
X317754Y555752D03*
D69*
X195707Y556006D03*
D50*
X206629Y556006D03*
D62*
X219456Y556006D03*
D93*
X259207Y556006D03*
D13*
X282194Y556006D03*
D62*
X293878Y556006D03*
D50*
X306705Y556006D03*
D69*
X317627Y556006D03*
D67*
X195834Y556260D03*
D36*
X206756Y556260D03*
D62*
X219710Y556260D03*
D72*
X259207Y556260D03*
D13*
X281940Y556260D03*
D62*
X293624Y556260D03*
D36*
X306578Y556260D03*
D67*
X317500Y556260D03*
D66*
X195961Y556514D03*
D50*
X206883Y556514D03*
D62*
X219964Y556514D03*
D95*
X259207Y556514D03*
D13*
X281686Y556514D03*
D62*
X293370Y556514D03*
D50*
X306451Y556514D03*
D66*
X317373Y556514D03*
D67*
X196088Y556768D03*
D36*
X207010Y556768D03*
D62*
X220218Y556768D03*
D77*
X259207Y556768D03*
D13*
X281432Y556768D03*
D62*
X293116Y556768D03*
D36*
X306324Y556768D03*
D67*
X317246Y556768D03*
D66*
X196215Y557022D03*
D50*
X207137Y557022D03*
D61*
X220345Y557022D03*
D91*
X259207Y557022D03*
D85*
X281305Y557022D03*
D61*
X292989Y557022D03*
D50*
X306197Y557022D03*
D66*
X317119Y557022D03*
X196469Y557276D03*
D50*
X207137Y557276D03*
D61*
X220599Y557276D03*
D82*
X259334Y557276D03*
D58*
X280924Y557276D03*
D61*
X292735Y557276D03*
D50*
X306197Y557276D03*
D66*
X316865Y557276D03*
D65*
X196596Y557530D03*
D52*
X207264Y557530D03*
D61*
X220853Y557530D03*
D75*
X259461Y557530D03*
D58*
X280670Y557530D03*
D61*
X292481Y557530D03*
D52*
X306070Y557530D03*
D65*
X316738Y557530D03*
X196850Y557784D03*
D54*
X207391Y557784D03*
D61*
X221107Y557784D03*
D70*
X259588Y557784D03*
D58*
X280416Y557784D03*
D61*
X292227Y557784D03*
D54*
X305943Y557784D03*
D65*
X316484Y557784D03*
D18*
X203708Y558038D03*
D61*
X221361Y558038D03*
D67*
X259588Y558038D03*
D57*
X280035Y558038D03*
D61*
X291973Y558038D03*
D18*
X309626Y558038D03*
D96*
X203708Y558292D03*
D62*
X221488Y558292D03*
D67*
X259588Y558292D03*
D57*
X279781Y558292D03*
D62*
X291846Y558292D03*
D96*
X309626Y558292D03*
X203708Y558546D03*
D62*
X221742Y558546D03*
D66*
X259715Y558546D03*
D57*
X279527Y558546D03*
D62*
X291592Y558546D03*
D96*
X309626Y558546D03*
D97*
X203835Y558800D03*
D62*
X221996Y558800D03*
D66*
X259715Y558800D03*
D55*
X279146Y558800D03*
D62*
X291338Y558800D03*
D97*
X309499Y558800D03*
X203835Y559054D03*
D61*
X222123Y559054D03*
D65*
X259842Y559054D03*
D55*
X278892Y559054D03*
D61*
X291211Y559054D03*
D97*
X309499Y559054D03*
D98*
X203962Y559308D03*
D61*
X222377Y559308D03*
D65*
X259842Y559308D03*
D53*
X278511Y559308D03*
D61*
X290957Y559308D03*
D98*
X309372Y559308D03*
D99*
X203962Y559562D03*
D61*
X222631Y559562D03*
D66*
X259969Y559562D03*
D92*
X278130Y559562D03*
D61*
X290703Y559562D03*
D99*
X309372Y559562D03*
D100*
X204089Y559816D03*
D61*
X222885Y559816D03*
D66*
X259969Y559816D03*
D51*
X277749Y559816D03*
D61*
X290449Y559816D03*
D100*
X309245Y559816D03*
X204089Y560070D03*
D61*
X223139Y560070D03*
D66*
X259969Y560070D03*
D48*
X277241Y560070D03*
D61*
X290195Y560070D03*
D100*
X309245Y560070D03*
D76*
X204089Y560324D03*
D61*
X223393Y560324D03*
D67*
X260096Y560324D03*
D46*
X276606Y560324D03*
D61*
X289941Y560324D03*
D76*
X309245Y560324D03*
D37*
X204216Y560578D03*
D61*
X223647Y560578D03*
D69*
X260223Y560578D03*
D45*
X274066Y560578D03*
D61*
X289687Y560578D03*
D37*
X309118Y560578D03*
D90*
X204216Y560832D03*
D61*
X223901Y560832D03*
D75*
X260223Y560832D03*
D87*
X273685Y560832D03*
D61*
X289433Y560832D03*
D90*
X309118Y560832D03*
D39*
X204216Y561086D03*
D13*
X224028Y561086D03*
D83*
X260350Y561086D03*
D87*
X273431Y561086D03*
D13*
X289306Y561086D03*
D39*
X309118Y561086D03*
D34*
X204343Y561340D03*
D13*
X224282Y561340D03*
D82*
X260350Y561340D03*
D87*
X273177Y561340D03*
D13*
X289052Y561340D03*
D34*
X308991Y561340D03*
D41*
X204343Y561594D03*
D13*
X224536Y561594D03*
D91*
X260477Y561594D03*
D45*
X273050Y561594D03*
D13*
X288798Y561594D03*
D41*
X308991Y561594D03*
D84*
X204343Y561848D03*
D13*
X224790Y561848D03*
D77*
X260477Y561848D03*
D86*
X272669Y561848D03*
D13*
X288544Y561848D03*
D84*
X308991Y561848D03*
D87*
X204343Y562102D03*
D13*
X225044Y562102D03*
D74*
X260604Y562102D03*
D47*
X272542Y562102D03*
D13*
X288290Y562102D03*
D87*
X308991Y562102D03*
D86*
X204343Y562356D03*
D13*
X225298Y562356D03*
D72*
X260477Y562356D03*
D47*
X272288Y562356D03*
D13*
X288036Y562356D03*
D86*
X308991Y562356D03*
D15*
X204343Y562610D03*
D13*
X225552Y562610D03*
D36*
X272034Y562610D03*
D13*
X287782Y562610D03*
D36*
X308864Y562610D03*
D52*
X204470Y562864D03*
D13*
X225806Y562864D03*
D50*
X271907Y562864D03*
D13*
X287528Y562864D03*
D52*
X308864Y562864D03*
D59*
X204470Y563118D03*
D13*
X226060Y563118D03*
D52*
X271780Y563118D03*
D13*
X287274Y563118D03*
D59*
X308864Y563118D03*
D40*
X204470Y563372D03*
D13*
X226314Y563372D03*
D56*
X271526Y563372D03*
D13*
X287020Y563372D03*
D40*
X308864Y563372D03*
D44*
X204470Y563626D03*
D13*
X226568Y563626D03*
D59*
X271272Y563626D03*
D13*
X286766Y563626D03*
D44*
X308864Y563626D03*
D49*
X204470Y563880D03*
D85*
X226695Y563880D03*
D60*
X271145Y563880D03*
D85*
X286639Y563880D03*
D49*
X308864Y563880D03*
D57*
X204597Y564134D03*
D85*
X226949Y564134D03*
D42*
X271018Y564134D03*
D85*
X286385Y564134D03*
D57*
X308737Y564134D03*
D63*
X204597Y564388D03*
D85*
X227203Y564388D03*
D44*
X270764Y564388D03*
D85*
X286131Y564388D03*
D63*
X308737Y564388D03*
D82*
X204724Y564642D03*
D58*
X227584Y564642D03*
D48*
X270637Y564642D03*
D58*
X285750Y564642D03*
D82*
X308610Y564642D03*
D58*
X227838Y564896D03*
D93*
X256667Y564896D03*
D51*
X270383Y564896D03*
D58*
X285496Y564896D03*
X228092Y565150D03*
D80*
X256667Y565150D03*
D55*
X270256Y565150D03*
D58*
X285242Y565150D03*
X228346Y565404D03*
D95*
X256667Y565404D03*
D61*
X270129Y565404D03*
D58*
X284988Y565404D03*
X228600Y565658D03*
D77*
X256667Y565658D03*
D66*
X269875Y565658D03*
D58*
X284734Y565658D03*
D57*
X228981Y565912D03*
D91*
X256667Y565912D03*
D77*
X269875Y565912D03*
D57*
X284353Y565912D03*
X229235Y566166D03*
D75*
X256667Y566166D03*
D57*
X284099Y566166D03*
X229489Y566420D03*
D69*
X256667Y566420D03*
D57*
X283845Y566420D03*
D55*
X229870Y566674D03*
D66*
X256667Y566674D03*
D55*
X283464Y566674D03*
X230124Y566928D03*
D61*
X256667Y566928D03*
D55*
X283210Y566928D03*
D53*
X230505Y567182D03*
D85*
X256667Y567182D03*
D53*
X282829Y567182D03*
D55*
X230886Y567436D03*
D53*
X256667Y567436D03*
D55*
X282448Y567436D03*
D53*
X231267Y567690D03*
D51*
X256667Y567690D03*
D53*
X282067Y567690D03*
X231521Y567944D03*
D68*
X256667Y567944D03*
D53*
X281813Y567944D03*
D92*
X231902Y568198D03*
D14*
X256667Y568198D03*
D92*
X281432Y568198D03*
D51*
X232283Y568452D03*
D38*
X256667Y568452D03*
D51*
X281051Y568452D03*
D49*
X232664Y568706D03*
D50*
X256667Y568706D03*
D49*
X280670Y568706D03*
D48*
X233045Y568960D03*
D45*
X256540Y568960D03*
D48*
X280289Y568960D03*
D46*
X233426Y569214D03*
D41*
X256667Y569214D03*
D46*
X279908Y569214D03*
X233934Y569468D03*
D78*
X256667Y569468D03*
D46*
X279400Y569468D03*
D44*
X234442Y569722D03*
D97*
X256667Y569722D03*
D44*
X278892Y569722D03*
D14*
X235077Y569976D03*
D101*
X256667Y569976D03*
D14*
X278257Y569976D03*
D54*
X236093Y570230D03*
D102*
X256667Y570230D03*
D54*
X277241Y570230D03*
D103*
X256667Y570484D03*
D104*
X256667Y570738D03*
D105*
X256667Y570992D03*
D106*
X256667Y571246D03*
D107*
X243713Y571500D03*
X269621Y571500D03*
D108*
X243840Y571754D03*
X269494Y571754D03*
D20*
X243713Y572008D03*
X269621Y572008D03*
D109*
X243840Y572262D03*
X269494Y572262D03*
D101*
X243713Y572516D03*
X269621Y572516D03*
D110*
X243713Y572770D03*
X269621Y572770D03*
D96*
X243586Y573024D03*
X269748Y573024D03*
D73*
X243713Y573278D03*
X269621Y573278D03*
D76*
X243713Y573532D03*
X269621Y573532D03*
D39*
X243586Y573786D03*
X269748Y573786D03*
D88*
X243586Y574040D03*
X269748Y574040D03*
D45*
X243586Y574294D03*
X269748Y574294D03*
D52*
X243586Y574548D03*
X269748Y574548D03*
D60*
X243459Y574802D03*
X269875Y574802D03*
D46*
X243332Y575056D03*
X270002Y575056D03*
D58*
X243332Y575310D03*
X270002Y575310D03*
D70*
X243078Y575564D03*
X270256Y575564D03*
D111*
X426900Y341350D02*
X433250Y335000D01*
X445950Y335000D01*
X452300Y341350D01*
X452300Y354050D02*
X445950Y360400D01*
X433250Y360400D01*
X426900Y354050D01*
X395150Y335000D02*
X382450Y335000D01*
X395150Y335000D02*
X401500Y341350D01*
X401500Y354050D02*
X395150Y360400D01*
X401500Y341350D02*
X407850Y335000D01*
X420550Y335000D01*
X426900Y341350D01*
X426900Y354050D02*
X420550Y360400D01*
X407850Y360400D01*
X401500Y354050D01*
X376100Y354050D02*
X376100Y341350D01*
X382450Y335000D01*
X376100Y354050D02*
X382450Y360400D01*
X395150Y360400D01*
X452300Y354050D02*
X452300Y341350D01*
X317650Y487000D02*
X324000Y493350D01*
X324000Y506050D01*
X317650Y512400D01*
X304950Y512400D02*
X298600Y506050D01*
X298600Y493350D01*
X304950Y487000D01*
X324000Y455250D02*
X324000Y442550D01*
X324000Y455250D02*
X317650Y461600D01*
X304950Y461600D02*
X298600Y455250D01*
X317650Y461600D02*
X324000Y467950D01*
X324000Y480650D01*
X317650Y487000D01*
X304950Y487000D02*
X298600Y480650D01*
X298600Y467950D01*
X304950Y461600D01*
X324000Y417150D02*
X317650Y410800D01*
X324000Y417150D02*
X324000Y429850D01*
X317650Y436200D01*
X304950Y436200D02*
X298600Y429850D01*
X298600Y417150D01*
X304950Y410800D01*
X317650Y436200D02*
X324000Y442550D01*
X304950Y436200D02*
X298600Y442550D01*
X298600Y455250D01*
X324000Y379050D02*
X324000Y366350D01*
X324000Y379050D02*
X317650Y385400D01*
X304950Y385400D02*
X298600Y379050D01*
X317650Y385400D02*
X324000Y391750D01*
X324000Y404450D01*
X317650Y410800D01*
X304950Y410800D02*
X298600Y404450D01*
X298600Y391750D01*
X304950Y385400D01*
X304950Y360000D02*
X317650Y360000D01*
X324000Y366350D01*
X304950Y360000D02*
X298600Y366350D01*
X298600Y379050D01*
X304950Y512400D02*
X317650Y512400D01*
D112*
X303883Y276154D02*
X303883Y273699D01*
X303885Y273621D01*
X303890Y273543D01*
X303900Y273466D01*
X303913Y273389D01*
X303929Y273313D01*
X303949Y273238D01*
X303973Y273164D01*
X304000Y273091D01*
X304031Y273019D01*
X304065Y272949D01*
X304102Y272880D01*
X304143Y272814D01*
X304187Y272749D01*
X304233Y272687D01*
X304283Y272627D01*
X304335Y272569D01*
X304390Y272514D01*
X304448Y272462D01*
X304508Y272412D01*
X304570Y272366D01*
X304635Y272322D01*
X304702Y272281D01*
X304770Y272244D01*
X304840Y272210D01*
X304912Y272179D01*
X304985Y272152D01*
X305059Y272128D01*
X305134Y272108D01*
X305210Y272092D01*
X305287Y272079D01*
X305364Y272069D01*
X305442Y272064D01*
X305520Y272062D01*
X305929Y272062D01*
X306018Y272064D01*
X306107Y272070D01*
X306196Y272080D01*
X306284Y272093D01*
X306372Y272110D01*
X306459Y272132D01*
X306544Y272157D01*
X306629Y272185D01*
X306712Y272218D01*
X306794Y272254D01*
X306874Y272293D01*
X306952Y272336D01*
X307028Y272382D01*
X307103Y272432D01*
X307175Y272485D01*
X307244Y272541D01*
X307311Y272600D01*
X307376Y272661D01*
X307437Y272726D01*
X307496Y272793D01*
X307552Y272862D01*
X307605Y272934D01*
X307655Y273009D01*
X307701Y273085D01*
X307744Y273163D01*
X307783Y273243D01*
X307819Y273325D01*
X307852Y273408D01*
X307880Y273493D01*
X307905Y273578D01*
X307927Y273665D01*
X307944Y273753D01*
X307957Y273841D01*
X307967Y273930D01*
X307973Y274019D01*
X307975Y274108D01*
X307973Y274197D01*
X307967Y274286D01*
X307957Y274375D01*
X307944Y274463D01*
X307927Y274551D01*
X307905Y274638D01*
X307880Y274723D01*
X307852Y274808D01*
X307819Y274891D01*
X307783Y274973D01*
X307744Y275053D01*
X307701Y275131D01*
X307655Y275207D01*
X307605Y275282D01*
X307552Y275354D01*
X307496Y275423D01*
X307437Y275490D01*
X307376Y275555D01*
X307311Y275616D01*
X307244Y275675D01*
X307175Y275731D01*
X307103Y275784D01*
X307028Y275834D01*
X306952Y275880D01*
X306874Y275923D01*
X306794Y275962D01*
X306712Y275998D01*
X306629Y276031D01*
X306544Y276059D01*
X306459Y276084D01*
X306372Y276106D01*
X306284Y276123D01*
X306196Y276136D01*
X306107Y276146D01*
X306018Y276152D01*
X305929Y276154D01*
X303883Y276154D01*
X303771Y276152D01*
X303660Y276146D01*
X303548Y276137D01*
X303437Y276124D01*
X303327Y276106D01*
X303217Y276086D01*
X303108Y276061D01*
X303000Y276033D01*
X302893Y276001D01*
X302787Y275965D01*
X302682Y275926D01*
X302579Y275883D01*
X302477Y275837D01*
X302377Y275787D01*
X302278Y275734D01*
X302182Y275677D01*
X302087Y275618D01*
X301995Y275555D01*
X301905Y275489D01*
X301817Y275420D01*
X301731Y275348D01*
X301648Y275273D01*
X301568Y275195D01*
X301490Y275115D01*
X301415Y275032D01*
X301343Y274946D01*
X301274Y274858D01*
X301208Y274768D01*
X301145Y274676D01*
X301086Y274581D01*
X301029Y274485D01*
X300976Y274386D01*
X300926Y274286D01*
X300880Y274184D01*
X300837Y274081D01*
X300798Y273976D01*
X300762Y273870D01*
X300730Y273763D01*
X300702Y273655D01*
X300677Y273546D01*
X300657Y273436D01*
X300639Y273326D01*
X300626Y273215D01*
X300617Y273103D01*
X300611Y272992D01*
X300609Y272880D01*
X300609Y281423D02*
X307975Y278968D01*
X307975Y283878D02*
X300609Y281423D01*
X299791Y286370D02*
X299791Y289644D01*
X304701Y292906D02*
X304701Y294952D01*
X304699Y295041D01*
X304693Y295130D01*
X304683Y295219D01*
X304670Y295307D01*
X304653Y295395D01*
X304631Y295482D01*
X304606Y295567D01*
X304578Y295652D01*
X304545Y295735D01*
X304509Y295817D01*
X304470Y295897D01*
X304427Y295975D01*
X304381Y296051D01*
X304331Y296126D01*
X304278Y296198D01*
X304222Y296267D01*
X304163Y296334D01*
X304102Y296399D01*
X304037Y296460D01*
X303970Y296519D01*
X303901Y296575D01*
X303829Y296628D01*
X303754Y296678D01*
X303678Y296724D01*
X303600Y296767D01*
X303520Y296806D01*
X303438Y296842D01*
X303355Y296875D01*
X303270Y296903D01*
X303185Y296928D01*
X303098Y296950D01*
X303010Y296967D01*
X302922Y296980D01*
X302833Y296990D01*
X302744Y296996D01*
X302655Y296998D01*
X302566Y296996D01*
X302477Y296990D01*
X302388Y296980D01*
X302300Y296967D01*
X302212Y296950D01*
X302125Y296928D01*
X302040Y296903D01*
X301955Y296875D01*
X301872Y296842D01*
X301790Y296806D01*
X301710Y296767D01*
X301632Y296724D01*
X301556Y296678D01*
X301481Y296628D01*
X301409Y296575D01*
X301340Y296519D01*
X301273Y296460D01*
X301208Y296399D01*
X301147Y296334D01*
X301088Y296267D01*
X301032Y296198D01*
X300979Y296126D01*
X300929Y296051D01*
X300883Y295975D01*
X300840Y295897D01*
X300801Y295817D01*
X300765Y295735D01*
X300732Y295652D01*
X300704Y295567D01*
X300679Y295482D01*
X300657Y295395D01*
X300640Y295307D01*
X300627Y295219D01*
X300617Y295130D01*
X300611Y295041D01*
X300609Y294952D01*
X300609Y292906D01*
X307975Y292906D01*
X307975Y294952D01*
X307973Y295031D01*
X307967Y295110D01*
X307958Y295189D01*
X307945Y295267D01*
X307927Y295344D01*
X307907Y295420D01*
X307882Y295495D01*
X307854Y295569D01*
X307823Y295642D01*
X307787Y295713D01*
X307749Y295782D01*
X307707Y295849D01*
X307662Y295914D01*
X307614Y295977D01*
X307563Y296038D01*
X307509Y296095D01*
X307453Y296151D01*
X307394Y296203D01*
X307332Y296253D01*
X307268Y296299D01*
X307202Y296343D01*
X307134Y296383D01*
X307064Y296419D01*
X306992Y296453D01*
X306918Y296483D01*
X306844Y296509D01*
X306768Y296532D01*
X306691Y296550D01*
X306614Y296566D01*
X306535Y296577D01*
X306457Y296585D01*
X306378Y296589D01*
X306298Y296589D01*
X306219Y296585D01*
X306141Y296577D01*
X306062Y296566D01*
X305985Y296550D01*
X305908Y296532D01*
X305832Y296509D01*
X305758Y296483D01*
X305684Y296453D01*
X305612Y296419D01*
X305542Y296383D01*
X305474Y296343D01*
X305408Y296299D01*
X305344Y296253D01*
X305282Y296203D01*
X305223Y296151D01*
X305167Y296095D01*
X305113Y296038D01*
X305062Y295977D01*
X305014Y295914D01*
X304969Y295849D01*
X304927Y295782D01*
X304889Y295713D01*
X304853Y295642D01*
X304822Y295569D01*
X304794Y295495D01*
X304769Y295420D01*
X304749Y295344D01*
X304731Y295267D01*
X304718Y295189D01*
X304709Y295110D01*
X304703Y295031D01*
X304701Y294952D01*
X300609Y299450D02*
X307975Y301906D01*
X300609Y304361D01*
X302451Y303747D02*
X302451Y300064D01*
X300609Y308733D02*
X307975Y308733D01*
X307975Y306687D02*
X307975Y310779D01*
X307975Y315073D02*
X300609Y315073D01*
X307975Y313027D02*
X307975Y317119D01*
M02*
